<?xml version="1.0" encoding="UTF-8"?>
<svg id="Camada_1" data-name="Camada 1" xmlns="http://www.w3.org/2000/svg" viewBox="0 0 884 134.67">
  <defs>
    <style>
      .cls-1 {
        fill: #0291da;
      }

      .cls-2 {
        fill: #2c373f;
      }
    </style>
  </defs>
  <path class="cls-1" d="M57.05,122.61c-8.24-.62-16.48-1.25-24.72-1.87-3.33-3.41-26.1-27.52-22.4-61.97,2.07-19.25,11.43-32.6,16.15-38.46,2.59-2.01,6.79-4.73,12.5-6.41,8.05-2.37,14.92-1.43,18.47-.67v109.38Z"/>
  <rect class="cls-1" x="56.67" y="13.23" width="43.23" height="109.38"/>
  <rect class="cls-1" x="99.52" y="13.23" width="43.23" height="109.38"/>
  <rect class="cls-1" x="142.37" y="13.23" width="43.23" height="109.38"/>
  <rect class="cls-1" x="185.22" y="13.23" width="43.23" height="109.38"/>
  <g>
    <path class="cls-2" d="M839.16,9.91H45.75c-22.61,0-40.32,25.53-40.32,58.12s17.71,58.12,40.32,58.12h793.41c22.61,0,40.32-25.53,40.32-58.12s-17.71-58.12-40.32-58.12ZM45.59,118.67c-8.46-.67-16-5.06-20.16-11.74l-1.58-2.53h40c2.29,0,4.14-1.68,4.14-3.74s-1.86-3.74-4.14-3.74H21.78c-.12.02-.25.04-.37.07l-1.66.4-.6-1.45c-2.96-7.19-4.72-14.72-5.22-22.38l-.12-1.8h31.93c2.29,0,4.14-1.68,4.14-3.74s-1.86-3.74-4.14-3.74H13.82l.12-1.8c.5-7.66,2.25-15.19,5.22-22.38l.6-1.45,1.66.4c.12.03.25.05.37.07h369.08c2.29,0,4.14-1.68,4.14-3.74s-1.86-3.74-4.14-3.74H23.84l1.58-2.53c4.17-6.68,11.71-11.06,20.16-11.74h.17s773.03,0,773.03,0l-2.77,2.83c-.13.13-.24.27-.36.41-.13.16-.26.31-.4.46-.95,1-1.69,1.84-2.32,2.65-.42.52-.8,1.02-1.19,1.53-.65.86-1.32,1.83-2.06,2.97l-.25.39c-.26.4-.52.8-.77,1.21-.66,1.1-1.33,2.32-2.09,3.83-.09.17-.17.33-.26.49-.11.2-.22.4-.32.62-.83,1.74-1.6,3.56-2.3,5.42-.1.27-.19.55-.28.83-.07.21-.13.41-.2.61-.54,1.55-1,2.98-1.38,4.38-.16.58-.3,1.16-.45,1.74l-.1.39c-.33,1.33-.63,2.72-.9,4.11-.15.77-.28,1.55-.42,2.33-.2,1.29-.39,2.73-.59,4.51l-.06.54c-.06.51-.12,1.02-.16,1.54-.04.51-.08,1-.11,1.49l-.09,1.61h-298.34c-2.29,0-4.14,1.68-4.14,3.74s1.86,3.74,4.14,3.74h298.33l.09,1.62c.03.49.06.98.1,1.47.04.53.1,1.04.16,1.55l.06.55c.17,1.69.36,3.16.59,4.51.13.78.27,1.55.42,2.33.26,1.37.56,2.76.9,4.11l.08.33c.15.61.3,1.21.46,1.8.39,1.41.84,2.84,1.38,4.37l.08.26.88,2.26-2.67-.02h-428.71c-2.29,0-4.14,1.68-4.14,3.74s1.86,3.74,4.14,3.74h434.75l.53.91c.1.17.21.34.32.51.09.14.18.28.27.43.24.39.5.78.75,1.18l.27.42c.73,1.13,1.41,2.1,2.06,2.96.37.51.73.96,1.16,1.49.79.97,1.63,1.9,2.35,2.69.13.14.27.3.4.46.12.14.24.28.36.41l2.77,2.83H45.59ZM839.16,118.68c-8.62,0-16.73-5.47-22.84-15.4-5.92-9.61-9.18-22.13-9.18-35.25s3.26-25.63,9.18-35.25c6.12-9.93,14.23-15.4,22.84-15.4s16.73,5.47,22.84,15.4c5.92,9.61,9.18,22.13,9.18,35.25s-3.26,25.63-9.18,35.25c-6.12,9.93-14.23,15.4-22.84,15.4Z"/>
    <path class="cls-2" d="M841.23,32.34c-.6-.32-1.26-.49-1.93-.49-1.38.02-2.68.68-3.42,1.76-1.16,1.73-.62,4.03,1.23,5.21,1.64,1.04,9.97,10.31,9.97,29.21s-8.19,28.07-9.81,29.15l-.18.1c-.96.5-1.64,1.31-1.93,2.27-.29.96-.14,1.97.42,2.84v.02c1.17,1.75,3.69,2.34,5.65,1.32,5.7-2.99,14.13-16.4,14.13-35.69s-8.43-32.71-14.13-35.7Z"/>
    <path class="cls-2" d="M783.02,35.41c0-2.06-1.86-3.74-4.14-3.74h-302.38c-2.29,0-4.14,1.68-4.14,3.74s1.86,3.74,4.14,3.74h302.38c2.29,0,4.14-1.68,4.14-3.74Z"/>
    <path class="cls-2" d="M480.64,68.04c0-2.06-1.86-3.74-4.14-3.74h-97.7c-2.29,0-4.14,1.68-4.14,3.74s1.86,3.74,4.14,3.74h97.7c2.29,0,4.14-1.68,4.14-3.74Z"/>
    <path class="cls-2" d="M358.83,68.04c0-2.06-1.86-3.74-4.14-3.74H69.87c-2.29,0-4.14,1.68-4.14,3.74s1.86,3.74,4.14,3.74h284.82c2.29,0,4.14-1.68,4.14-3.74Z"/>
    <path class="cls-2" d="M352.8,100.67c0-2.06-1.86-3.74-4.14-3.74h-47.21c-2.29,0-4.14,1.68-4.14,3.74s1.86,3.74,4.14,3.74h47.21c2.29,0,4.14-1.68,4.14-3.74Z"/>
    <path class="cls-2" d="M281.47,100.67c0-2.06-1.86-3.74-4.14-3.74H87.95c-2.29,0-4.14,1.68-4.14,3.74s1.86,3.74,4.14,3.74h189.38c2.29,0,4.14-1.68,4.14-3.74Z"/>
  </g>
</svg>