<?xml version="1.0" encoding="UTF-8"?>
<svg id="Camada_1" data-name="Camada 1" xmlns="http://www.w3.org/2000/svg" viewBox="0 0 4450.91 3194.18">
  <defs>
    <style>
      .cls-1 {
        fill: #2c95cf;
      }

      .cls-2 {
        fill: #1b5a81;
      }

      .cls-3 {
        fill: #2178ae;
      }

      .cls-4 {
        fill: #2891cc;
      }

      .cls-5 {
        fill: #41aee4;
      }

      .cls-6 {
        fill: #3fabe3;
      }

      .cls-7 {
        fill: #41abe3;
      }

      .cls-8 {
        fill: #41ace6;
      }

      .cls-9 {
        fill: #2e95cf;
      }

      .cls-10 {
        fill: #954029;
      }

      .cls-11 {
        fill: #1485c8;
      }

      .cls-12 {
        fill: #237ab4;
      }

      .cls-13 {
        fill: #3a4071;
      }

      .cls-14 {
        fill: #2b8fcb;
      }

      .cls-15 {
        fill: #1e71aa;
      }

      .cls-16 {
        fill: #1f75ad;
      }

      .cls-17 {
        fill: #2a90ca;
      }

      .cls-18 {
        fill: #b37c47;
      }

      .cls-19 {
        fill: #3a555e;
      }

      .cls-20 {
        fill: #3a4f64;
      }

      .cls-21 {
        fill: #3aa7e2;
      }

      .cls-22 {
        fill: #40a9e1;
      }

      .cls-23 {
        fill: #2d84bf;
      }

      .cls-24 {
        fill: #40a9e3;
      }

      .cls-25 {
        fill: #53241a;
      }

      .cls-26 {
        fill: #2a8fcb;
      }

      .cls-27 {
        fill: #2b8ec5;
      }

      .cls-28 {
        fill: #3096cf;
      }

      .cls-29 {
        fill: #2b94cf;
      }

      .cls-30 {
        fill: #3faae5;
      }

      .cls-31 {
        fill: #b57c49;
      }

      .cls-32 {
        fill: #34698a;
      }

      .cls-33 {
        fill: #3f5e6a;
      }

      .cls-34 {
        fill: #1e78ae;
      }

      .cls-35 {
        fill: #298fc9;
      }

      .cls-36 {
        fill: #855937;
      }

      .cls-37 {
        fill: #217cb5;
      }

      .cls-38 {
        fill: #2c93cf;
      }

      .cls-39 {
        fill: #a8502d;
      }

      .cls-40 {
        fill: #298ecb;
      }

      .cls-41 {
        fill: #2a8ecb;
      }

      .cls-42 {
        fill: #2c91cd;
      }

      .cls-43 {
        fill: #258cc6;
      }

      .cls-44 {
        fill: #41aae2;
      }

      .cls-45 {
        fill: #63281b;
      }

      .cls-46 {
        fill: #41ace4;
      }

      .cls-47 {
        fill: #2a92cd;
      }

      .cls-48 {
        fill: #19547d;
      }

      .cls-49 {
        fill: #42ace4;
      }

      .cls-50 {
        fill: #257eb3;
      }

      .cls-51 {
        fill: #257cb3;
      }

      .cls-52 {
        fill: #35a2dc;
      }

      .cls-53 {
        fill: #3795d3;
      }

      .cls-54 {
        fill: #3ea8e1;
      }

      .cls-55 {
        fill: #306686;
      }

      .cls-56 {
        fill: #799ab6;
      }

      .cls-57 {
        fill: #40ace4;
      }

      .cls-58 {
        fill: #2f8fcb;
      }

      .cls-59 {
        fill: #1b70a4;
      }

      .cls-60 {
        fill: #2580b2;
      }

      .cls-61 {
        fill: #2e8bc8;
      }

      .cls-62 {
        fill: #44afe6;
      }

      .cls-63 {
        fill: #41ade5;
      }

      .cls-64 {
        fill: #7a461b;
      }

      .cls-65 {
        fill: #5c9cc9;
      }

      .cls-66 {
        fill: #2990cb;
      }

      .cls-67 {
        fill: #191e1f;
      }

      .cls-68 {
        fill: #1a1f20;
      }

      .cls-69 {
        fill: #768db6;
      }

      .cls-70 {
        fill: #294965;
      }

      .cls-71 {
        fill: #2276ae;
      }

      .cls-72 {
        fill: #28445a;
      }

      .cls-73 {
        fill: #227bb4;
      }

      .cls-74 {
        fill: #2b92cc;
      }

      .cls-75 {
        fill: #3ca4df;
      }

      .cls-76 {
        fill: #ae664c;
      }

      .cls-77 {
        fill: #165b8b;
      }

      .cls-78 {
        fill: #2d95cf;
      }

      .cls-79 {
        fill: #2c87c3;
      }

      .cls-80 {
        fill: #42abe3;
      }

      .cls-81 {
        fill: #3faae2;
      }

      .cls-82 {
        fill: #2d93cd;
      }

      .cls-83 {
        fill: #a34928;
      }

      .cls-84 {
        fill: #2890cb;
      }

      .cls-85 {
        fill: #3ea7e0;
      }

      .cls-86 {
        fill: #1e2843;
      }

      .cls-87 {
        fill: #2377ae;
      }

      .cls-88 {
        fill: #41a8e2;
      }

      .cls-89 {
        fill: #704e4e;
      }

      .cls-90 {
        fill: #191c1d;
      }

      .cls-91 {
        fill: #2a8fca;
      }

      .cls-92 {
        fill: #1b74ab;
      }

      .cls-93 {
        fill: #42afe7;
      }

      .cls-94 {
        fill: #2c8fcb;
      }

      .cls-95 {
        fill: #2e96d0;
      }

      .cls-96 {
        fill: #1b323e;
      }

      .cls-97 {
        fill: #2d92ce;
      }

      .cls-98 {
        fill: #3aa6df;
      }

      .cls-99 {
        fill: #44b1e6;
      }

      .cls-100 {
        fill: #9cd5e3;
      }

      .cls-101 {
        fill: #2a8fcc;
      }

      .cls-102 {
        fill: #58b2e3;
      }

      .cls-103 {
        fill: #6e3f17;
      }

      .cls-104 {
        fill: #184c6f;
      }

      .cls-105 {
        fill: #44ade4;
      }

      .cls-106 {
        fill: #662a1d;
      }

      .cls-107 {
        fill: #267db1;
      }

      .cls-108 {
        fill: #3195d0;
      }

      .cls-109 {
        fill: #181c1d;
      }

      .cls-110 {
        fill: #2e8fcb;
      }

      .cls-111 {
        fill: #3fa8e1;
      }

      .cls-112 {
        fill: #c4a585;
      }

      .cls-113 {
        fill: #41a9e3;
      }

      .cls-114 {
        fill: #41aae4;
      }

      .cls-115 {
        fill: #b37440;
      }

      .cls-116 {
        fill: #685746;
      }

      .cls-117 {
        fill: #298fcc;
      }

      .cls-118 {
        fill: #46b1e6;
      }

      .cls-119 {
        fill: #a46428;
      }

      .cls-120 {
        fill: #40ade6;
      }

      .cls-121 {
        fill: #2d95d1;
      }

      .cls-122 {
        fill: #91c5e6;
      }

      .cls-123 {
        fill: #1c587e;
      }

      .cls-124 {
        fill: #2e94cd;
      }

      .cls-125 {
        fill: #a76429;
      }

      .cls-126 {
        fill: #2a90cd;
      }

      .cls-127 {
        fill: #ab542d;
      }

      .cls-128 {
        fill: #2b90cd;
      }

      .cls-129 {
        fill: #1c5c85;
      }

      .cls-130 {
        fill: #1a1e20;
      }

      .cls-131 {
        fill: #44aee5;
      }

      .cls-132 {
        fill: #1c2022;
      }

      .cls-133 {
        fill: #2c92cf;
      }

      .cls-134 {
        fill: #2a91cc;
      }

      .cls-135 {
        fill: #3fa8e3;
      }

      .cls-136 {
        fill: #3ba3de;
      }

      .cls-137 {
        fill: #8bcbf2;
      }

      .cls-138 {
        fill: #9a7256;
      }

      .cls-139 {
        fill: #3aa1e0;
      }

      .cls-140 {
        fill: #2d93cf;
      }

      .cls-141 {
        fill: #2f94cf;
      }

      .cls-142 {
        fill: #722a20;
      }

      .cls-143 {
        fill: #2b90cc;
      }

      .cls-144 {
        fill: #2e93cf;
      }

      .cls-145 {
        fill: #405d6c;
      }

      .cls-146 {
        fill: #2991cc;
      }

      .cls-147 {
        fill: #1e77b3;
      }

      .cls-148 {
        fill: #2b8ecb;
      }

      .cls-149 {
        fill: #7a4535;
      }

      .cls-150 {
        fill: #3ea5df;
      }

      .cls-151 {
        fill: #3a9fdd;
      }

      .cls-152 {
        fill: #1e76af;
      }

      .cls-153 {
        fill: #1d2943;
      }

      .cls-154 {
        fill: #3faae3;
      }

      .cls-155 {
        fill: #2b92ca;
      }

      .cls-156 {
        fill: #185279;
      }

      .cls-157 {
        fill: #41a7e3;
      }

      .cls-158 {
        fill: #227db6;
      }

      .cls-159 {
        fill: #2a82b3;
      }

      .cls-160 {
        fill: #3ea7e2;
      }

      .cls-161 {
        fill: #6f482a;
      }

      .cls-162 {
        fill: #202a45;
      }

      .cls-163 {
        fill: #191d1e;
      }

      .cls-164 {
        fill: #163851;
      }

      .cls-165 {
        fill: #288dcd;
      }

      .cls-166 {
        fill: #42ade5;
      }

      .cls-167 {
        fill: #2b91cb;
      }

      .cls-168 {
        fill: #3fa7e1;
      }

      .cls-169 {
        fill: #83c8f0;
      }

      .cls-170 {
        fill: #b57e49;
      }

      .cls-171 {
        fill: #1a1e1f;
      }

      .cls-172 {
        fill: #43afe6;
      }
    </style>
  </defs>
  <g id="Objeto_generativo" data-name="Objeto generativo">
    <g>
      <path class="cls-136" d="M1393.8,122.53l5.46,1.26c.68,633.59,8.92,1266.55,24.73,1898.86l17.4,317.67-5.96,5.34c12.16,2.72,9.9,11.39,3.44,20.31,19.42-4.91,36.76-2.41,55.23,4.38,29.59.23,58.97,3.6,88.14,10.1,1.83-2.82,4.18-5.28,7.06-7.36l.99-64.13,9.01-2.9c1.09-3,2.93-7.23,5.42-7.16,12.88.41,79.24,16.04,92.67,20.99l4.02,9.29c8.12.8,7.82,3.97-.44,5.81,18.52,7.51,37.68,11.67,57.48,12.49,11.92-1.97,19.98-.79,24.18,3.56l21.98-4.46c85.68,16.82,171.67,31.79,257.98,44.91l.59-56.84,8.24-5.67-8.21-2.76s-3.51-283.41-10.53-850.23l8.11-5.15c-1.65-5.55,2.11-9.72,11.28-12.48-8.75-11.92-12.3-22.49-10.63-31.72-14.75,2.15-14.12-22.09-.73-23.9-1.11-19.52-1.96-38.88-2.54-58.09l-5.46-.66c-5.74-207.13-9.12-414.74-10.14-622.81l8.12-5.14c-.31-65.98.97-131.76,3.85-197.35l-5.02-406.62,8.12-5.09,6.83-9.15c11.72-2.67,70.32-8.28,76.64-2.05,1.98,1.95-.14,6.72-1.98,9.96l7.85,2.64,17.39,672.47,7.62,1315.82,12.61,403.6c-2.14,6.83-9.41,9.16-21.82,7-5.64,3.68-13.35,3.09-23.14-1.77,242.87,49.88,485.47,100.53,727.79,151.96,128.48,20.03,257.68,37.93,387.58,53.69l8.84-4.47c-3.57-36.93-3.17-81.11-1.75-120.75.03-.93,1.58-1.8,3.55-2.66l8.24,3.52,1.77,105.55c10.8,15.08,45.81-18.02,45.18-36.46,17.26-14.3,41.18,2.13,28.16,18.23,2.71,6.73-2.01,12.68-14.16,17.86l1.99,98.66c-6.12.73-6.16,2.54-.12,5.43l-10.88,5.62c-32.64,6.88-65.02,15.28-97.13,25.18l-286.06-54.65-3.27-8.95-6.26,7.05c-8.52-.34-69.27-13.86-72.17-17.87-1.11-1.53-1.43-3.63-1.53-5.89-5.78-.8-10.44-.48-12.59,5.96l-61.79-11.57-4.11-9.09-4.52,7.38c-351.99-75.91-701.94-154.18-1050.56-241.74l-2.85-9.11c-29.61,7.22-63.85-5.91-90.88-23.58-1.45-.95-2.16-3.02-2.67-5.41-8.69,6.89-40.22,4.2-41.69-9.84l-4.75,7.24c-237.71-59.74-475.46-119.49-713.26-179.25l-2.87-9.15c-1.29,2.92-3.44,7.1-5.8,6.81-19.17-2.41-54.37-15.65-66.97-28.41-13.61,8.24-28.86,4.17-37.03-9.47-.72,3.09-2.61,7.68-4.57,7.32-45.06-8.12-104.86-21.6-148.32-34.87-10.26-.2-15.48-4.22-15.66-12.08l-41.87-2.54c-56.98-14.97-113.86-29.91-170.65-44.82l-2.62-9.14-6.59,6.71c-26.72-4.7-50.64-13.88-71.75-27.52-8.87,10.79-17.51,7.57-23.72-4.96l-112.68-28.91c-3.71-11.96-2.27-23.72-2.44-34.7.09-4.26,1.04-5.58,4.07-4.86,36.25,8.56,72.57,17.21,108.97,25.97,186.9,45.02,380.68,91.71,566.2,137.06,30.51,9.64,62.06,16.72,94.63,21.24,73.54,18.68,148.27,36.1,222.17,53,81.23,18.58,168.42,38.04,245.17,54.05-16.56-1.97-28.37-7.52-35.43-16.66-6.67-1.04-10.98-1.98-5.52-4.8-18.29-724.42-26.57-1460.92-31.38-2187.98-.01-2.16,3.71-3.83,6.78-5.12,4.73-7.56,13.75-11.35,27.06-11.37-1.69-28.22,35.52-30.55,43.41-5.55,2.33,7.4.14,15.59-8.54,15.76Z"/>
      <path class="cls-101" d="M3897.27,2392.65c11.01-4.71,23.37-8.16,35.26-5.01-1.62-10.05,1.4-16.22,9.05-18.51-3.45-.11-7.8-1.33-7.75-3.6,4.87-213.08,6.21-449.38,5.71-679.26-.72-329.17-1.6-658.33-6.22-987.47-.41-73.22,2.08-146.4,5.12-219.54.07-11.98,13.83-11.4,16.52.06,3.24-.07,8.18.76,8.21,2.65,9.37,542.22,12.42,1195.24,5.05,1779.3l-6.16,89.74c3.24,6.07,11.67,4.63,17.03,7.14.24,6.65-3.52,7.99-8.64,9.7l1.54,81.2-8.01,8.72c.6,6.26-3.41,15.4-5.71,23.66l-32.64.5c-7.79.12-14.74,9.39-23.39,8.59l-8.17-3.65.18-63.96c-4.49-4-10.86-5.58-19.12-4.72-10.31,3.15-18.17,2.21-23.6-2.81l-8.01-3.93c14.6-654.05,8.82-1313.4-3.01-1965.22l8.09-5.12c-8.68-8.67,5.52-22.62,15.44-16.45,3.2-.09,8.17.75,8.21,2.75,15.1,656.25,13.4,1308.02,6.21,1961.57,10.09-4.97,16.35-3.75,18.8,3.66Z"/>
      <path class="cls-157" d="M4282.04,2178.84c-.98,10.52-15.65,18.02-24.37,11.24,1.39,7.74-1.58,8.25-5.42,1.11l-8.89-2.13c-.7-525.56-1.18-1050.52-1.43-1574.9l15.88,2.52c2.82-6.61,7.68-6.69,14.58-.24-.03-6.76,1.42-10.41,9.1-11.85,7.58,6.56,2.49,14.79,2.53,25.82l3.45,905.55-3.49,597.31-1.93,45.56Z"/>
      <path class="cls-5" d="M3983.28,481.57c0,10.24,2.77,17.47,8.31,21.68,7,609.14,11.83,1227.84,4.29,1831.54-10.1,7.33-21.3,13.94-33.83,16.23,4.94-568.71,1.44-1134.99-5.05-1704.11l-2.05-167.59c2-7.95,8.61-9.17,15.48-7.05,5.55,1.71,10.11,4.02,12.84,9.29Z"/>
      <path class="cls-63" d="M4023.98,506.81l8.21,2.76c6.82,596.24,9.23,1195.3,7.22,1797.2l-7.42,7.89c-9.34,4.97-18.24,12.22-28.94,15.47-3.29.54-5.84-.24-7.35-2.89,7.63-606.45,2.95-1211.64-4.04-1818.94l8.08-5.11c7.95-5.46,20.02-6.38,24.25,3.63Z"/>
      <path class="cls-8" d="M4101,547.57c3.24.3,8.17,1.48,8.21,3.69,4.53,262.53,5.12,529.61,5.56,793.98.5,306.52.59,622.48-4.03,928.42l-28.4,14.87c-8.35-3.75-11.08-14.07-8.2-30.96,1.25-568.41.96-1153.51-1.03-1720.7l8.05-5.12c4.41-2.29,10.7-.77,14.71,2.78s5.09,7.79,5.13,13.02Z"/>
      <path class="cls-57" d="M4065.04,536.84l8.07,2.81c2.86,583.96,2.64,1167.27-.68,1749.93-3.5-5.86-3.34-4.63.47,3.71-5.51,7.14-16.38,8.31-23.33,12l-8.18-2.84c.45-596.09-.44-1196.62-8.58-1790.3l8.11-5.08c9.9.15,17.39,4.28,20.61,16.48l3.5,13.29Z"/>
      <path class="cls-80" d="M144.07,759.97l6.26-2.3c8.57,7.82,9.01,21.04,1.32,39.67,1.87,414.69,9.89,827.44,24.17,1239.83-.02,7.23-9.93,5.39-15.69,2.67-1.22,3.55-2.59,3.48-4.1-.06-4.56-.07-7.97-2.04-10.34-4.29-3.54-3.35-2.89-10.77-3.06-16.32l-13.22-437.12-10.36-445.47-5.83-311.02,2.04-12.1c8.7-11.8,12.7-24.74,12.01-38.83l8.11-9.36,8.68-5.31Z"/>
      <path class="cls-120" d="M4138.34,556.13l8.25,9.12c6.48,562.85,6.7,1125.39.66,1687.63-7.05,6.2-17.55,9.71-25.35,12.71l-8.16-3.82c2.43-559.32-.03-1144.06-4.23-1709.9l8.16-5.11c8.88-.46,18.98-.3,20.66,9.37Z"/>
      <polygon class="cls-14" points="4040.93 507.07 4045.47 879.29 4049.49 1622.92 4049.57 2305.3 4031.98 2314.66 4029.93 1061.49 4023.98 506.81 4040.93 507.07"/>
      <path class="cls-94" d="M4162.68,568.1l-2.74,9.52c12.43,505.02,11.96,1010.3,7.29,1515.42-.47,50.6-4.36,101.05-9.22,151.38-.81,5.9-8.01,6.06-10.74,8.47-1.32.17-5.71-1.09-5.69-5.09l2.24-482.09-2.95-914.84-2.51-294.74c6.91,6.29,16.37,7.73,24.34,11.97Z"/>
      <path class="cls-94" d="M4117.68,546.76l5.18,1484.13-.94,234.71-11.18,8.06c-3.06-1.06-6.7-2.91-6.67-9.53l4.99-918.87-5.76-519.04-2.3-278.65,16.68-.81Z"/>
      <path class="cls-143" d="M3999.72,503.18l6.09,669.93,1.21,564.34-3.98,592.68c-2.06.63-5.32,3.34-7.16,4.67-1.96.29-5.29.75-7.6-2.24l5.87-831.91-5.6-454.21-5.28-564.86c5.72,11.04,2.03,21.8,16.45,21.61Z"/>
      <path class="cls-148" d="M4082.33,2288.54c-2.39,1.25-7.81,2.65-9.43,4.75-1.05.55-6.23,1.06-7.34-1.17l2.35-501.71-.09-682.51-2.77-571.06c6.67.23,11.29-2.57,16.11-5.08l1.17,1756.78Z"/>
      <path class="cls-63" d="M4162.68,568.1c1.32.7,3.03,3.01,3.76,4.23,5.59,4.78,8.38,7.17,8.38,7.17,10.77,554.22,12.94,1102.89,6.52,1645.99l-7.12,10.96c2.95,4.32.57,6.88-7.13,7.67l-9.09.29c6.26-555.36,6.75-1110.37-4.72-1666.99-.11-5.47,2.17-7.86,3.39-8.93s4.6-.76,6.01-.4Z"/>
      <path class="cls-50" d="M357.07,2088.74c2.64-8.13,6.41-7.81,7.99.6,7.64-8.5,25.16-3.19,27.86,8.49,7.82-8.54,10.74-7.27,13.4,3.89,4.21-11.94,32.12-5.75,32.55,6.54,4.03-9.47,9.59-8.07,16.66,4.2,5.1-9.92,19.53-5.2,23.01,4.62.65-13.48,11.22-12.75,13.06.53,4.31-5.75,12.38-5.39,24.21,1.09,12.47-2.24,19.57-1.63,30.86,4.87,13.99.65,21.93,5.46,23.81,14.41,1.6-9.08,5.37-7.71,11.3,4.13,4.31-11.86,31.8-5.15,31.8,7.11,2.02-11.95,12.64-10.92,13.21,1.55,6.61-8.97,31.1-3.75,31.09,8.21,1.88-12.11,13.97-8.21,14.41,3.28,5.38-11.83,35.13-3.06,35.43,9.33,3.25-11.74,10.29-8.1,11.4,3.16,6.54-11.78,42-.69,42.99,12.14.82-11.44,6.49-11.25,10.04-.56,11.41-7.23,40.88.62,45.95,13.41,1.96-10.01,7.99-8.9,18.1,3.33l7.92-5.93c9.96,5.3,19,11.29,27.12,17.97,1-12.8,8.61-12.7,13.08-.88,6.11-10.8,37.1-1.24,40.44,9.71.96-10.87,4.64-10.53,7.97-.22,9.99-6.26,37.46,1.45,40.74,13.21,10.46-3.89,15.69-5.84,15.69-5.84l3.8,8.86c7.94-11.84,33.04-5.11,33.29,9.35,7,2.53,13.4.79,19.2-5.23l6.11,9.07c.4-11.9,47.53,1.2,49.25,3.25,2.22,2.65,3.28,5.84,3.62,9.26.19-10.87,3.9-10.24,10.67-2.5l7.32-5.49c12.68,6.99,26.11,11.63,40.28,13.89l6.19,5.93c.54-11.57,5.24-11.35,9.63-.88,18.07-5.52,44.47,7.88,57.12,20.73.69-12.36,8.24-13.98,12.32-1.84l5.03-7.26c15.73,5.13,31.35,9.91,46.88,14.35l4.9,7.7c5.58-12.34,14.54-9.51,16.25,3.3,3.5-11.45,16.49-6.97,15.77,4.78l12.83,1.11c1.88-10.92,10.96-8.58,12.38,2.11,12.83,1.45,26.55,4.49,40.17,10.35,4.01,1.73,4.7,13.84,1.05,18.41l-144.27-35.67-405.27-93.22-229.94-56.11c-101.99-24.89-200.86-47.36-302.82-73.03l-164.7-40.53-.19-12,4.1.06,11.3,1.74c2.41-9.33,5.4-6.75,8.52,2.37,1.75-12.12,21.1-6.4,20.29,5.28,10.26-9.24,15.84-7.97,16.74,3.81,2.44-11.91,19.56-7.23,19.72,4.4,3.3-11.1,8.05-9.21,9.43,2.03,1.42-7.47,7.88-8.45,19.38-2.93-1.24-14.38,1.56-23.93,8.41-28.67l4.04-2.78c1.64,14.72,3.24,29.37,4.81,43.95,5.58-8.6,13.83-6.48,17.02,2.99,3.27-5.75,6.03-4.3,8.28,4.36,1.66-7.18,8.1-8.82,19.33-4.93l-7.48-618.12c9.69-13.38,16.42-11.93,20.37,3.51l9.25,622.14,7.52,9.75Z"/>
      <path class="cls-79" d="M295.06,2120.36l2.79,4.32c60.59,9.27,58.32,94.3,55.78,142.53l-7.94,6.22c-17.93,1.08-47.37,5.55-62.54-8.29-10.75-9.81-15.08-18.33-37.35-21.14l30.15-5.94-1.74-62.8c-.81-18.17-1.94-36.08-3.39-53.75l.51-6.11,23.72,4.96Z"/>
      <g>
        <path class="cls-23" d="M794.11,2246.78c1.45,4.68,9.04,9.49,22.76,14.44,28.27,34.58,37.48,103.61,41.01,148.91l-7.16,7.11c-27.41,10.08-58.48,8.56-86.8-3.44l-2.57-47.33-4.27-129.16c12.75,3,25.15,5.94,37.03,9.47Z"/>
        <path class="cls-104" d="M866.88,2268.38l2.97,125.84,14.47,5.44c-2.94-.78-6.67-1.33-10.12.09-2.5,1.03-4.56,5.15-5.98,8.7-3.41,8.57-12.23,6.85-17.51,8.79l-15.63-99.06c-3.89-27.93-16.55-51-43.02-64.76-3.04-1.58-2.89-5.66,2.03-6.64l72.77,21.6Z"/>
      </g>
      <path class="cls-164" d="M373.4,2141.18c11.24,4.1,11.74,13.39.02,16.97,1.72,24,2.54,47.42,2.45,70.24l.32,40.83c-9.95-2.52-20.03,3.58-30.5,4.21l-3.49-88.09c-1.22-28.08-21.87-48.3-48.59-58.59-3.61-1.39-3.63-5.68,1.44-6.4l78.33,20.81Z"/>
      <path class="cls-48" d="M4247.37,2253.77l-80.27-9.64c1.27-3.05,3.82-6.46,7.13-7.67,2.29-9.07,4.56-13.54,14.18-9.52.08-9.8,6.52-11.1,14.68-7.77.98-9.21,4.5-11.38,13.08-7.54,1.12-11.01,9.61-14.44,19.87-11.21.8-10.47,6.73-13.16,16.21-9.23l5.42-1.11c9.97,3.63,14.04,13.36,12.21,29.18,3.58,25.77-3.93,37.27-22.52,34.51Z"/>
      <path class="cls-101" d="M4282.04,2178.84l-2.69,65.18c-.55,13.28-22.73,10.86-31.98,9.75,2.88-.47,8.76-.13,10.66-1.92,2.98-2.8,6.72-41.48-.36-61.78,6.82-5.87,15.15-9.75,24.37-11.24Z"/>
      <path class="cls-136" d="M274.22,2175.26c-1.71-1.53-3.43-4.35-3.42-8.33l.04-45.42c1.73-.12,3.96,1.47,3.93,4.31l-.54,49.44Z"/>
      <path class="cls-135" d="M3250.96,113.61c39.29,36.36,45.55,83.42,95.66,100.03l8.22,2.74c13.9,810.2,21.42,1623.79,22.54,2440.78l-7.42,7.95-20.96,8.99c-2.04-9.07-9.23-18.07-20.22-16.99l-8.26,24.42c-10.82,12.42-40.4,29.43-47.91,21.76-1.63-1.66-4.99-5.71-5-9.86l-1.96-110.17-3.53-.74c4.79-820.77.04-1648.4-31.19-2468-8.26-14.91,21.88-19.05,20.03-.91Z"/>
      <path class="cls-134" d="M2154.72,106.43l8.25,3.63c11.89,436.32,17.83,654.47,17.83,654.47l7.97,1324.02,13.03,416.9-8.02,5.22c.18,10.53-28.28,4.26-31.01-3.42,3.88-.92,7.61.25,13.8-1.78l-12.77-408.69-5.11-812.93-2.5-502.88-9.46-347.66-7.61-327.6c3.1-11.46,11.08-9.97,15.6.7Z"/>
      <path class="cls-27" d="M3265.64,2583.27l-1.8,123.41c-1.46,6.35-4.28,6.27-5.21-.45l-8.18-2.86c.47-846.77-5.11-1707.68-32.34-2582.75l8.02-6.06c-.8-7.91,2.39-7.93,4.8-.04,7.15,25.97,2.6,53.52,4.54,81.6l3.15,45.7,20.59,592.17,11.88,654.02-2.82,621.09-2.62,474.16Z"/>
      <path class="cls-143" d="M1331.88,123.69l6.76,767.63,12.92,1017.4,10.44,412.86c-8.69-.98-16.18-.48-25.21-3.22,3.96-5.47,5.94-8.2,5.94-8.2-17.46-736.92-28.44-1472.78-32.94-2207.59l8.12-5.07c9.09,2.34,13.75,11.07,13.96,26.18Z"/>
      <path class="cls-74" d="M1407.99,122l8.18,2.84.66,689.89c.82,510.76,13.84,1019.63,39.07,1526.62l-7.94,5.34c-1.25,11.65-10.59,10.34-12.52-1.02l-19.61-322.72-15.79-833.42-6.23-1066.99c1.75-11.77,10.54-11.64,14.19-.54Z"/>
      <path class="cls-107" d="M2162.78,2507.26l31.01,3.42c5.34-7.85,16.08-8.8,32.22-2.86,16.9-.3,28.72,4.46,35.46,14.27,3.64-10.72,29.9-8.76,32.86,1.76,7.54-8.42,10.08-3.93,12.32,5.86l6.07-7.2s29.11,5.33,87.32,15.99l4.28,9.1c3.57-11.12,12.15-8.03,11.55,3.45l4.25-7.52c19.92,2.42,104.81,16.04,118.09,22.39,5.41,2.59,6.17,3.75,8.71,9.97,2.26-12.09,24.85-7.61,25.08,4.25,6.09,1.06,10.96,1.51,13.28-5.55,1.92,8.95,10.39,9.42,15.94,3.36,29.27,6.18,58.55,12.36,87.86,18.54l4.12,9.23c16.84-1.16,25.26-1.74,25.26-1.74l3.07,9.28c.98-3.07,2.9-7.55,5.2-7.32,16.08,1.65,99.54,16.23,110.13,21.36l4.34,9.17c3.95-11.65,15.85-7.61,16.45,4.09.9-3.08,2.57-7.51,4.98-7.47,15.79.23,82.27,10.97,97.18,15.83l4.6,9.03c4.27-10.63,12.86-9.56,25.8,3.21,1.43-2.98,3.55-7.33,6.14-7.2,14.59.73,42.07,6.83,57.14,10.36,16.36-.05,26.37,4.53,30.02,13.75,1.16-2.49,2.78-1.51,4.84,2.94,5.34-12.04,30.28-7.81,30.43,6.29l12.73-.53c.94-9,4.77-7.69,8.91.45.87-3.09,2.66-7.69,4.9-7.49,13.81,1.19,107.94,16.05,111.51,20.71,1.16,1.51,1.59,3.58,1.81,5.81l5.21.45c-.03,2.22.64,4.43-.17,6.01-1.14,2.22-4.53,4.45-8.62,3.97l-249.66-29.21-139.49-21.96-637.34-134.04c-51-10.73-97.39-20.29-144.62-39.76,29.89-2.49,54.17,8.87,78.84,15.57Z"/>
      <path class="cls-60" d="M1599.3,2306.05c-2.06,3.89-4.44,9.16-4.66,15.75l-2.18,65.57-62.62-7.41-64.97-8.34c-16.87-2.17-38.55,11.43-52.68-5.8-2.17-2.73.93-7.81,6.02-5.35,4.36,1.89,11.13,1.84,13.9.25,5.28-3.02,3.6-10.48,3.32-15.06l12.52,1.02c2.49-10.9,13.12-8.69,22.13-5.28s26.87,17.39,34.52,23.83c5.32-13.46,10.32-17.28,17.82-3.13l6.19-7.05,47.79,10.05-.71-53.56,8.01-6,15.59.52Z"/>
      <path class="cls-99" d="M3848.61,441.13l6.79,417.62,5.97,653.98-6.62,830.67-3.21,72c-12.27,6.17-23.56,14.52-37.23,16.89l-8.16-3.93c4.64-673.14,4.1-1346.11-1.8-2011.69-1.63-6.9,1.86-10.81,10.46-11.74,4.76-1.19,11.29.6,14.88,3.67,4.08,3.49,5.08,9.93,4.54,16.6-.83,10.39,6.28,15.28,14.38,15.93Z"/>
      <path class="cls-166" d="M3938.44,479.26c9.5,621.79,11.78,1243.12,6.46,1866.14l-3.32,23.73c-1.94,11.61-10.5,13.55-19.95,7.04-10.91,6.11-12.36-3.7-12.29-13.93,1.94-634.41.16-1272.32-7.9-1907.87l8.12-5.09c20.08-.9,19.39,15.76,28.88,29.99Z"/>
      <path class="cls-46" d="M3892.05,446.17l8.21,3.71c9.03,642.54,11.07,1286.83,6.14,1932.89l-5.95,5.01c4.67,2.11,3.61,3.73-3.18,4.88-7.1-.5-14.65,6.36-27.07,7.26l5.29-596.98.32-511.41-11.76-866.84c5.77-6.14,15.4-2.23,20.71,2.48,5.97,5.3,7.22,12.13,7.29,19.01Z"/>
      <g>
        <path class="cls-171" d="M1723,2488.38l328.52,80.32,315.85,72.63,413.55,90.52,8.67,5.33c5.66,65.23,11.32,130.48,16.99,195.74l-7.73,5.52-286.34-106.92c-161.02-61.02-323.94-97.28-493.53-127.89l-302.74-54.65c-3.36.62-8.14-.09-8.26-2.48-2.63-51.66-3.49-103.94-4.33-155.58,3.86-3.85,10.31-4.7,19.35-2.55Z"/>
        <path class="cls-171" d="M1587.76,2449.55l8.26,4.62,2.4,142.95c-2.6,11.91-6.72,16.1-15.94,6.99-113.36-46.37-228.12-85.77-349.21-116.35l-348.94-88.1-10.85-1.18c-3.66,5.06-5.63,4.42-9.15.37-4.13-4.75-6.15-110.62-5.51-125.45l8.06-5.01,720.88,181.16Z"/>
        <path class="cls-130" d="M3897.47,2490.09l-416.49,228.99-144.27,76.98c-1.2.73-5.72,2.39-7.93.67l-2.23-110.54,22.45-12.08c-4.45-11.42,14.24-18.61,20.96-8.99,2.08-11.8,9.69-20.31,19.97-10.73-1.78-10.97,39.05-33.4,44.97-33.78,3.3-.21,6.29,2.25,8.88,4.48,2.12-13.4,14.19-20.36,25.19-11.74-1.16-2.92-2.75-7.11-1-8.82,6.19-6.04,38.61-25.08,45.31-16.09,2.35-11.28,7.06-18.28,16.7-8.38,1.85-13.82,30.51-30.12,41.38-20.59,2.44-11.31,9.06-20.74,19.64-11.04,2.13-13.92,29.91-30.54,40.96-21.09,2.42-11.3,6.87-17.67,16.46-7.76,2.43-14.07,30-30.62,41.07-21.18,1.76-11.96,13.18-21.06,22.74-11.03-2.52-11.68,24.67-24.45,33.9-19.09.09-3.66,1.08-3.47,2.86.1,37.27-5.97,88.45,1.65,125.91,10.15,12.91-.68,20.44,3.18,22.58,11.57Z"/>
        <path class="cls-67" d="M3325.82,2801.68l-357.97,192.79c-5.34,2.87-13.02-1.74-17.71-3.05-8.03.65-11.93-6.89-11.71-22.61l-7.08-200.38,8-5.16,291.11,55.8c33.44-10.68,69.46-25.62,95.36-17.39Z"/>
        <path class="cls-68" d="M588.53,2197.68l168.55,39.63,8.33,4.54c1.32,39.85,2.63,79.7,3.95,119.54l-8.01,5.08-385.16-97.24c-12.8-2.22-12.51-37.32-.32-40.83,4.58-2.41,10.61-3.53,18.07-3.35-.09-3.24.33-8.14,2.6-8.62,59.51-12.52,131.62-20.76,191.99-18.73Z"/>
        <g>
          <path class="cls-61" d="M2859.41,2746.55c16.47,15.79,29.39,34.56,33.52,58.65,16.71,100.99,31.12,202.1,43.24,303.32l-7.4,6.9c-41.42,25.98-111.77,38.99-115.11-.76l-14.8-176.21-17.93-206.59,78.49,14.69Z"/>
          <path class="cls-2" d="M2859.41,2746.55l79.95,16.71,7.2,204.73,3.58,23.43,2.21,111.01c-3.18,7.77-17.93,9.44-23.59,12.99l-12.91-106.75-30.34-198.33c-3.86-25.22-16.89-46.18-35.4-61.19,4.05-3.27,7.17-2.17,9.3-2.6Z"/>
        </g>
        <polygon class="cls-132" points="3979.09 2358.16 4118.81 2372.9 3963.98 2457.79 3962.08 2357.94 3979.09 2358.16"/>
        <path class="cls-48" d="M3902.25,2490.53l-4.78-.45-148.48-21.72c-3.12-11.12,12.59-19.7,20.31-10.19-4.44-11.68,17.94-22.96,25.81-13.74,1.72-11.23,8.43-16.54,19.21-12.17,1.65-10.96,28.58-25.81,37.23-16.89,15.13-7.61,34.14-6.41,50.92-.92l-.21,76.06Z"/>
        <g>
          <path class="cls-53" d="M1629.45,2459.39l2.26,5.17c32.96,12.01,48.38,39.95,53.34,73.44,3.89,41.92,9.75,83.41,17.57,124.47-35.55,9.34-73.65,10.63-110.67-2.25-6.01-23.56,4.96-44.92-9.46-56.11,3.58.27,7.96-2.52,7.91-7.98l-2.63-146.57c15.35,3.86,26.75,2.23,41.69,9.84Z"/>
          <path class="cls-123" d="M1723,2488.38c-3.85,1.07-7.59.59-12.04,1.52l5.28,159.09c.2,6.16-8.59,12.16-13.62,13.48-1.07.07-10.81-.18-11.11-2.69l-14.04-116.8c-4.08-33.91-20.11-61.41-51.05-77.08-2.86-1.45-2.42-5.43,3.03-6.51,27.66,14.1,62.59,21.42,93.55,28.99Z"/>
        </g>
        <path class="cls-156" d="M3941.58,2369.13l-5.05,108.46-6.02.86-.84-83.51-32.39-2.28c.79-2.06,2.03-4.28,3.18-4.88,2.05-11.35,10.35-17.37,21.18-11.61,5.43-3.87,13.31-6.23,19.95-7.04Z"/>
      </g>
      <path class="cls-94" d="M4257.81,616.68c-1.4-.2-5.9-1.83-7.38-.71-1.58,1.2-3.11,5.35-3.08,10.17l4.06,702.55-1.36,845.48c-.01,8.29-.31,12.26,2.21,17.01-3.49,5.67-9.78,8.36-16.21,9.23l-8.18-2.82c-.53-526.74-1.5-1055.61-2.91-1586.63l7.65-5.06c6.89,6.08,17.79,5.94,25.21,10.79Z"/>
      <path class="cls-111" d="M3375.32,211.36c17.13,9.97,34.03,22.43,45.13,39.44,8.49,139.65,12.73,209.47,12.73,209.47,16.05,729.59,17.64,1474.39,18.75,2157.07l-8.16,7.73-53.84,29.31-8.19-2.8c-2.97-811.19-10.29-1621.42-25.53-2435.57,6.46-4.3,12.83-5.85,19.11-4.66Z"/>
      <path class="cls-81" d="M3493.98,278.37l8.25,2.55c12.93,758.9,19.27,1525.41,19.01,2299.54l-7.97,7.97-44.31,24.91c-11.13,3.36-14.98.41-14.92-10.97-1.23-786.68-8.93-1570.87-23.11-2352.57l8.04-7.99c15.56-7.39,34.8,6.28,41.65,23.32,2.68,6.68,7.02,10.9,13.36,13.25Z"/>
      <path class="cls-6" d="M3558.28,307.21l8.32,4.47c19.66,743.29,20.92,1492.81,13.01,2236.84l-8.26,10.95-41.38,20.59-8.18-2.86c-.27-762.53-5.72-1528.45-16.37-2297.76l8.12-5.18c9.28-4.03,30.48,1.02,32.58,13.19,1.82,10.52,2.39,18.34,12.15,19.76Z"/>
      <path class="cls-166" d="M3634.35,339.62c3.42-.39,6.83.42,6.85,2.79,7.86,722.63,5.74,1448.19-1.03,2177.13l-8.22,7.79-40.96,21.09-8.16-2.88c7.05-746.06,4.64-1491.39-13.24-2234.12l8.07-5.04c5.77-4.43,11.92-8.6,17.98-3.46l14.41,12.24c10.1,8.59,24.23,10.97,24.3,24.46Z"/>
      <path class="cls-62" d="M3692.86,367.79l7.88,3.68c9.62,700.82,6.45,1410.02-3.26,2119.13l-8,7.79-41.07,21.18c-5.5-231.27-5.86-462.62-1.09-694.06,1.34-462.33.26-924.64-3.27-1386.95l3.93-99.11c2.75-5.51,8.24-7.09,13.54-5.48,18.91,5.75,15.31,23.64,31.32,33.81Z"/>
      <path class="cls-93" d="M3751.53,384.22c3.22-.14,7.74.73,7.77,2.82,8.63,690.91,3.41,1385.72-4.88,2073.64l-8.3,7.59c-9.35,9.41-22.56,13.59-33.9,19.09-11.97,2.03-12.8-5.85-12.74-15.88,9.24-610.96,6.99-1280.19,3.47-1930.95-.32-58.9,2.36-117.76,5.52-176.57,4.58-4.48,12.98-8.62,19.42-2.44l23.65,22.7Z"/>
      <path class="cls-66" d="M3375.32,211.36c-3.77-.34-8.72.88-10.26,3.62-2.49,4.43-.06,7.94.04,14.87l15.54,1049.47,5.44,650.26,3.84,724.8-19.97,10.73-10.16-1626.57-13.18-824.91c12.08,4,16.42-9.43,28.7-2.28Z"/>
      <path class="cls-146" d="M3468.96,2613.34l-25.19,11.74-1.23-589.69c-.87-596.76-8.46-1190.6-22.09-1784.58l18.51-9,13.91,833.59,9.44,1519.32c.07,10.79-1.75,14.65,6.64,18.62Z"/>
      <path class="cls-66" d="M3577.66,306.38l4.66,213.42,11.84,800.25.84,393.25-4.01,835.13-19.64,11.04,4.59-613.69-.85-711.26-13.55-820.81-3.25-106.49c5.41.93,15.14,2.42,19.38-.83Z"/>
      <path class="cls-126" d="M3767.04,379.39c5.18.99,7.92,5.4,8.21,13.24,5.71,690.23,4.95,1376.13-2.28,2057.7l-3.67,7.86-20.31,10.19-2.86-.1,7.3-465.46.97-792.8-2.86-825.8,15.51-4.83Z"/>
      <path class="cls-146" d="M3529.97,2580.05l-16.7,8.38-9.13-1806.88-5.49-338.23-4.67-164.95c6.47,1.86,12.38-.99,19.58-4.12l15.66,1565.06.77,740.74Z"/>
      <path class="cls-117" d="M3647.99,339.45c11.71,726.27,11.16,1452.85.42,2180.12l-16.46,7.76,6.93-1124.8-1.59-541.58-2.94-521.34,13.65-.17Z"/>
      <path class="cls-47" d="M3712.22,2487.37l-22.74,11.03,9.35-981.46-.97-555.97-2.81-350.8-2.19-242.37c4.5-.08,12-.28,15.61-3.82,8.77,529.46,10.4,1058.04,4.71,1589.63l-5.47,510.85c-.11,9.91-.59,16.5,4.51,22.91Z"/>
      <path class="cls-166" d="M3793.1,403.88l8.19,3.74c6.6,669.79,9.17,1351.9,1.57,2029.02l-7.76,7.81-25.81,13.74c-1.74-1.12-5.07-5.1-5-10.12l6.94-531.24-4.19-1537.44c15.99-4.15,13.33,17.94,26.06,24.49Z"/>
      <path class="cls-134" d="M3814.81,404.93c-.77,1.84-2.32,4.83-2.3,8.89l2.1,403.86,3.84,462.33-4.13,1152.27c-4.13,7.29-12.48,8.58-19.21,12.17l5.44-1136.04-6.48-666.03-.96-238.5c7.83,3.09,14.7,2.81,21.71,1.05Z"/>
      <path class="cls-66" d="M3909.56,449.27l4.8,466.52,3.79,563.98-.17,490.57-.46,392.54c0,6.09.87,10.23,4.12,13.28-6.52,4.64-12.96,10.24-21.18,11.61l.97-617.68-2.65-674.15-3.77-357.65-2.96-292.13c5.87,2.68,11.74,3.36,17.52,3.1Z"/>
      <path class="cls-58" d="M4224.55,596.48c3.16,531.77,3.94,1074.58-.15,1607.52l-8.23,7.62c-2.73,4.78-7.73,7.28-13.08,7.54l-5.45-.73c1.87-541.91,1.33-1083.47-1.62-1624.67l8.18-5.01,20.36,7.72Z"/>
      <path class="cls-154" d="M4224.55,596.48c4.07,1.54,5.81,6.12,8.04,9.42l1.85,1069.85,1.6,524.67c-4.55,6.63-12.2,9.89-19.87,11.21l3.38-490.84.09-845.39-2.47-277.75c1.95-1.61,5.37-1.37,7.38-1.16Z"/>
      <path class="cls-110" d="M4190.61,579.4c1.75,9.37,2.63,14.05,2.63,14.05,6.95,540.79,7.79,1082.7,2.52,1625.73,0,0-2.45,2.58-7.35,7.75-3.76,4.65-8.72,7.51-14.18,9.52l2.79-597.18c1.69-297.19,1.08-590.02-5.47-886.35l-5.09-180.6c4.85,8.07,15.22,6.33,24.16,7.07Z"/>
      <path class="cls-30" d="M4204.2,588.75l-.14,616.61-.1,222.05-.86,791.75c-2.81,5.55-8.63,8.26-14.68,7.77l5.91-791.19.05-234.63-9.29-608.02c-.11-7.03,2.7-11.14,5.53-13.69,7.38.61,8.92,7.58,13.59,9.35Z"/>
      <path class="cls-111" d="M1150.23,97.21c.56,10.7,3.13,18.91,7.7,24.63l-.37,336.67c9.07,606.7,14.51,1212.06,16.32,1816.09l-4.99,2.88c-7.37,7.04-34.41-4.54-53.8-14.33l-5.38-1.87-10.07-987.81,6.65-18.83-5.46-.67c-3.71-374.27-6.17-749.21-6.97-1121.97,0-1.46,1.38-2.92,3.16-4.39-4.9-8.76,1.58-15.23,19.43-19.42l16.98-14.55c1,.54,2.45,1.14,3.44,1.05,4.85-3.37,14.29-4.49,13.35,2.52Z"/>
      <path class="cls-111" d="M1079.71,109.57c18.17-5.5,25.6,9.09,9.45,16.56l4.61,3.76c2.32,371.88,4.22,746.05,5.67,1122.52-.68,7.42-2.94,13.95-6.77,19.61,3.39-.35,6.95.46,6.99,2.8,5.75,329.22,9.52,660.37,10.08,987.91,0,.97-2.32,1.93-5.31,2.9l-52.87-12.51c-6.59-.76-10.9-2.96-5.57-6.1-10.13-681.29-13.75-1363.36-10.85-2046.22l7.43-4.82c-3.94-6.8,1.14-13.35,15.24-19.65-2.1-17.56,1.11-32.66,9.62-45.32.35-11.06,1.72-18.33,12.27-21.46Z"/>
      <path class="cls-24" d="M1027.89,159.25c-.38,15.26,2.04,28.44,7.27,39.55-2.72,680.8.59,1364.61,9.93,2051.43l-18.84-.93c-10.18-4.8-22.16-7.62-33.29-9.35l-8.21-2.74c-8.03-666.37-11.49-1332.34-10.39-1997.93,5.23-7.93,12.55-14.6,21.97-20,.74-18,5.27-34.16,13.59-48.49,3.56-5.07,6.29-9.13,12.37-11.79l5.6.25Z"/>
      <path class="cls-44" d="M912.19,285.85l5.46.68c1.16,644.04,4.84,1288.89,11.05,1934.53l-3.93,2.89c-17.18.48-24.12-6.7-40.44-9.71-3.46.6-6.55-.08-6.63-2.58-21.05-625.01-27.62-1253.02-15.46-1878.29l5.48-2.78c-2.29-7.4,2.75-14.89,15.12-22.46-2.59-18.83.54-34.19,9.37-46.1l.14-5.07c25.17-27.31,39.81,14.41,19.85,28.89Z"/>
      <path class="cls-24" d="M973.47,2236.93c-13.91-2.16-28.6-5.42-40.74-13.21l-4-.68c-3.98-225.64-6.44-451.3-7.4-677-.12-416.98-.83-839.37-2.99-1257.97-.01-2.7,2.73-4.21,6.13-4.98-6.64-9.22,6.01-15.07,14.16-18.36l-.43-33.04,7.66-7.12c-.44-5.8-.5-12.75,3.75-17.83,2.8-3.34,8.7-4.57,12.82-6.97,12.52-4.28,14.08,5.47,14.2,16.8-5.08,673.78-1.55,1347.27,10.56,2020.45l-13.72-.09Z"/>
      <path class="cls-49" d="M856.12,306.44c-.57,9.68,1.3,18.15,5.63,25.43-8.11,625.13-9.78,1251.83,15.89,1878.05l-6.4,5.19c-17.54,5.01-22.82-9.79-35.04-12.04l-12-7.11c-18.84-586.29-23.14-1207.31-18.2-1823.24l9.29-12.86c-1.12-6.52,2.57-13.01,11.07-19.47-1.35-15.7,1.45-28.39,8.4-38.08,2.76-1.7,5.35-6.98,8.09-8.76,16.94-10.44,30.44,3.56,13.27,12.9Z"/>
      <path class="cls-88" d="M740.28,367.67c8.02-3.79,12.75,5.75,14.19,28.62-8.36,594.49-4.93,1195.84,12.61,1787.76l-4.96,2.83-42.99-12.14-5.75-4.85c-9.68-577.93-14-1156.14-12.95-1734.61l5.21-2.63c-3.49-7.51,2.53-14.5,18.06-20.99-2.61-15.39.22-27.52,8.5-36.38,2.28-1.99,3.12-7.71,8.08-7.63Z"/>
      <path class="cls-49" d="M236.71,2057.44l-19.72-4.4c-5.47-3.43-10.37-4.87-16.74-3.81l-20.29-5.28c-7.92-.93-11.32-3.49-4.1-6.03-14.3-413-22.32-823.02-24.22-1240.12.19-17.56,9.1-43.03,17.72-57.93,2.55-3.01,8.87-3.29,11.99-4.73,7.16-.13,10.67,4.46,10.55,13.77l5.43-4.36c-4.97-27.95,41.14-36.85,23.32-5.17,13.79,876.8,20.69,1315.2,20.69,1315.2l-4.62,2.86Z"/>
      <path class="cls-133" d="M992.96,2239.96l-19.48-3.02c3.67.82,8.09-.64,8.02-3.4l-.25-9.86-6.75-461.64-5.33-421.42-2.64-678.15,1.96-445.62c.03-7.89-1.56-13.53-6.03-17.07,16-9.32,36.72-13.62,47.49-28.97l-4.35,51.81-25.23,18.73-.11,150.28-.66,328.22,4.3,653.65,3.52,428.65,5.57,437.81Z"/>
      <path class="cls-124" d="M282.78,2069.04c-11.15-8.63,4.09-36.13-8.85-41.17l-8.33-3.12c-8.31-430.29-14.68-861.08-19.08-1292.38l-14.93,9.46,22.57,1311.58-8.02,6.05-9.43-2.03-3.71-181.16-4.14-216.58-3.84-233.01-4.54-302.53-3.37-277.68.93-122.35c-12.31,1.56-14.62,12.56-11.57,23.56l-20.84,16.75-4.28-29.3c12.54-12.81,31.78-21.84,48.01-32.7,12.51-8.37,21.01-19.81,34.15-24.07,4.22-.19,8.58.58,8.23,4.92,1.01,459.66,7.34,919.52,19,1379.58l-7.95,6.17Z"/>
      <path class="cls-38" d="M759.9,396.02l8.15,2.92c-7.15,544.7-5.07,1147.5,7.83,1724.93l-3.73,62.47-10.04.56-2.45-113.65-9.63-405.12-3.63-278.7-.87-775.64,3.76-233.86c.07-4.49-.03-9.81-2.33-11.62-1.34-1.06-5.35-1.02-6.69-.62,1.33-.43,3.34-3.07,4.08-4.84l13.02-2.54c4.63,11.26,5.47,23.17,2.52,35.72Z"/>
      <path class="cls-160" d="M299.8,2072.03c-5.52.64-12.2.74-17.02-2.99l-3.83-102.74c-2.6-63.5-2.13-124.39-2.47-188.06l-1.19-220.66-4.14-33.25-3.17-420.54-4.48-425.42c2.11-.69,5.05-2.53,6.92-3.88,19.4-12.59,22.59,12.82,12.82,25.38,0,458.39,6.84,914.81,20.53,1369.25l-3.97,2.92Z"/>
      <path class="cls-28" d="M179.96,2043.96c-5.5-1.43-14.7,2.45-19.82-4.11,3.59.37,7.06.93,11.81-.61l-8.5-260.87-4.34-171.96-8.86-306.55-2.2-469.58,1.36-62.11c.1-4.42-2.46-7.07-5.34-8.19,9.35-5.72,18.24-11.79,25.28-20.1l-3.45,34.61c-5.82,9.75-12.66,13.17-11.2,26.83,4.7,44.01,4.17,86.19,4.44,131.05l2.4,387.88,4.1,220.96,4.07,139,4.2,135.06,6.04,228.72Z"/>
      <path class="cls-136" d="M393.94,2225.04c-4.96.7-10.38,5.52-18.07,3.35-5.55-23.1-2.16-46.74-2.45-70.24,2.18,1.26,3.89,4.01,3.88,8.15l-.11,56.92,16.75,1.83Z"/>
      <path class="cls-81" d="M1261.34,90.12c6.29-3.1,14.9,1.34,20.17,3.29l5.22,1.23c2.59,731.08,12.8,1471.6,26.04,2210.45l-8,5.19c-13.17,2.03-22.82-2.19-34.56-9.86l-22.25-4.93-5.45-.69c-16.61-1450.19-24.92-2175.28-24.92-2175.28l6.34-5.09c-.05-3.69-.78-10.58,2.36-12.08,7.02-3.34,22.3,4.26,27.19-5.08,1.04-1.98,1.44-4.07,1.52-8.66,1.63.41,4.36,2.5,6.34,1.53Z"/>
      <path class="cls-46" d="M1211.1,113.87c3.49-.58,6.41.12,6.45,2.67,10.37,721.19,20.77,1451.94,24.23,2175.78l-6.13,5.01c-11.61,1.97-19.7-4.24-31-9.96-8.17-4.13-20.83-2.23-26.12-10.77l-4.69-2.49c-2.08-605.89-7.51-1211.37-16.28-1816.41l.39-333.77,6.94-4.74,17.56-8.16c3.03-7.5,2.17-15.54,10.58-15.91,4.85-.21,12.78-1.49,15.94,2.85,3.02,4.16,2.07,11.35,2.14,15.9Z"/>
      <path class="cls-49" d="M818.1,2199.74c-15.31-2.82-32.11-6.65-45.95-13.41-12.88-457.1-20.43-913.15-16.15-1372.28l3.9-418.04c11.62-7.23,25.53-14.15,33.6-23.23,3.3-9.41,8.95-6.62,13.32,2.01-7.3,602.21-1.33,1216.71,17.71,1819.79l-6.42,5.15Z"/>
      <path class="cls-22" d="M696.49,416.14l3.75,24.65c-.78,576.27,3.52,1152.24,12.89,1727.9l-5.42,2.91-35.43-9.33-7.25-4.9c-8.16-562.11-11.18-1124.22-12.4-1690.74l6.26-5.07c5.57-4.61,11.22-6.38,14.7-9.67,9.12-8.63-4-29.52,10.86-35.74,3.15-1.32,9-4.56,12.03-.01Z"/>
      <path class="cls-131" d="M1314.39,90.3l3.53,7.21,4.91,429.9,4.58,490.73,8.29,678.53,15.41,621.11c-6.08,2.77-10.53.59-14.3.59l-15.77-4.78-8.18-4.81c-13.34-737-23.43-1477.59-26.09-2212.84,3.98-9.27,19.57-10.56,27.64-5.63Z"/>
      <path class="cls-24" d="M646.36,465.24l5.45.7c1.54,565.34,5.94,1128.03,13.19,1688.07l-7.12,4.97c-10.35-2.36-21.52-3.47-31.09-8.21l-6.65-3.56c-11.94-547.07-13.27-1107.47-13.8-1658.35l3.89-2.8c13.06-3.2,22.63-11.79,18.93-28.49-1.16-5.26.68-12.53,4.32-14.87,2.18-1.4,6.7-1.9,11.88-4.79,4.67,8.44.97,18.2,1.01,27.33Z"/>
      <path class="cls-114" d="M273.92,2027.88c.59,12.56,2.42,25.5-1,39.31l-26.8-7.71-2.65-102.31-3.51-200.32-3.89-216.34-4.84-375.45-7.93-428.02c8.93-5.14,17.3-7.57,20.24-14.71,1.08-4.1-.23-9.41.29-12.25.47-2.59,10.48-5.57,10.51-3.09l2.97,229.18,4.47,314.6,3.14,275.59,2.3,219.28,3.59,216.52,3.1,65.72Z"/>
      <path class="cls-134" d="M1314.39,90.3l-22.46.71,1.6,223.56.99,61.02,3.84,563.52,6.65,361.11,7.44,584.22,8.57,429.14c-4.93-1.49-11.19-4.08-16.25-3.3l-14.53-960.99-6.76-621.34-.24-404.82-1.73-229.72c10.13-4.17,26.52-16.1,32.88-3.11Z"/>
      <path class="cls-121" d="M1164.89,119.19l-1.54,175.47,4.15,504.83,4.04,249.67,4.39,322.83,3.11,353.4,1.86,538.07-2.37,13.14-9.63.88-5.47-716.03-12.99-1102.91.97-323.42-1.17-37.9c7.03,5.91.99,22.77,9.61,23.75,1.73.2,3.71-.18,5.05-1.77Z"/>
      <path class="cls-1" d="M1223.93,114.42l9.1,648.44,8.42,568.19,4.65,573.77,1.86,390.68c-4.16-.92-8.94,1.27-12.32,1.84l-2.7-311.04-8.04-832.83-2.49-230.05-8.46-611.4-2.87-198.13,12.83.54Z"/>
      <path class="cls-38" d="M1042.58,196.01l-1.94,210-.17,648.63,4.56,539.27,3.89,424.98,2.63,234.26c-8.52-2.01-17.07.04-25.31-3.84,3.83-.23,7.54,1.44,14.25-1.64l-10.55-886.11-3.22-572.28.23-347.74.93-282.28c9.4,17.45-4.54,39.06,14.69,36.75Z"/>
      <path class="cls-38" d="M815.29,359.85c-3.48,36.1-3.12,70.11-3.57,109.13-4.18,364.07-3.32,725.49,3.85,1089.93l6.67,362.31,5.93,264.37c.15,6.76,6.26,13.41,8.03,17.47l-18.1-3.33-13.94-536.04-6.77-919.14,2.41-364.2c.03-4.9-3.5-8.17-6.31-7.57-2.27-11.83.14-18.61,4.79-15.38,6.11,4.24,10.71,6.89,17.01,2.45Z"/>
      <path class="cls-78" d="M867.71,330.57l-3.89,429.84-2.14,502.94,8.37,537.53,14.28,413.35c-4.9-.91-8.2-.52-13.08.88l-18.29-665.26-2.91-262.82,2.82-722.39,3.25-258.2c2.02,15.35,5.08,25.77,11.59,24.13Z"/>
      <path class="cls-42" d="M932.74,2223.72l-7.97.22-5.29-195.24-3.91-736.44-.43-372.17.67-156.04-3.62-478.21c4.23-.13,9.05-.51,12.28-2.75l.75,415.55c.09,37.94-2.36,71.43,2.61,108.96l-2.37,479.5.3,258.91,6.97,677.71Z"/>
      <path class="cls-95" d="M672.29,2162.27l-14.41-3.28-2.05-270.26-2.44-260.8-4-388.67-3.03-774.02c4.23-.82,9.73-1.36,12.54-3.69l3.01,886.96,2.62,332.01,7.76,481.74Z"/>
      <path class="cls-140" d="M705.64,432.67l-1.19,99.32.99,551.2,4.22,376.23,3.7,302.81,5.77,412.53-11.4-3.16-4.8-405.51-4.28-380.27-2.7-367.7-1-180.39-2.22-261.18c-.47-55.27-.1-107.59,3.78-160.41,3.23,4.85,3.51,12.75,9.15,16.53Z"/>
      <path class="cls-78" d="M1115.1,2263.15c-3.18,1.06-7.38,3.28-10.67,2.5l-6.68-381.35-5.07-612.27c2.92-14.34,7.47-20.14,13.63-17.4l5.15,315.38,2.3,526.72,1.35,166.42Z"/>
      <path class="cls-108" d="M216.98,2053.04l-16.74-3.81c5.77-2.24,7.09-5.79,6.89-13.43l-10.24-396.33-9.5-298.48-9.62-518.81c-.37-20.14-3.84-41.62,8.46-56.02l17.3,735.98,3.82,144.3,3.15,136.26,6.47,270.34Z"/>
      <path class="cls-75" d="M1542.71,110.43l8.33,10.97c2.41,174.91,4.82,349.78,7.23,524.6l-8.11,5.14c-4.44-.05-9.71,1.81-16.69,4.58,4.49,5.88,10.72,8.75,17.26,11.01l2.95,77.67,5.77,445.45,10.2,706.74c2.01,138.95,4.27,273.24,14.04,408.93l2.03,69.88-63.31-13.31-10.03-2.11c-11.24-323.52-16.85-485.28-16.85-485.28-9.13-592.64-15.53-1173.28-19.18-1741.94-.78-11.97,2.53-13,13.8-10.55,6.17,2.47,15.66,2.32,20.89.42,7.08-2.58,3.08-15.35,5.29-19.21,5.06-8.83,23.04-.67,26.36,7.01Z"/>
      <path class="cls-75" d="M3226.13,114.56l2.41,93.28c17.25,424.91,20.86,848.81,24.52,1275.8l5.37,625.67.2,596.92-118.22-19.03c-2.7-1.86-4.05-2.79-4.05-2.79-13.11-994.38-19.67-1491.58-19.67-1491.58,7.21-51.03,7.38-103.33.51-156.9-5.93-313.15-14.53-629.83-23.51-941.23-.09-3.16,1.48-4.66,5.53-5.23,19.55-3.41,39.48.45,60.2,6.28l66.72,18.8Z"/>
      <path class="cls-85" d="M1469.47,113.82l8.26,7.65c2.1,636.69,8.75,1267.53,23.17,1936.21,2.17,100.54,5.5,205.19,12.6,301.26l-8.9,6.29c-11.41,3.63-24.1-6.21-32.44-13.35-6.81-5.82-17.94-4.59-24.21-5.2l-25.72-564.61-13.58-967.3-.66-692.78c8.93-.21,20.06-1.75,29.35-6.39,6.24-3.11,3.9-13.53,5.34-18.02,2.46-7.64,16.37-6.68,20.94-1.67,3.47,3.81,5.77,11.32,5.84,17.91Z"/>
      <path class="cls-172" d="M2575.78,1262.01c5.34,53.83,10.27,107.77,11.18,161.88,5.43,324.01,6.55,648.24,6.89,972.29.06,54.12-2.88,108.12-7.95,161.99-.04,5.59-.15,13.36-3.24,19.43-1.52,2.99-8.92,2.59-10.67,2.52l-25.08-4.25c-3.09-10.34-2.48-20.14-2.53-33.82l-2.38-702.2-8.17-572.5,41.94-5.36Z"/>
      <path class="cls-62" d="M2281.32,1318.56c3.52-.59,6.43.16,6.47,2.79,3.96,269.02,7.43,545.93,10.4,815.05l-6.91,5.14c.9,62.93,1.76,125.88,2.6,188.86l5.45.69c.85,62.55,1.23,125.19,1.13,187.93l-6.14,4.83c-9.59,1.67-22.55-.02-32.86-1.76-1.72-2.99-3.43-6.47-3.5-12.42l-6.16-549.81-8.9-565.46-.34-112.56c13.92-6.22,26.94-6.72,38.36-4.69-5.5,16.9-3.59,29.32.39,41.39Z"/>
      <path class="cls-155" d="M3099.22,89.47l28.78,1086.53-6.74,17.55,4.06,229.13,4.17,286.22,3.7,302.44,4.07,323.01,3.14,352.85c-6.78-1.09-12.83,4.96-21.64.08,5.97-17.38,7.75-36.45,5.33-57.19l8.17-5.58-3.59-286.03-.6-192.24-2.36-45.11c-4.54-4.77-7.24-11.39-8.09-19.88-3.57-202.24-5.02-404.41-4.33-606.52l3.72-2.78-1.08-68.38-8.21-2.68c-.71-53.93-1.41-107.87-2.12-161.83l8.11-4.97-8.34-4.2c.54-47.79,1.81-95.38,3.83-142.77,5.18-9.78,6.86-21.96,5.02-36.51-12.91-2.34-16.08-16.5-9.5-42.48-2.95-17.56-.37-30.78,7.72-39.64l-4.09-5.91c-6.82-36.49-6.55-74.07.81-112.72-3.17-.37-7.75-1.18-8.22-3.57-1.43-7.37-2.27-68.59-.9-75.79l8.1-6c-5.18-10.95-6.28-24.77-3.32-41.47-8.04-13.39-8.26-25.43-.67-36.14l.58-25.25c-12.87-2.54-12.3-40.5.03-44.14l-6.41-266.05-10.9-270.35c2.71,3.54,6.3,9.35,11.75,8.4Z"/>
      <path class="cls-74" d="M1490.17,122.22c-4.8,1.81-7.19,5.53-7.14,12.75l3.46,462.14,3.73,502.96c3.02,407.08,9.05,810.73,27.51,1216.74.84,18.53-4.01,32.45,4.69,45.3-9.15-1.92-10.95.94-17.82,3.13,4.13-16.01-.24-31.33-1.11-52.58-17.39-425-24.43-847.61-26.26-1273.63l-1.53-356.56-6.23-568.64,20.7,8.39Z"/>
      <path class="cls-29" d="M1097.02,127.61c3.62,4.99,3.79,11.43,3.84,19.51l1.49,271.45-.38,316.68,4.33,519.39c-5.71,5.3-4.79,14.9-13.63,17.4l-3.17-936.09-.34-209.8,7.86,1.47Z"/>
      <path class="cls-118" d="M3104.78,617.48l-.03,44.14c1.68,14.98-.43,28.54-6.33,40.69,6.33,16.56,8.04,34.31,5.14,53.24l4.6,8.95,1.02,85.37c1.29,25.91-5.87,50.59-13.49,75.03,5.7,14.43,11.29,28.96,16.76,43.59.32,21.42,2.17,42.23-2.42,64.64-.93,4.53,4.08,13.26,4.2,17.49,1.98,17.96-.77,34.1-8.27,48.42,2.95,18.68,4.05,34.71-6.96,51.33,11.27,19.52,3.4,32.04-8.53,47.53,11.09,7.53,12.08,17.39,11.07,29.9,6.16-.76,10.22,1.34,12.17,6.31l2.22,169.47c-9.29.98-12.06,12.19-11.98,22.75-8.31-.17-12.33-2.26-22.66-5.7-.87,8.71,1.9,13.67-2.1,23.58-17.56-15.81-9-53.48-9.4-71.03-.5-22.1-6.71-42.73,1.53-65.76l-3.13-35.13c3.41-12.38-1.9-22.78-.78-33.7,9.17-89.45-11-140.56-1.64-180.81l.31-76.23c.06-16.15-1.1-25.77-2.06-41.9l-3.84-64.71-.6-109.08c-.04-6.72,9.02-18.29,6.33-23.84-9.28-19.13-7.99-34.11,5.03-50.54-5.34-4.2-12.45-14.46-6.6-21.31,4.78-.08,19.1,7.03,22.38.77,4.79-9.13-6.81-19.37-6.22-25.07l3.75-36.12c7.13,4.29,13.32,6.87,20.52,7.75Z"/>
      <g>
        <path class="cls-118" d="M3087.46,81.08c.9,3.94,2.92,6.9,6.06,8.86,10.26,349.75,15.39,524.63,15.39,524.63l-4.14,2.91c-2.43,4.97-7.06,7.48-13.88,7.52l-2.43,20.43c12.03,18.39,10.59,40.33-16.42,34.87,6.75,8.02,5.99,17.79-2.29,29.29-2.55,11.15-1.01,22.65,4.64,34.52l-6.69,22.51c4.17,107.07,5.43,214.12,3.78,321.13,5.91,50.71,7.24,101.61,3.98,152.73,1.89,59.08,2.29,118.09,1.18,177.03,4.79-3.61,11.43-4.01,19.93-1.19,2.3-11.88,9.58-24.68,19.37-12.75,2.4.37,4.32.86,4.55,1.77,2.54,10.2,1.97,51.36,1,63.92-.08,1-2.01,1.87-4.47,2.69-6.69,17.81-8.51,37.92-5.47,60.34-4.02,23.96-5.89,28.2-27.98,26.63-1.21,61.03-1.66,121.91-1.34,182.66,1.3-21.01,16.15-32.83,30.18-12.57,9.92,14.32-2.88,45.25-23.96,44.29-6.04,20.89-6.85,42.97-2.42,66.24,8.27,11.89,8.99,22.97,2.15,33.21-1.93,70.28-1.68,140.58.75,210.9,15.08-20.81,27.35-14.98,36.79,17.47l4.36,1.63c2.5,172.57,4.48,345.54,5.95,518.91l-3.76,2.85c-9.47,5.68-18.36,12.31-26.67,19.9l-7.68,15.63c.03,10.94-3.16,17.92-9.58,20.95-2.45.45-4.78-.04-4.84-2.94l-8.26-368.26-5.52-339.49-3.81-343.12-4.52-293.64-3.74-335.99-3.43-192.79-17.57-681.92c-.38-14.62-.58-26.19-6.86-38.72,10.53-13.07,52.71-9.52,57.67-3.05Z"/>
        <path class="cls-118" d="M3132.28,2624.51l.06,60.38c-5.58,1.69-9.26,1.45-13.56,2.39-7.62-4.22-21.31-4.17-30.43-6.29-4.96-32.53,23.46-65.14,43.93-56.48Z"/>
        <path class="cls-118" d="M3117.02,1471.94l2.5,77.62,3.88,302.02,1.41,184.15.91,65.39c-14.76.76-8.87-25.77-23.38-20.82-3.75,1.28-8.44,8.29-5.65,13.41,1.48,2.71,3.35,5.63,11.91,8.7-13.42,17.88-4.54,34.17-2.95,53.14.81,9.66-7.91,19.78,4.78,29.96,4.16,3.34,2.79,18.19-2.07,19.63-4.23,1.26-13.66,3.44-18.28,2.48-4.12-.85-7.25-10.59-7.58-16.52l-3.15-56.68,1.54-29.37c.54-10.34-.15-17.95-.34-28.67l-2-113.98.03-73.93c0-11.85,1.06-23.02,8.88-30.8-11.04-11.16-10.62-20.77-10.05-34.91.49-12.06-8.61-24.74.35-38.96,3.3-5.23,2.79-14.46,1.78-20.84,9.57,3.72,17.11.66,22.73-4.74,6.51-6.26,5.95-11.62,2.48-22.36-.5-2.34,1.5-8.76-3.91-9.07-14.73-.84-5.43,14.28-13.27,21.03-3.17,2.73-6.78,2.9-10.01,1.05-2.68-1.54-3.78-6.51-3.75-11.47l.43-59.47-.24-50.95c-.08-17.79,1.32-33.47,1.36-53.41l.13-82.8c19.48,3.16,11.14,40.54,15.33,66.52,30.09-26.45-1.32-83.49,26.19-85.32Z"/>
        <path class="cls-118" d="M3114.88,2340.21c-19.29,25.8-12.94,19.49-14.79,45.24-.14,1.93-4.44,3.18-5.96,1.96-1.36-1.09-6.36-4.94-5.95-7.52l9.8-61.24c5.47-3.28,22.11,14.59,16.9,21.56Z"/>
        <path class="cls-118" d="M3097.17,2291.06c-7.29-11.81-6.17-19.64-10.22-31.2,1.61-3.01,4.52-5.79,7.65-7.66,3.72,13.9,8.16,23.55,2.57,38.86Z"/>
      </g>
      <path class="cls-75" d="M2293.88,2330.39c-2.22-1.49-3.31-3.98-3.3-8.25l.69-180.6c1.43,1.61,3.36,4.57,3.34,8.63l-.73,180.23Z"/>
      <path class="cls-118" d="M3113.72,1234.09c-6.09.86-12.45,5.92-20.37,3.15l.06-24.95-9.24-9.79c-2.99-3.17-1.36-9.64,1.96-14.13,13.47-10.03,12.89-25.22,2.1-39.62,12.04-12.32,13.9-25.73,10.11-40.91-2.33-11.9,1.31-21.77,13.79-25.48l2.1-31.76,2.85,101.91c.32,11.33-4.49,20.89-5.41,27.64l2.05,53.94Z"/>
      <path class="cls-118" d="M3112.45,968.48c-10.19-.77-10.18-15.79-14.4-20.53-29.17-32.74,11.72-48.48,11.12-98.1l3.28,118.62Z"/>
      <path class="cls-118" d="M3108.16,764.49c-12.34,3.24-9.92-14.64-4.62-40.48l-16.01-22.64,15.38-14.6,1.84-25.15,3.41,102.87Z"/>
      <g>
        <path class="cls-31" d="M1558.11,670.48c16.79-.51,58.64,26.84,70.72,39.56,5.53,3.77,9.12,9.61,10.77,17.53l10.18,411.7c5.74,3.59-6,35.87-8.67,39.43s-5.22,6.89-10.42,6.45c8.51,8.53,6.8,13.72-4.76,16.64l7.48,3.65s-1.5,16.49-4.51,49.48c-2.64,17.65-3.27,35.85-1.9,54.61l-8.17,5.72,8.46,2.78c1.14,23.93,2.5,47.36,4.06,70.28,2.05-3.18,3.63-1.33,4.74,5.55,11.15,5.2,15.93,12.55,14.36,22.04l4.91,3.44c-5.87,10.89-7.1,24.39-3.7,40.49l9.74,813.52c-16.58,7.32-37.96-2.33-48.78,17.18l118.09-18.98c2.23.47,4.37,1.07,6.25,2.14,12.5,7.13-15.6,34.6-22.9,40.95-2.15,8.7-6.37,13.54-12.66,14.54l-102.11-23.13c-5.68,10.8-11.67,11.62-15.59-.52-12.95-55.16-18.64-112.11-17.06-170.82-8.26-491.59-16.21-978.89-23.85-1461.92l7.95-6.06c4.71-7.18,8.29-5.02,7.37,3.75Z"/>
        <path class="cls-115" d="M1910.13,2309.46c11.83,7.43,7.72,30.04-.08,40.74,10.88.27,9.66,4.68,3.43,11.48,16.02,7.72,34.7,8.93,53.76,9.39,52.38,1.26,56.66-40.34,104.17-42.1l-.75,72.38-288.03-50.32c42.38-25.17,75.07-41.28,127.49-41.57Z"/>
        <path class="cls-161" d="M1645.43,658.86c-8.12,2.48-7.55,7.25-7.32,15.65l1.49,53.05-81.49-57.09c6.15-7.33,15.62-4.89,24.78-5.75l62.54-5.87Z"/>
        <g>
          <path class="cls-109" d="M2049.74,580.61c2.36,43.84,2.67,88.98.94,135.42l7.48,628.61,2.54,58.09c-.05,6.24-3.16,18.14.73,23.9-5.91,12.48-5.68,31.54-.65,44.21l10.63,858.14c-4.18,7.23-12.43,12.07-24.75,14.53-41.55,36.78-78.67,41.97-132.37,24.54l-.82-6.35c3.47-6.12,5.21-9.18,5.21-9.18,25.14.94,49.79-.62,73.95-4.67l6.55-6.04c1.55-21.44-1.43-43.42-8.92-65.94.71-18.39-4.03-34.46-14.22-48.21-2.38,2.37-5.59,4.72-8.44,3.65-28.55-10.72-34.72-12.61-43.87,21.26l-4.58,53.62-9.01,3.29-9.53,8.42c-35.2.79-67.78,14.06-98.22,30.57l-19.75,2.58c-27.25-4.76-59.26,5.19-81.66-16.04,1.52-12.04,9.13-11.42,12.99-.67,7.67,3.03,13.81,2.33,18.41-2.09,32.08,11.67,60.34,3.88,79.59-24.99,60.18-5.01,52.11-33.47,22.8-71.61-6.61-1.37-12.45-3.54-17.55-6.49-3.57.6-7.71.4-9.42-2.49-15.57-26.35-44.04,11.25-50.8,29.59-8.52,16.13-17.28,21.24-26.28,15.32.27,1.93.31,3.76-.41,5.19-2.69,5.36-110.36,22.6-116.8,19.37-23.99-12,20.67-33,37.42-28.28-.5-266.82-2.96-534.44-7.38-802.85l8.11-5.16-1.31-19.38c.18-23.41.26-27.17,21.94-14.64,20.02-.89,26.21,5.15,18.58,18.12,3.12.52,7.67,1.42,8.06,3.74,1.87,11.05,1.55,43.65-9.67,47.55,11.87,1.11,7.79,37.56,5.53,48.74-5.89,8.03-10.97,16.24-5.73,26.24,11.51-3.75,14.13,45.37,13.02,47.82-1.45,3.21-4.45,5.1-7.57,6.46,3.16.33,7.75,1,8.28,3.33,2.43,10.67,4.61,45.79-6.7,49.35,12.46-.56,14.96,30.67,3.04,34.99l1.08,40.23c5.2,3.28,7.81,4.92,7.81,4.92l147.33-32.81c44.42-10.18,105.46-6.1,133.58,32.75l11.38-.29c-2.84-14.22-.12-23.22,8.16-27.02-3.19-.21-7.92-.82-8.38-3.1-1.19-5.89-5.36-58.21-3.74-60.79,1.91-3.03,4.27-5.24,7.8-6.29l-8.48-2.82c-1.54-16.11-3.09-32.24-4.63-48.37,6.09-3.23,8.22-9.56,6.4-18.97-3.17.04-7.88-.13-8.58-2.33-1.84-5.79-8.61-53.2-7.78-55.9.96-3.15,4.34-5.06,7.33-6.68-3.54.36-6.18-.98-8.78-3.18-2.05-1.74-11.06-49.5.36-50.13-9.2-6.35-14.11-17.88-14.72-34.58-6.01-11.58-6.9-21.51-2.67-29.78-4.79-10.06-4.01-14.89,2.37-14.51,35.98,15.87,59.48-.82,70.5-50.05l9.64-1.79c-4.95-6.57-5.04-10.53-.26-11.9-10.8-13.44-16.42-30.27-16.87-50.5,5.63-2.49,7.51-7.71,5.63-15.66l-8.98-2.69c-5.5-23.5-10.57-47.09-15.2-70.79l6.18-7.24c-12.88,2.55-22.04-34.89-11.22-41.15-10.42.38-27.47-12.93-24.14-24.16-28.09-10.54-55.95-22.16-83.57-34.87l-2.01-9.86-8.81,4.69c-11.3-6.19-19.89-15.75-25.79-28.69-12.88-.67-15.03-10.91-6.44-30.71,10.71-12.77,19.29-26.61,25.71-41.52-8.82-15.11-14.15-32.24-15.99-51.38-10.37.73-16.51-2.14-18.44-8.61l-9.45,6.62c-56.05-12.84-80.77-9.01-91.8,49.23-6.34,4.82-13.62,2.91-18.72-2.63,11.93,26.33,25.08,52.34,39.46,78.03l-4.73,8.67c-14.43,10-26.23,24.18-35.42,42.54l-10.24-2.48-3.23,11.09-31.31,18.37c-9.68,10.15-19.58,14.89-29.71,14.24l-8.24-2.64c-3.33-134.59-6.65-269.21-9.98-403.86l8.05-5.2c-13.51-15.81-10.6-45.35-7.21-64.8l13.04-3.91,1.24-8.57c132.17-25.58,264.37-51.17,396.6-76.76l6.46,7.08Z"/>
          <g>
            <path class="cls-70" d="M2061.43,1426.63c8.18,12.13,20.85,21.74,19.15,40.11l-19.8,4.09c-2.29.47-6.42.11-11.19-.72l-.15-39.77c-.01-3.79,9.11-4.71,11.98-3.71Z"/>
            <path class="cls-70" d="M2060.7,1402.73c-6.69-18.55-2.32-38.83-2.54-58.09.6.39,3.01,2.27,2.99,4.75l-.45,53.34Z"/>
            <path class="cls-36" d="M2047.04,555.96l2.7,24.65-404.3,78.25c-5.25.71-8.51,3.12-8.65,9.02-26.76,4.68-52.98,5.54-78.67,2.6-2.26-1.6-4.64-2.81-7.37-3.75-31.36,15.01-26.58-37.53-.57-15.59,4.86-10.83,14.75-10.08,20.66-.61,1.06-11.81,12.3-17.98,20-7.59,14.75-9.81,24.59-11.4,29.53-4.77l16.83,1.43c-1.84-12.9,31.73-23.9,39.1-13.51,13.25-11.19,21.66-12.28,25.22-3.29l13.41.71c3.31-11.31,41.74-28.16,47.45-13.84,13.18-11.22,21.82-12.28,25.9-3.16l16.6.6,47.08-14.29,34.6-2.35c22.7-1.54,42.77-11.58,64.55-18.39,4.81-10.77,17.83-11.22,20.81,1.22l5.92-8.09c3.67-1.69,59.38-17.96,62.3-16.58,3.21,1.52,5.36,4.19,6.9,7.34Z"/>
            <g>
              <path class="cls-153" d="M1907.31,2041.87c-5.99-13.8,3.55-20.59,7.92-29.34,15.28-30.59,33.52-60.2,30.23-98.28l-42.83,85.84-8.96-62.06-16.36-114.7c-1.97-13.83,5.54-29.84,18.15-34.76l53.24-20.78c14.96,98.48,15.46,195-3.71,290.64-6.43,32.05-40.53,89.39-48.98,83.56-6.51-4.49,16.15-45.14,16-88.53,2.55-10.36,17.76-19.85,14.14-34.49-9.36,4.99-14.36,13.18-18.83,22.91Z"/>
              <path class="cls-162" d="M1764.11,2136.82c-8.29,13.01-11.88,7.1-10.79-17.73,2.11-17.28,12.19-36.05,10.09-54.85-10.97-98.4-30.6-192.39-50.56-290.59l45.2,17.58c15.23,5.92,22.11,17.48,24.77,32.97,4.79,27.93,11.61,56.13,7.95,84.96-5.16,40.7-2.9,77.47,9.31,118.85l-25.25-4.14c1.39,20.88,36.05,11.76,27.25,30.8l-37.97,82.14Z"/>
              <path class="cls-103" d="M1713.96,2334.32c3.54-.02,9.23.97,13.46-.6,3.69-1.37,4.89-9.85,9.38-13.41,16.27-12.9,39.12-20.84,50.18-39.61,10.5-17.82,17.94-36.25,30.24-51.57,4.41-5.49,15.43-4.7,20.92-1.15,12.65,8.19,34.63,50.12,24.69,67.64-8.35,14.72-32.14,14.26-46.24,17.89-26.61,38.81-59.84,37.86-102.63,20.81Z"/>
              <path class="cls-72" d="M2008.48,1729.92l-.15,28.25c-.05,10-12.74,6.01-17.35,6.96-10.19,2.08-9.3-8.62-13.67-12.11-36.77-29.34-80.4-29.13-124.2-19.72l-151.28,32.51c-5.78-19.28-4.77-35.8-2.69-53.66,1.04,11.98,3.26,22.3,2.45,41.37,46.81-16.66,93.57-26.57,143.38-36.56,32.22-6.46,64.86-11.68,96.18,2.04,22,9.64,44.76,15.64,67.33,10.93Z"/>
              <path class="cls-64" d="M1913.47,2361.68c-4.16-2-3.21-7.73-3.43-11.48,6.86-3.05,10.58-10.06,15.89-16.62,20.96-25.92,61.04,1.08,57.89-27.92l-7.79-78.02c5.07,4.55,18.83,6.27,19.2,17.3,1.7,51.28,22,80.1,11.07,100.74-12.61,23.81-62.86,9.34-92.82,16.01Z"/>
              <path class="cls-86" d="M1753.32,2119.09l2.24,12.59c.42,4.03,2.74,7.56,8.54,5.14l-10.02,37.16c17.76,1.48,30.89-4.18,42.14-14.99l52.84-50.76c-.5,32.48-8.53,63.61-28.59,87.63-8.06,9.65-25.58,6.92-36.72,7.76-19.28,1.45-32.33-9.14-34.72-27.38-2.55-19.43,1.94-37.83,4.3-57.15Z"/>
              <path class="cls-76" d="M1842.52,854.11c9.7,9.34,6.65,18.28-6.95,14.13-27.94-16.51-59.89-.03-72.3,27.09-5.61,12.25-20.59,22.77-33.13,15.65-.61-26.23,18.51-51.23,39.26-60.83,26.17-12.11,49.52-11.33,73.13,3.96Z"/>
              <path class="cls-70" d="M1980.25,1116.56c-34.79-8.01-64.32,5.54-91.38-.49-11.63,1.64-12.67-7.94-2.16-12.72-16.45-4.49-9.44-35.98,7.97-31.53l74.82,33.61c5.98,2.69,7.74,8.44,10.75,11.13Z"/>
              <path class="cls-149" d="M1835.57,868.25c4.9-4.07,5.73-8.83,6.95-14.13,20.75,13.44,35.96,34.85,34.76,62.76-15.32-15.87-23.63-37.94-41.71-48.62Z"/>
            </g>
          </g>
        </g>
        <g>
          <path class="cls-119" d="M1817.22,2229.13l2.03,10.95c-16.27,39.04-40.16,67.39-77.29,86.47-3.84,10.89-13.17,13.47-27.99,7.76l-12.99.67c.74-1.25.48-4.46.44-5.81-.36-11.42,5.19-21.04,15.67-28.72,7.87-8.38,18.31-17.75,13.64-28.9,13.24-7.14,19.84-21.08,29.08-34.65,5.92-16.85,17.35-25.61,36.36-26.2,6.06-.19,14.26.48,16.85,5.55,1.59,3.1,2.27,7.88,4.21,12.88Z"/>
          <path class="cls-139" d="M1988.41,1524.67l9.03,64.91-1.62,23.97c-40.37-.2-80.89-7.3-119.24-19.66-57.01,8.39-113.47,20.78-169.36,37.17-5.5,1.97-9.39-1.68-12.71-6.59l-5.45-54.28c-3.38-7.31-2.4-21.51,3.09-27.52,8.9-9.75,131.54-38.58,146.93-40.26,41.64-4.54,74.26,1.37,114.33,11.9,15.21-.53,26.87,2.92,35,10.36Z"/>
          <path class="cls-43" d="M1948.48,1381.17c13.42-3.35,21.64,16.83,14.12,25.82,10.91,19.94,13.89,42.17,17.39,64.37l-6.07,7.18-97.23-18.42c-61.76,7.28-121.1,18.52-179.35,41.07l-8.08-5.98,1.6-51.28c-6.9-1.99-6.78-3.34.36-4.06-2.37-1.66-4.6-3.44-6.31-5.61-1.41-1.78,26.93-33.37,28.75-34.73l9.12-.98,5.72-10.07c50.27-15.23,98.03-28.06,152.15-25.48,12.75.61,48.63,2.65,57.14,7.45,4.6,2.59,8.27,5.94,10.67,10.73Z"/>
          <path class="cls-21" d="M2004.17,1659.74l4.31,70.18c-7.64,11.62-21.82,13.68-42.55,6.17l-44.12-15.04c-41.81-3.6-84.07,1.31-126.78,14.72-31.41,9.33-62.85,16.04-94.29,20.12l-1.6-43.75-3.04-34.99c4.46-7.29,12.89-11.31,25.26-12.04,54.87-19.57,111.86-32.06,170.99-37.46,32.13,13.47,66.17,21.48,100.92,23.37l10.9,8.72Z"/>
          <path class="cls-72" d="M1980,1471.37l8.42,53.31c-37.04,2.95-71.64-13.57-108.61-16.3-31.28-2.3-65.74,7.62-96.97,12.4l-92.58,31.16c-1.67,6.92-1.81,12.16-1.2,18.25-1.12,0-3.79-1.84-3.64-4.69l3.83-70.29,88.66-28.71,99.01-14.48,103.06,19.34Z"/>
          <path class="cls-72" d="M1997.45,1589.58l6.72,70.16c-38.05-1.34-76.34-7.85-113.06-24.24l-110.53,18.16c-29.34,4.82-54.6,24.56-84.48,23.49l-1.58-52.68c27.86-2.03,53.09-16.17,81.65-21.09l101.31-17.44c37.14,12.28,75.36,17.18,115.79,20.8,3.96-3.13,3.61-11.62,4.17-17.15Z"/>
          <path class="cls-52" d="M1759.68,1055.51c-17.23,12.96-23.75,29.57-17.9,49.1,3.17.93,7.72,2.29,8.09,4.92,1.84,13.29-.41,37.29-3.3,49.53,1.64,11.66,2.83,29.27.67,40.95-.6,3.23-3.87,4.95-7.34,5.83l-4.89,9.48c-20.44,4.66-38.03,15.23-53.54,29.02-11.94-4.12-23.22-12.28-33.83-24.49-11.7-4.34-18.94-10.35-21.71-18.05.92-6.37,2.81-10.73,4.76-16.64,12.76-11.55,25.04-24.4,36.84-38.54l43.86-9c-5.67-18.02-4.79-32.04,2.63-42.04,13.57-7.47,22.38-35.72,45.66-40.06Z"/>
          <path class="cls-142" d="M1975.53,1302.25l51.08,19.86c10.13,3.89,16.3,10.07,18.5,18.54l-17.09,40.34c-4.91,11.58-12.56,20.87-20.47,23.82-28.9,10.78-47.58-17.03-44.95,2.19l-14.12-25.82-10.28-7.29-11.06-43.96c-9.38-4.5-12.66-10.2-9.83-17.09l3.81-8.45c16.07,1.18,29.38-.93,39.93-6.36l9.79,1.84c3.69-6.18,6.49-4.66,4.7,2.38Z"/>
          <path class="cls-125" d="M1976.03,2227.64l9.31,12.21c3.96,11.66,8.22,74.53,2.58,81.55-2.11,2.62-4.89,4.39-7.99,5.61-27.13-2.29-46.9,6.32-59.32,25.84l-10.57-2.65c-.81-13.44-3.01-27.64.08-40.74,6.52-27.66-2.25-65.1,18.83-86.95,13.7-14.21,35.54-5.22,47.08,5.13Z"/>
          <path class="cls-106" d="M1744.04,1288.38c21.6,2.23-3.02,45.44-17.82,39.98-2.42,6.77-3.46,11.93,5.13,12.92,4.43,10.81,7.64,54.72-8.56,57.26-8.77,26.01-31.4,28.75-31.92,45.38,3.34-18.43-22.86,1.4-37.09-22.59l-2.12,38.49c-5.58-13.52-3.91-29.7-1.21-43.93,8.65-29.18,17.49-58.37,26.53-87.56-10.94-.43-10.77-4.28-.68-8.28.73-7.13,5.91-10.14,15.52-9.05-9.16-17.26-7.06-23.25,14.41-21.07-9.74-27.21,34.79-19.24,37.81-1.56Z"/>
          <path class="cls-151" d="M1980.25,1116.56c8.98,8.03,20.82,12.02,24.14,24.16l-2.13,9.6c-18.67,9.28-31.43,25.38-38.27,48.33-22.32-1.62-44.75-3.45-67.28-5.47l-8.57-8.82c-13.26-12.69-15.1-57.48.73-68.29l6.69-7.12c31.67-5.35,59.9-2.81,84.69,7.61Z"/>
          <path class="cls-55" d="M2015.61,1181.87l-2.09,11.13-49.61,31.49c-5.53,6.89-11.32,8.87-17.36,5.94l-6.69,7.45-43.45,3.22-7.01-7.37c-8.79-12.65-16.82-39.84-1.27-49.38,24.45,1.96,47.78,1.97,72.77,8.61,3.99-27.8,20.6-44.19,43.47-52.25l11.22,41.15Z"/>
          <path class="cls-168" d="M2015.61,1181.87l18,80.73c2.51,14.12.64,20.4-5.6,18.85-18.11-10.12-36.39-14.37-54.86-12.75l-7.09-6.43c-10.76-.62-24.95-22.06-19.5-31.84,7.54-12.09,18.54-15.41,30.43-23.31l38.63-25.25Z"/>
          <path class="cls-20" d="M2033.61,1262.6l11.24,66.15c-8.47-.72-17.66-4.46-27.57-11.21l-41.75-15.29c-1.33.05-4.04-.76-4.7-2.38-14.39,2.78-15.96-33.63-4.78-37.6,22.75-7.95,44.63,2.15,65.62,13.18,1.8-5.11,1.36-9.35,1.94-12.85Z"/>
          <path class="cls-70" d="M1630.69,1185.15c4.71-14.35,8.41-34.32,19.09-45.89,17.72-19.19,41.71-31.28,64.25-43.7l6.7,48.73-44.74,7.74c-17.31,2.99-20.25,39.87-45.3,33.12Z"/>
          <path class="cls-98" d="M1894.68,1071.82c-8.81,7.52-9.86,20.38-7.97,31.53-5.63,10.17-32.61,11.62-36.8-.18l.24-3.46c15.46-10.96,18.1-35.04,9.93-51.9,12.33,7.63,21.27,18.02,34.6,24.01Z"/>
          <path class="cls-56" d="M2044.85,1328.75c.53,3.11,1.09,8.97.26,11.9-26.27-26.99-62.38-21.2-69.58-38.4,25.78-.92,48.42,12.22,69.32,26.5Z"/>
          <path class="cls-32" d="M1739.91,1205.84c13.31,4.5,13.35,39.87,3.04,48.38-5.72,5.56-15.1,5.77-28.14.63l-13.64.72c-9.18,10.54-18.04,16-26.59,16.4-12.74,4.55-39.74-4.82-45.68-17.04-6.28-4.99-9.2-10.09-7.88-19.19l4.91-33.94c31.53,4.87,49.99,37.48,53.35,36.94-4.45.71,17.02-24.2,60.63-32.9Z"/>
          <path class="cls-52" d="M1628.91,1254.92c15.18,2.07,31.1,7.48,45.68,17.04,4.59,4.99,5.02,12.08,1.3,21.26,2.04,12.49-.46,20.25-7.51,23.26-3.23,7.99-11.84,10.51-25.84,7.54-12.8,2.22-20.7-.7-23.7-8.77l-.05-52.72c0-5.87,5.97-8.69,10.12-7.62Z"/>
          <path class="cls-10" d="M1650.45,1415.91c-7.77-7.6-17.5-11.53-16.33-15.45l1.97-6.59c-6.75-26.93,14.09-57.8,40.89-65.52,19.76,12.05-10.93,39.51-15.58,78.53-.4,3.36-2.24,7.67-4.37,9.04-1.6,1.03-4.03,1.17-6.58-.02Z"/>
          <path class="cls-20" d="M1668.38,1316.48c6.72-8.21,8.9-6.82,7.93,3.58l.68,8.28c-29.19,8.34-38.83,34.2-45.63,59.98-2.83-.3-6.14-2.54-6.55-7.03l-5.97-66.03,49.54,1.23Z"/>
          <path class="cls-65" d="M1676.99,1328.34c-23.72,14.56-41.96,37.87-40.89,65.52l-4.74-5.55c.7-28.15,15.43-58.88,45.63-59.98Z"/>
          <path class="cls-72" d="M1917.3,1312.84c4.09,4.96,15.82,7.69,17.74,15.31l13.43,53.03c-53.26-12.6-108.04-15.08-161.87-.36l-63.82,17.73c10.44-30.99-6-56.91,3.43-70.18l4.96,2.92c29.67-12.51,63.04-20.01,93.86-13.89,4.7-8.92,16.22-12.25,34.55-9.99,15.96-2.34,27.21-.35,41.89,6-.47-11.93,12.86-11.92,15.83-.56Z"/>
          <g>
            <path class="cls-39" d="M1844.93,915.59c19.16,5.19,22.06,60.62-3.94,55.29,22.82,9.49,13.89,47.47,7.63,67.71-8.15,26.36-25.09,47.81-54.74,44.68,13.73,8.2,30.73,10.92,51,8.15l5.28,8.29c3.54.99,3.37,2.14-.24,3.46-.33,3.2-1.32,8.01-3.6,8.22-26.81,2.5-71.51,3.05-98.43,1.3l-6.1-8.1c-24.81-7.64,1.02-42.28,17.9-49.1l-21.47-41.74c-8.82-17.14-24.17-34.33-21.66-55.22,3.41-4.66,15.98,2.34,19.17,11.77l13.55-40.88c2.83-8.53,20.47-20.2,30.53-20.64,22.72-1,45.44,3.28,65.13,6.8Z"/>
            <path class="cls-45" d="M1860.08,1047.82c19.33,13.84,16.29,53.01-9.93,51.9l-42.25-.9c-15.03-.29-28.09-15.22-31.52-28.85,24.89,11.02,45.17,4.94,56.26-15.28,11.97-21.82,16.4-46.06,13.76-71.54-10.98-7.38-22.77-9.62-36.41-12.2l.58-12,40.57,4.94c.07-18.34-1.09-33.5-6.21-48.29,6.36,1.14,19.34-3.79,24.81,3.73,10.81,14.85-1.43,40.96,19.84,51.11-12.53,44.9-43.5,48.5-29.51,77.38Z"/>
            <path class="cls-25" d="M1796.41,972.2l-41.22-.06c-3.32-4.46-.22-12.53,3.92-13.18l16.5-2.58c9.49-1.48,21.49-.65,20.8,15.81Z"/>
            <path class="cls-45" d="M1789.27,1009.39c10.23-3.54,17.01.68,27.4-4.63-2.03-7.14-6.65-11.41-3.42-21.85l16.23,27.99c-11.01,7.86-26.88,14.8-40.21-1.52Z"/>
            <path class="cls-45" d="M1774.89,1031.4l51.52-2.32c1.54-.07,2.01-7.72,2.26-9.13.27-1.58,2.52-1.81,4.19-.18,2.47,2.4,5.45,7.14,3.66,12.99l-55.17,1.62c-3.35.1-5.13-.45-6.45-2.98Z"/>
          </g>
          <path class="cls-83" d="M1946.56,1230.43c8.7,9.32,16.22,19.41,19.5,31.84,3.18,12.08.06,25.95,4.78,37.6-3.4,2.33-7.63,9.88-13.55,10.28l-39.98,2.69-15.83.56c-17.06-.9-25.29-6.45-26.84-24.05-13.08-9.92-10-19.72.64-29.89.51-14.92,5.22-23.49,14.13-25.73,17.42-2.03,39.4-6.12,57.14-3.31Z"/>
          <path class="cls-127" d="M1742.95,1254.22c1.09,2.52,3.86,6.35,3.41,9.4,13.29-1.18,15.24,30.14-2.33,24.77l-30.24-9.15c-3.52-1.08-4.54,3.64-2.27,5.03,8.45,5.2,19.2,6.76,17.88,9.47l-3.87,7.9c-2.59,5.28-19.9-6.67-32.01-4.43l-.08,5.72c9.05,5.06,21.91.88,31.48,15.69l-48.63,1.44c-2.39.07-5.84-2.66-7.93-3.58-1.58-14.06-2.42-32.38,6.21-44.52,4.58-6.44,12.96-17.87,20.21-22.84,16.85-6.88,34.1.57,48.15,5.1Z"/>
          <path class="cls-102" d="M1765.94,1291.23c12.39-2.43,16.35,13.91,4.71,18.08,11.39,3.69,18.16,1.62,20.31-6.19,8.05-4.02,14.81-3.38,20.28,1.94,7.44.83,13.07,4.65,13.8,12.34-32.87,1.72-64.59,10.93-98.09,23.66-2.09-5.29-.92-9.12-.73-12.68l15.26-21.49c4.79-6.74,3.35-13.61,2.57-18.49,6.92-6.65,8.19-15.82,2.33-24.77,3.11-1.97,3.08-5.94,4.23-8.32,13.86-18.15,26,25.16,15.34,35.93Z"/>
          <g>
            <path class="cls-69" d="M1803.89,1229.56c-.69,2.76.59,6.91,2.52,8.95,2.14,2.27,11.96,2.03,13.34,4.74l-10.21,15.22c-6.88,10.25,20.97,18.65,1.69,46.58-12.66,4.93-28.63,10.82-40.59,4.25l4.57-8.45c15.31,2.31-3.23-7.84-9.28-9.63-8.23-16.98-2.49-34.83-15.34-35.93,4.16-8.6,6.91-17.39,9.04-26.72,5.89-2.25,11.21.74,15.95,8.99l8.71,3.06c6.61-8.03,13.14-11.72,19.59-11.06Z"/>
            <g>
              <path class="cls-11" d="M1849.92,1103.18c12.05-.24,24.14-2.23,36.8.18l2.16,12.72c-3.69,22.32-.8,45.74-.73,68.29l1.27,49.38c-15.42.97-28.93-2.91-40.54-11.64,1.87-15-1.42-20.49-9.88-16.47-3.71,15.23-16.37,34.13-30.93,19.86-11.43-2.37-11.84-33.8-4.02-40.34-10.85-13.79-39.85-10.55-46.17,4.29,6.02,7.13,9.51,32.82,1.78,39.14,7.05,16.87,4.03,25.77-9.04,26.72,6.54,5.8,4.47,11.38-4.23,8.32-10.37-.49-10.9-2.09-3.41-9.4l-3.04-48.38,1.87-101.23,108.13-1.43Z"/>
              <path class="cls-122" d="M1804.04,1185.15c-4.61,5.07-11.79,6.59-21.53,4.57-10.83,4.74-19.04,4.65-24.64-.28-1.76-4.57-5.33-8.68-2.55-18.12,10.13,1.4,21.54,5.49,29.25-2.25-13.2-1.11-25.28,3.92-32.28-10.04,38.24-7.17,74.32-5.36,112.75-5.91,2.04-.03,2.52,8.99.85,10.07-7.46,4.81-39.12,5.03-59.92-1.89l-19.19,10.03,12.79,4.04c4.76,1.5,3.14,6.96,4.48,9.78Z"/>
              <path class="cls-169" d="M1823,1128.93c9.06-.95,8.6,16.38,2.19,16.63l-72.02,2.9c2.32-12.83,3.89-22.66,11.26-27.13,5.39-3.26,11.72,8.07,7.03,14.99,6.84.61,8.98-3.1,12.54-6.91,12.97,1.79,22.9,1.21,39-.49Z"/>
              <path class="cls-137" d="M1860.55,1146.24l-22.52.31c.13-8.05,4.19-19.06,10.7-21.7,4.68-1.9,14.02,3.47,14.61,7.18.59,3.72,1.85,14.14-2.79,14.21Z"/>
            </g>
            <path class="cls-13" d="M1770.65,1309.31c-.77-6.75-2.27-13.05-4.71-18.08,5.17-8.85,11.97-3.33,16.81-.68,5.76,3.15,10.19,11.89,4.69,16.87-4.1,3.71-13.76.54-16.79,1.89Z"/>
            <g>
              <path class="cls-100" d="M1889.41,1233.74l-6.71,29.98-9.24,10.25c-2.68,2.97,6.24,8.2,9.17,11.04-.38,11.58,6.9,24.98,18.84,28.4l-76.44,3.99c-3.5-.27-9.94-1.26-12.41-3.89-1.64-1.74-2.14-5.72-1.39-8.45-3.38-5.03-3.87-12.06-1.47-21.1-9.85-13.58-11.07-25.27-3.64-35.06-7.33-3.7-8.07-10.15-2.23-19.33-5.65-6.05-3.33-8.21,4.17-4.07,31.12-4.65,13.25-28.25,34.74-28.9,10.37-.31,15.4,5.16,13,17.93-3.01,15.97,25.52.26,33.61,19.22Z"/>
              <path class="cls-138" d="M1852.23,1218.6c-.8,9.12-5.47,18.33-17.57,21.7-2.24-7.65-3.1-16.73-.97-24.74,1.17-4.4,6.75-6.23,9.2-6.59,3.5-.51,9.92,3.02,9.34,9.63Z"/>
            </g>
            <g>
              <path class="cls-89" d="M1804.04,1185.15c5.8,12.24,3.85,27.07,4.02,40.34-1.38.56-3.5,2.75-4.17,4.07-3.34,6.64-10.19,18.53-19.09,19.11-13.02.86-21.12-10.74-25.16-20.09-5.36-12.44-8.3-26.84-1.78-39.14,14.96-7.69,30.12-11.46,46.17-4.29Z"/>
              <path class="cls-112" d="M1798.14,1208.96c7.25,11.38,1.38,21.25-8.15,26.34-6.87,3.67-13.95,1.74-21.26-4.67-7.61-6.67-8.29-18.45.77-28.63,5.58-6.27,22.79-2.22,28.64,6.96Z"/>
            </g>
          </g>
        </g>
      </g>
      <g>
        <path class="cls-75" d="M2549.03,73.74c8.95,4.36,20.19,5.24,33.72,2.63,18.44,2.6,35.48,1.66,51.12-2.82l36.81-.3c10.89,0,10.96,3.49,1.01,7.86,5.96,8.13,15.31,9.88,28.05,5.24.94-9.89,61.65-9.51,64.5-7.63,1.71,1.13,3.11,2.72,4.42,4.44,3.06-9.41,40.25-6.44,46.79-2.21,3.2,8.78,6.59,10.23,10.15,4.36l9.2-6.29c37.08-.3,74.04-1.2,110.87-2.7l2.83,5.84c5.32,18.81,13.5,15.01,25.06,3.19,5.73-17.33,44.74-10.86,56.24-1.23,10.81.65,15.7,9.93,14.68,27.83l14.37,554.39c-.77,33.17-1.57,66.39-2.42,99.65,4.73,220.95,8.21,442.41,10.44,664.38l4.46,16.24c-2.11,100.11-1.5,199.95.21,300.42.02,1.47,1.75,2.91,3.95,4.34-4.09,35.86-6.41,72.04,1.19,107.59-2.81,91.81-3.06,183.97-.75,276.48,7.95,166.81,12.9,334.24,14.86,502.29-2.8,13.74-5.22,27.18-7.27,40.31l-93.3-16.91-15.11-5.23c-5.27-328.37-9.51-659.53-12.72-993.49l10.15,990.36-8.12,5.15-106.75-17.39-8.18-4.97c.75-183.92-.67-368.26-4.26-553l4.14,548.77-8.14,5.1-119.67-23.21c-3.72-94.26-5.59-141.4-5.59-141.4l-.65,134.37c-7.35,1.55-14.71,1.38-22.09-.51l-121.21-25.58c2.58-9.97,7.21-17.29,13.9-21.96l8.05-1.39c.83-430.63-2.59-859.3-10.29-1286.01l-7.89-8.76-1.51,8.44-32.15,4.6c6.7,431.69,10.61,863.36,11.74,1295.02l-6.94,5.83-131.05-24.85c-3.65-7.11-7.5-8.26-11.55-3.45l-97.67-17.88-3.9-2.84c-4.36-402.32-9.36-806.47-15-1212.47l-6.44,4.15c-8.32.85-12.24-4.49-11.75-16,1.57-20.48.87-21.09-18.79-15.17l16.19,1227.45-5.5,7.26-67.68-11.41-13.18-421.99-4.34-739.53-3.63-584.44-11.57-354.15-6.35-304.14,41.62-3.35c15.19-1.22,29.19-7.91,45.16-4.85,5.78,1.11,7.74,8.42,7.37,12.65,4.82,6.7,9.03,7.93,12.64,3.67l12.81-3.78c10.38,1.77,14.93,11.22,13.65,28.33l7.56,314.43s-.8,4.17-2.41,12.51c15.99,9.61,29.45,8.97,40.38-1.9l-8.32-353.11,7.04-5.13c8.53.67,15.59-5.08,25.47-6.34l29.64-3.77c15.05-6.33,28.74-11.99,44.61-5.51l2.09,20.4c5.54,3.54,10.56,3.15,15.05-1.18,1.26-6.22,6.39-10.09,14.21-10.29l43.79-1.16,3.49-26.43,38.48,2.1Z"/>
        <g>
          <path class="cls-26" d="M2990.2,2661.15l-25.8-3.21-14.29-1393.66c-.08-8.03,4.16-9.95,8.49-9.35,2.92.4,7.2,1.03,7.3,9.34l16.04,1375.67c.14,12.19-1.07,16.91,8.25,21.21Z"/>
          <path class="cls-117" d="M2857.65,2640.55l-16.45-4.09-5.42-721.51-13.39-658.51c4.23-3.62,9.21-2.05,11.69.37,1.83,1.78,5.02,4.61,5.14,11.33l17.81,1024.67.62,347.74Z"/>
          <path class="cls-40" d="M2721.53,2613.25l-28.33-7.54c3.95-.77,8.66,2.07,15.8-1.94.79-447.84-3.52-892.35-15.32-1339.64-.18-6.68,9.06-6.17,11.09-4.2,1.83,1.78,4.9,3.88,5.1,10.78,12.57,447.92,16.65,894.86,11.66,1342.54Z"/>
          <path class="cls-84" d="M2415.87,2551.04l-11.55-3.45-6.8-560.96-12.66-711.11c2.09-4.24,8.22-3.44,10.18-.41,1.25,1.93,4.91,4.66,5.01,9.76l14.31,726.24,5.78,526.82c.06,5.92-2.66,9.86-4.27,13.1Z"/>
          <path class="cls-66" d="M2306.65,2529.71c-4.86-.89-9.24-3.25-12.32-5.86l-.45-193.46c-.83-62.94-1.7-125.89-2.6-188.86l-9.96-822.98.62-35.09c.07-3.85.98-7,2.37-8.15s6.41-1.07,7.71.22,1.59,3.84,1.67,8.89l11.15,763.4,1.82,481.87Z"/>
          <path class="cls-4" d="M2585.9,2558.18c2.97-432.03-.15-864.08-10.12-1296.16,3.66-.47,9.58-3.1,15.28.08l3.21,92.15,7.79,1212.03c.05,7.09-3.02,9.18-4.7,11.46-2.33,3.17-9.57,1.32-9.24-1.18,1.14-8.67.57-13.94-2.22-18.37Z"/>
          <path class="cls-165" d="M2523.04,1878.74l5.78,683.08c-19.98,1.95-32.58-2.59-46.47-4.09l.16-5.76,32.44,1.97-20.42-1293.55c5.35-5.44,14.79-1.59,14.96,3.96l6.74,219.73,6.81,394.66Z"/>
          <g>
            <path class="cls-14" d="M2556.25,73.44l77.62.1c-8.1,19.14-35.38-2.54-70.59,9.42l12.97,338.47c-7.36,15.95-42.15,19.69-53.1,1.94l37.44-10.69-11.56-338.94,7.22-.29Z"/>
            <path class="cls-128" d="M2261.51,114.56l12.73,367.77c-15.48,12.65-38.68,16.04-50.27-2.89l36.44-8.01-11.53-360.54c3.9,1.54,8.93,4.86,12.64,3.67Z"/>
            <path class="cls-17" d="M2332.21,105.91l9.59,362.96c.1,4.11-25.6,15.98-34.88,12.01-7.2-3.08-10.9-7.4-13.8-14.84,11.44-2.13,23.05-2.14,33.16-8.31l-8.46-354.54c5.23,1.64,9.81,2.35,14.4,2.71Z"/>
            <path class="cls-41" d="M2449.07,109.52l7.88,336.26c-5.86,17.23-43.55,16.68-51.66,1.14l36.63-10.12-7.91-326.1,15.05-1.18Z"/>
            <path class="cls-91" d="M2699.75,86.34c-2.46,1.17-11.38,3.39-13.02,7.71l3.8,309.66c-17.79,9.53-38.59,11.2-55.65-3.92l41.68-10.58-4.87-308.11c8.09,5.39,18.51,5.76,28.05,5.24Z"/>
            <path class="cls-35" d="M2825.6,85.31l6.61,285.26c-14.66,13.78-42.37,16.73-56.83,3.21,13.18-9.29,27.56-7.84,42.85-10.56l-4.9-279.6c-16.35-.96-31.54-4.32-44.67-.45-1.54-5,.39-8.45,2.81-9.1,3.43-.92,9.12-1.34,13.18.17,17.01-3.22,31.75-.17,40.94,11.09Z"/>
            <path class="cls-26" d="M2973.55,85.36c.87,4.26-9.68,12.4-9.57,17.53l4.88,241.16c-9.32,13.61-41.37,17.45-53.8,1.98,8.98-9.11,24.13-7.03,38.83-11.26l-5.4-252.61c3.35.22,5.74,8.52,5.76,11.18l19.3-7.98Z"/>
          </g>
          <g>
            <path class="cls-90" d="M2935.69,413.27c2.87.42,5.11.84,5.12,1.31,1.69,90.08,1.1,182.49.01,272.62-2,165.42-4.1,335.78-10.12,501.28l-8.27,4.81-313.27,15.27-308.23,18.74-8.19-2.78c-1.3-199.18-2.59-398.39-3.89-597.64l8.14-5.04.09-81.78c-4.91-8.03-3.77-12.82,3.44-14.37l628.74-119.53,6.44,7.1Z"/>
            <path class="cls-159" d="M2275.39,520.03c5.99,6.74-.1,3.62.31,3.6,11.66-.6,31.01,3.22,21.4,13.79l-.11,84.43,3.94,605.45c-12.01.73-22.8,3.14-34.81-1.11l-7.88-701.55c-.05-4.22,14.96-5.81,17.15-4.62Z"/>
            <path class="cls-170" d="M2945.94,414.01l9.21,776.87-32.71,2.42,10.22-506.21,3.04-273.81c2.29-11.21,8-10.37,10.25.74Z"/>
            <path class="cls-129" d="M2945.94,414.01l-10.25-.74-636.43,121-2.27,87.59-2.02-85.12c-7.13-6.06-16.59-7.78-24.7-10.02.71-3.27,2.51-5.1,5.12-6.68l161.54-30.69,507-96.59c4.02,7.51,1.48,13.68,2.02,21.26Z"/>
          </g>
        </g>
      </g>
      <g>
        <path class="cls-113" d="M602.51,473.53l3.82,14.65c-.15,553.47,4.08,1106.23,12.68,1658.28l-5.44,2.76-31.8-7.11c-5.48-5.83-9.24-7.21-11.3-4.13-13.86-5.07-29.67-4.39-40.64-14.18-13.42,8.34-27.95-1.48-38.23-6.19-4.27-5.56-8.62-5.73-13.06-.53-6.75,1.36-16.74-1.85-23.01-4.62-6.47-6.67-12.03-8.07-16.66-4.2l-32.55-6.54c-4.01-2.9-8.39-3.99-13.4-3.89-8.96-2.36-20.18-3.16-27.86-8.49-3.75-2.89-6.41-3.09-7.99-.6-3.78.68-14.9-.46-14.95-4.73l-4.1-319.98-3.99-183.45-1.96-127.26c-.05-1.14-2.18-2.84-4.03-2.34l2.17,231.6,4.25,256.42,1.21,142.69-27.59-5.3-4.27-6.02c-13.73-456.71-20.59-914.01-20.58-1371.89,1.13-7.09,6.13-12.6,14.99-16.51-.65-11.55,2.23-22.83,8.65-33.86,11.98-8.67,24.42-15.11,36.26-23.64,8.26,2.39,11.73,12.37,10.41,29.93-.03-17.86,3.84-33.12,11.61-45.81,3.16-2.28,9.49-5,12.19-7.66,9.42,4.06,13.51,13.71,12.27,28.94l7.44-5.84c-1.37-18.26,2.68-32.72,12.14-43.38,3.8-2.06,8.69-5.64,12.19-8.41,8.52.6,12.4,9.98,11.65,28.14,4.09-3.34,7.6-4.72,10.54-4.13-3.3-17.13-.7-30.48,7.79-40.04,1.75-2.7,4.15-6.39,7.08-8.23,7.99-3.95,15.39-6.49,16.65,3.44-2.12,22.09,1.04,27.67,9.48,16.74-3.28-17.03-.81-30.8,7.39-41.3l12.69-8.09c11.59-2.7,16.65,6.26,15.18,26.88,11.1-7.61,14.46-21.04,10.06-40.29l6.73-7.29c3.31-1.36,8.46-5.51,11.28-7.66,12.57-8.99,18.76-1.05,18.57,23.8l9.28-6.14c-2.92-18.01.47-33.29,10.15-45.85.95.21,2.44.51,3.32.21,14.98-12.6,30.23,2.54,13.27,11.09Z"/>
        <g>
          <path class="cls-167" d="M308.08,2076.39c-2.71-.52-5.78-2.96-8.28-4.36l-4.92-117.96-4.39-175.8-3.95-196.24-3.67-200.29-.76-245.64-2.07-453.18c-.02-4.11-1.71-7.56-3.14-8.56-1.35-.95-4.98-.3-6.48.12l36.46-26.38c1.27,12.46,1.9,24.41.13,37.81l-20.64,13.9,1.74,163.21,4.42,441.12,4.8,403.26,3.76,144.56,7,224.44Z"/>
          <g>
            <path class="cls-51" d="M377.35,600.93c9.26-9.09,20.61-14.19,31.84-20.28l-4.39,48.53c-31.54,15.41-5,43.18-21.38,60.78-4.64-32.17.86-60.53-6.07-89.03Z"/>
            <path class="cls-152" d="M547.91,490.42c12.36-9.46,25.01-19.57,38-28.19l-3.2,49.37c-6.31,7.88-18.77,11.91-24.54,20.09l-1.28-33.21c-.12-3.06-1.23-6.34-2.53-7.29-1.23-.91-4.73-.64-6.45-.76Z"/>
            <path class="cls-3" d="M536.62,498.08c1.28,13.91,5.03,30.38-.8,44.53-4.65,7.7-16.95,13.56-24.23,16.65-.25-17.96,1.9-30.79-6.95-40.47,10.11-6.44,21.38-16.36,31.98-20.71Z"/>
            <path class="cls-92" d="M458.44,547.98l33.51-21.11.87,45.68-25.25,17.17-.61-37.94c-.08-4.87-5.92-5.26-8.53-3.8Z"/>
            <path class="cls-12" d="M451.36,556.21c.68,14.02.59,28.17-1.24,43.8l-23.82,13.64-4.92-41.42c8.6-6.79,19.49-13.71,29.98-16.02Z"/>
            <path class="cls-87" d="M343.13,624.46l22.02-15.88-1.67,50.79c-10.83,2.53-13.94,8.81-17.99,16.84l-2.37-51.75Z"/>
          </g>
          <path class="cls-140" d="M610.22,486.06l.9,336.25,7.01,775.45,1.27,172.5,4.76,268.95,2.62,111.57c-4.71-2.33-8.47-.49-13.21-1.55l-.68-158.52-3.96-253.56-6.05-384.12-2.37-448.82.28-107.36,1.72-323.31c1.82,4.47,4.51,8.74,7.71,12.53Z"/>
          <path class="cls-141" d="M455.53,2112.47c-6.47-2.86-10.41-2.94-16.66-4.2l-1.71-150.32-3.83-274-4.67-347.55c3.64.84,7.28.78,10.08.35l5,453.7,5.7,290.21c.24,12.3-.27,23.15,6.08,31.81Z"/>
          <path class="cls-141" d="M581.78,2142.11l-11.3-4.13-1.59-73.65-4.92-233.03-3.09-294.17c.54-70.09-12.17-137.74,1.88-209.14,11.73,113.21,5.28,220.46,7.26,331.73l4.57,257.65,4.44,205.18c.16,7.54-2.55,14.37,2.76,19.56Z"/>
          <path class="cls-9" d="M491.6,2117.61c-5.63-2.58-7.45-1.66-13.06-.53l.32-85.59-4.85-253.21-2.9-261.57.39-184.26c3.39,1.83,7.3,8.68,7.33,13.17l1.43,203.89,4.08,273.84,7.25,294.23Z"/>
          <path class="cls-144" d="M406.32,2101.72c-5.22-1.05-9.04-2.75-13.4-3.89,1.21-.26,4.83-1.98,4.81-5.1l-1.08-171.53-3.48-208.16-1.44-91.96-2.5-284.15c8.66,2.2,8.93,8.39,8.73,16.09-1.29,49.99.71,97.39,1.48,147.14l3.12,200.82,3.77,400.75Z"/>
          <path class="cls-82" d="M365.06,2089.34c-2.13-.43-6.01-.95-7.99-.6l-.59-195.92-3.1-45.01-1.73-204.59-3.71-228.6-1.93-79.25c15.41,6.16,10.22,18.83,10.38,30.15l5.38,375.99,3.3,347.83Z"/>
          <g>
            <path class="cls-163" d="M560.4,875.11l-.06,422.57-154.93,10.66-8.25-2.6c-3.5-125.38-6.99-250.79-10.49-376.22l8.03-5.2c-6.54-1.72-9.56-7.55-9.05-17.48-7.44-6.85-12.28-11.56-4.54-21.52l174.22-37.25c2.36,8.63,4.05,17.65,5.07,27.05Z"/>
            <path class="cls-18" d="M394.71,924.31l10.71,384.03-77.37,3.15-4.18-416.02c1.07-1.42,2.18-2.56,3.4-2.71,14.07-1.66,56.57,20.5,67.45,31.56Z"/>
            <path class="cls-116" d="M560.4,875.11c-3.45-5.36-3.89-12.22-3.41-20.72l-176.98,38.84c18.34,6.13,14.36,19.2,14.69,31.09-3.51.38-8.66,1.29-12.78-.72l-58.07-28.13c-.04-3.81,4.06-6.47,9.06-7.53l225.71-48.18,1.77,35.35Z"/>
          </g>
        </g>
      </g>
      <g>
        <path class="cls-33" d="M4304.2,594.47c-1.19-5.1-.22-9.02,4.73-8.76-31.97-5.26-60.16-16.74-84.57-34.42-9.07.34-16.26-4.96-21.57-15.91-10.03.57-18.3-3.57-24.82-12.41-20.44.12-35.21-9.68-50.46-22.52-14.59-2.83-25.77-9.26-33.53-19.31-13.44,2.05-21.59-2.95-25.82-16-14.01,1.25-24.32-3.09-30.93-13.02-15.08-.35-24.63-5.23-28.65-14.63-18.38-1.22-46.99-4.63-46.66-27.09-15.04,2.27-27.58-2.3-29.11-18.98-18.89-9.11-38.84-15.36-59.85-18.76-22.77-6.31-46.49-20.35-63.62-35.25-19.45,3.14-32.6-2.45-39.47-16.76-14.37,1.51-19.08-5.11-26.4-16.11-18.53,4.53-30.07,0-34.6-13.59-16.34,2.23-30.2-1.08-40.3-14.92-12.75.81-18.49-5.21-25.92-13.78-2.85-3.28,3.86-1.36-.02-.78-13.3,1.97-28.66-1.59-32.53-15.29-13.36,1.38-28.96-2.06-34.33-15.42-18.22.6-29-5.64-32.36-18.73-18.02,1.24-28.18-1.6-31.98-20.63-18.52,2.96-30.39-3.03-35.59-17.97-25.91,4.4-39.04-2.27-39.4-20.02-25.94,2.52-39.05-3.92-39.33-19.32-24.72,4.81-39.48-2.25-44.3-21.18-32.01-.95-63.19-5.86-94.16-14.75-5.35.95-10.42-.91-15.22-5.6-23.07-15.12-47.42-23.8-73.06-26.04-112.17,6.18-224.45,10.28-336.85,12.28-20.68-6.56-40.78-7.95-62.2-6.15-2.34.2-3.67,2.39-4.38,4.74-19.41,1.47-78.73,5.48-93.49.32-1.29-.45-2.11-2.26-2.79-4.46-1.85,12.67-33.68,12.37-36.81.3-20,3.46-41,4.66-62.98,3.61-9.17,4.7-14.05,3.46-14.63-3.71-14.86-2.43-30.05-3.3-45.58-2.63-2.32,11.93-39.95,12.1-44.2-.02-6.52-5.58-4.99-10.09,1.92-14.38,12.68-4.47,25.41-8.84,38.2-13.13l454.09-4.44c101.42-.99,197.27-4.47,298.43-3.14l158.6,2.08c6.27,9.96,7.37,25,18.21,31.47l19.51-2.02c5.68-.59,12.11,28.57,23,29.91,5.36.66,12.73-3.59,18.86-8.18,9.91,6.91,11.8,17.26,18.92,26.78,9.14-3.12,15.72-6.71,24.36-6.18l13.66,24.98c3.54,6.47,17.32-2.32,22.05-2.24l13.28,27.99,24.04-3.92,10.03,23.99,26.45-5.12c1.87,9.5,4.08,19.74,11.46,23.59,4.62-.26,15.1-10.67,21.98-4.91,2.55,4.5,1.8,19.66,10.13,21.05,4.92-.69,17.42-7.41,19.66-1l6.02,17.2c1.85,5.28,14.9.68,20.88-1.51,5.25,9.42,5.38,17.71,13.22,24.89,6.23-1.82,16.53-2.86,19.52.99l10.77,13.84c6.5-3.26,17.13-12.75,23.07-3.91,2.66,3.95,4.49,10.5,7.03,12.27,4.69,3.28,16.33-7.73,23.12-3.9,5.27,2.97,4.17,16.78,9.33,19.92,3.88,2.36,22.75-9.6,26.05-2.68l6.52,13.65c11.3,1.1,22.06,4.43,25.17,20.05,9.68-4.69,14.46-9.45,22.93-8.33.74,6.52,2.8,14.47,6.56,17.01,3.37,2.27,11.52-.5,17.43-4.34l10.6,22.99c5.53-2.3,10.92-3.52,13.18-2.02,2.5,1.66,4.41,8.89,5.27,11.87,2.87,9.96,10.42,2.95,21.89-.27,3,2.52,6.82,10.21,10.71,9.42,2.67-.55,9.53-8.42,12.23-7.75,18.63,4.6,36.09,25.58,51.68,17.15l6.02,22.47c6.56-.79,14.68,2.29,15.95,6.44,7.24,23.71,9.62,10.62,26.53,27.97,3.68-1.77,10.37-4.36,12.87-2.72,2.31,1.52,5.68,10.43,7.79,9.38l11.16-5.56c1.93-.96,6.31,6.62,6.98,12.17,20.39-1.51,34.72,13.35,46.61,29.41,2.07,2.46,12.65-2.2,13.99.7,8.83,19.08,19.87,10.84,23.91,29.69,5.31-1.92,11.39-3.56,13.16-1.65l7.33,7.96c2.35,2.55,10.52-1.34,12.11.62l5.73,7.09,11.9-.46,7.76,10.35c1.83,2.44,10.6-2.26,11.58-.22l4.63,9.65c7.45,3.08,14.89,14.39,19.02,18.54,7.56-1.22,23.13,6.72,31.59,12.89,10.95,7.99,28.32,9.81,36.39,25.86l-105.25-6.61Z"/>
        <path class="cls-77" d="M4284.71,591.62c-3.51,4.04-3.01,8.76-3.23,12.97l-1.38,26.66-22.29-14.57c-11.11,3.06-18.61,2.49-22.49-1.72l-2.73-9.07c-9.68,3.31-12.07-.74-8.04-9.42-6.38,3.32-10.92,4.51-13.6,3.58-3.96-1.63-6.21-5.4-6.75-11.31-8.76,8.12-15.13.49-13.59-9.35-10.56,13.13-21.4,9.99-24.16-7.07-6.02,4.57-7.84,2.29-3.76-4.23-7.3,2.64-13.46,3.03-18.48,1.17l-5.86-13.13c-10.51,1.53-17.4-1.59-20.66-9.37-.2,12.14-13.25,12.01-16.68.81-7.91-2.91-14.53-8.18-19.84-15.81-2.52,12.92-8.2,17.06-16.11,5.08l-8.88-1.62c-2.47-10.43-7.55-19.81-15.23-28.15-.96,12.03-14.1,11.23-16.95-.26-7.46,1.77-18.63,2.41-24.25-3.63-8.17,13.82-13.65,6.62-16.45-21.61-9.14-.36-18.57-1.11-28.32-2.25l-16.52-.06-10.39-1.63c-4.53-10.67-10.69-20.12-18.49-28.35-4.17,12.75-16.27,9.86-17.52-3.1-5.51-1.95-9.83-6.35-12.96-13.17l-15.03-8.32-15.44,16.45c-5.5,13.89-16.99,3.5-21.71-7.96,1.03-11.53-3-20.94-12.1-28.24-4.17,14.15-19.15,13.42-21.71-1.05l-9.46,3.06-16.6-27.55c-1.38,11.85-8.46,15.14-15.51,4.83l-8.8,2.88c-9.69-13.08-21.11-20.79-34.26-23.14-1.36,13.19-11.1,16.85-15.61,3.82-9.47,4.16-18.7-3.49-27.69-22.94l-17.18-5.39c-1.92,11.69-10.44,11.37-13.65.17-15.99-6.7-30.81-18.83-43.88-30.71-5.03,1.9-9.3,1.06-12.81-2.53-.46,14.13-18.19,14.47-19.38.83-9.36,10.79-16.59,3.8-21.68-20.98-9.84-2.79-17.52-6.78-23.05-11.97-1.27,13.93-15.03,18.23-19.58,4.12-8.91,6.94-18.71-.6-29.4-22.63-8.66-4.79-17.19-9.44-25.61-13.94-1.78,11.66-9.03,18.86-18.51,9-8.87.19-16.96-4.81-24.27-15.02-12.87-6.65-19.82-14.79-20.85-24.42l-8.45-.14c-6.85,10.32-15.38,18.55-20.25,2.42l-9.56,5.16c-30.56-17.47-54.7-43.31-72.42-77.51-10.48-9.06-15.04-18.28-13.68-27.67-14.72-7.94-4.77-26.37,7.7-15.46,38.91,6.42,75.04,21,111.01,36.86,58.71,29.7,118.15,58.38,177.54,86.56,222.15,105.4,446.57,214.48,666.12,327.56,22.96,11.83,46.47,23.05,70.72,33.02l.66,9.47Z"/>
        <path class="cls-145" d="M1133.95,64.1c-3.2,3.71,8.29,9.7,15.05,12.94,10.11.33,16.1,3.7,17.98,10.12-1.69,10.88-9,12.68-21.93,5.42l-8.17,2.12c-1.62,3.6-2.75,3.11-3.44-1.05-9.61,11.42-23.26,18.31-40.96,20.67-4.81-4.15-9.07-5.73-12.77-4.74-.42,8.61-2.9,18.82-12.27,21.46-4.33,19.99-27.63,35.08-45.15,27.98,2.04,10.62-1.66,14.84-12.37,11.79-1.92,19.38-32.35,38.29-47.49,28.97-.71,8.12-9.66,20-16.57,24.8l-3.85,10.8c-17.7,7.02-34.25,14.22-49.66,21.58,7.98-.53,7.85,2.78-.14,5.07-6.32,20.38-30.57,32.22-49.35,31.52,5.24,10.46,3.06,13.04-8.09,8.76l-4.97,12.68c-26.04,15.59-51.08,32.75-75.11,51.51,0,0-3.44-1.22-10.32-3.66,6.69,4.22,5.33,5.83-4.08,4.84,3.28,9.3,1.68,10.37-8.08,7.63l-5.04,12.29c-14.55,9.1-29.81,17.01-45.78,23.74-14.77,13.79-31.84,23.72-51.19,29.79-9.62,13.55-23.27,20.65-40.95,21.31-.7,3.83-1.82,3.64-3.32-.21-5.25,16.13-20.14,30.96-38,28.19,6.67,10.45-1.89,14.98-11.28,7.66-.16,11.96-21.99,29.37-31.98,20.71,6.49,9.99-4.48,16.22-12.69,8.09-3.87,17.65-18.82,24.79-33.51,21.11,6.16,8.61,2.86,11.77-7.08,8.23-.4,10.69-21.26,23.28-29.98,16.02-.16,12.34-4.22,15.14-12.19,8.41-3.76,12.57-19.25,25.99-31.84,20.28.05,11.47-2.68,16.4-12.19,7.66-3.47,11.44-9.3,24.94-22.02,15.88-2.31,15.37-21.37,28.85-36.26,23.64-2.24,16.03-23.12,32.66-36.46,26.38,1.77,8.09-1,9.67-6.92,3.88-7.93,20.31-35.15,35.49-55.15,43.47-8.55,11.85-17.56,16.28-27.01,13.3,1.02,11.26-4.37,12.21-11.99,4.73-4.97,20.04-13.39,26.74-25.28,20.1,4.53,10.21-.62,13.05-8.68,5.31-9.21,11.33-13.25,23.79-12.11,37.38l-8.01,10.8c11.49,2.21,9.44,11.23-2.04,12.1-11.42,2.59-21.43-.02-30.47-8.95l-22.24,3.88c-7.87-8.1-16.07-7.74-28.07-9l302.81-211.33,215.9-144.49,341.77-254.41c61.81-46.01,118.77-91.27,185.87-129.11,6.47-3.65,10.51-14.54,19.6-13.22l35.55,5.16Z"/>
        <path class="cls-19" d="M2506.59,43.29c-4.07,14.87-32.57,10.99-40.12,27.5-.81,3.22-2.23,8.06-4.69,8.22-40.09,2.58-104.64,4.9-143.45,1.31-.87-.08-1.57-1.97-2.22-4.38-15.23-2.45-29.44-1.03-42.63,4.25-112.01-.85-224.28,1.04-336.81,5.67-4.31-4.53-11.54-7.22-21.69-8.06-.26,11.43-6.32,10.38-8.58-.51-.38,3.15-1.17,7.81-3.45,8.2-5.84,1-49.72,1.94-51.81.41-2.86-2.09-4.87-4.59-5.69-8.13,1.61,12.55-31.87,12.17-34.17.12-3.68,14.84-36.21,10.87-50.02,8.67-11.38-9.72-28.8-9.61-38.23,2.67-26.42-.41-52.5-.01-78.23,1.18-27.75.48-55.5-.25-83.27-2.19-31.15,4.8-68.94,5.8-100.72.63-45.89,3.14-92.67,4.23-140.32,3.27-5.77-5.5-8.36-7.03-15.85-8.24-6.62-1.07-36.46,3.27-43.3,6.24-3.06,8.16-6.48,7.2-6.34-1.53-15.1,6.49-32.54,6.74-52.33.73-15.78,5.05-27.68,4.33-35.7-2.17-16.43,1.7-27.51-2.85-38.94-18.2-1.69-2.27,1.77-5.5,5.92-4.86l224.52,2.92c150.26,1.95,294.88-6.61,445.69-9.64l702.43-14.08Z"/>
        <path class="cls-96" d="M4304.2,594.47c-5.06.52-14.94-.57-19.49-2.85l-189.38-94.77-227.2-111.98-193.09-93.84c-16.92-8.22-30.49-14.3-47.49-22.37l-63.72-30.25-77.55-36.42-119.96-59.52-107.67-44.32,88.19,5.95c5.59.38,12.39.95,13.68,4.66l4.72,13.58c3.49,10.05,41.47-3.57,41.44,9.73,0,2.48-1.79,6.3-3.88,10.83l41.98,2.88c3.15,2.33.67,12.9-2.09,17.42,14.85,3.73,25.84,2.17,40.89,1.74l5.39,18.11c9.45.32,22.18-2.03,30.13,2.53l3.79,14.92c1.71,6.73,26.85-.36,28.38,6.93l2.65,12.64,29.19,3.32c.6,6.25,2.91,11.53,5.96,13.12,8.43,4.4,26.09-1.4,28.03,4.16l3.61,10.34c7.81,4.66,17.34,3.02,26.64,2.59,4.5,13.04,14.58,16.99,28.8,12.79,2.41,7,3.8,13.38,7.5,15.3,9.52,4.96,26.4-2.5,32.19,3.75,1.67,1.8,2.13,7.6,3.14,11.13,9.55,2.06,19.88-.16,31.72-.77,2.43,6.03,4.24,14.24,9.78,16.5,5.13.25,13.55-.84,15.25,2.15l7.19,12.65c10.25,3.43,21.77,1.56,33.5,2.39.02,14.94,16.07,12.09,20.84,16.5,22.94,21.23,57.11,21.17,70.85,25.13,7.91,2.28,16.55,17.82,31.91,10.03.65,8.22,1.27,16.9,4.89,19.39,3.99,2.74,12.38,2.25,16.16,1.81,12.43-1.44,7.66,13.67,10.49,17.42,9.92,9.07,34.02,8.86,46.29,10.4l-.27,9.8c-.15,5.23,26.84-4.4,32.06,16.36,8.28.32,17.8-1.96,25.46,3.32,1.64,4.46,4.3,13.58,8.79,13.56,3.26-.02,14.16-.62,15.79,2.51,6.01,11.52,18.08,12.01,29.22,16.41,11.31,4.46,22.35,22.38,38.01,21.72,11.35-.48,20.05,1.08,24.65,13.75,12.82-3.67,23.21,2.17,23.64,16.34,16.22-4.6,18.29,6.64,24.72,12.58,16.39,15.12,61.81,8.4,95.44,34.8l-31.16,3.18Z"/>
        <path class="cls-73" d="M2466.47,70.8l81.7-1.49c4.35-.08,7.18,1.66,8.08,4.13-.09,10.89-3.74,10.53-7.22.29-2.49,8.37-12.86,10.53-31.12,6.49,0,11.53-3.48,19.9-10.42,25.11l-58.42,4.19c.51,12.19-11.38,12.1-15.05,1.18-6.89.79-10.3-4.02-10.23-14.42-28.09,4.04-56.15,9.77-84.17,17.18l-7.4-7.54c-5.27,11.32-13.43,9.46-14.4-2.71-6.49,1.3-10-4.24-10.54-16.63l-16.54.19c-.88,16.87-6.36,24.88-16.42,24.03,1.38,11.73-6.76,13.71-12.81,3.78-3.15,13.62-10.22,8.46-12.64-3.67-14-6.53-30.43-6.5-49.31.09l-38.82,3.17-6.03-7.72c-4.61.37-10.97-.57-15.6-.7-2.54-5.44-9.71-7.39-17.24-5.63-22.38,5.2-43.74,3.59-64.25,6.88-5.54,14.53-18.15,9.93-20.14-4.48l-6,6c-25.69,2.5-51.32,4.42-76.9,5.77-3.85,11.67-15.14,7.99-16.32-3.81-7.6.63-11.1-5.07-10.52-17.11-11.47-2.73-15.74-7.9-12.8-15.52l64.73-.34c30.51-4.01,59.2-3.45,90.01-3.93l159.22-2.48c23.45-.37,44.16,1.5,67.36,1.29l170.19-1.55Z"/>
        <path class="cls-37" d="M1811.28,77.89c14.26,2.02,9.02,32.22-3.09,38.43-3.5,1.8-35.06,4.72-36.76-2.62-1.48,12.4-10.95,11.89-12.86-.04l-5.46-1.5c-.04-19.95-6.17-27-18.37-21.15,3.65,19.85-15.93,39.72-28.07,20.06-15.15,7.31-23.4,3.74-24.76-10.69-7.58,2.14-16.05,2.5-25.42,1.08-5.81,19.27-40.37,31.35-49.36,12.63-8.03,8.45-14.89,2.34-16.52-7.27-6.13-4.49-12.71-6.45-19.73-5.88-.84,9.77-4.7,15.61-11.58,17.52-9.06,12.69-14.36,4.86-16.6-8.04-5.19,2.51-11.27,1.57-18.26-2.8,1.96,22.55-26.28,35.75-34.28,14.59-11.17,7.82-18.03,5.16-20.7-8.39-5.62-.33-9.78-4.64-12.48-12.91l-6.29-.82c3.27,22.21-31.95,39.74-42.71,21.9l-14.19.54c-.03-5.87,2.65-15.4-2.28-21.59-3.51-4.4-19.09-5.74-22.69-.65-2.32,3.83.82,15.79-6.16,18.95-9.38,4.25-21.12,3.53-30.8,4.45-2.19-.15-5.82-.74-7.56-2.27-4.48-3.93-.67-12.21-6.4-23.92-10.3,3.62-11.52.11-3.53-7.21-9.05-4.52-24.19-4.5-25.59,7.96l-7.29-4.85c-5.57,9.46-16.24,5.53-20.17-3.29-5.93-12.12,36.41-5.99,68.27-6.05l135.98-.26,195.23-1.71c26.52-.23,47.68,1.71,74.27-2.71,24.77-4.12,52.1,3.82,76.19-1.49Z"/>
        <path class="cls-42" d="M2057.63,106.97l4.44,411.77c.24,16.48-6.61,28.09-6.88,42.2l-4.51,155.08-.94-135.42c-12.21,1.24-14.06-21.34-2.7-24.65l-8.18-3.63c-1.53-147.67-4.66-295.89-9.41-444.66l8.05-5.18c7.24,5.12,12.76,5.66,20.14,4.48Z"/>
        <path class="cls-71" d="M3258.66,98.15c-5.88-.4-9.58,10.74-7.7,15.46-5.42-5.01-16-4.04-20.03.91l-4.8.04-6.63,6.63c-37.15-13.38-74.69-21.55-112.63-24.49l-7.66-7.23c-4.9,10.99-8.82,8.19-11.75-8.4-6.98,4.68-16.79,5.48-29.41,2.4-10.81,3.09-20.23,3.31-28.26.65-15.58,4.46-40.09-5.45-56.24,1.23-14.85,19.19-23.2,18.12-25.06-3.19-41.26-5.88-74.99,15.6-122.89,3.15-4.76,4.01-8.55,2.39-11.34-4.86l-17.33-2.86c-13.68-2.1-23.1-.24-28.26,5.57-22.49,6.63-45.79,1.92-68.92,3.19-17.57,10.5-26.92,8.75-28.05-5.24l-1.01-7.86,61.42-2.02,80.67-.16,257.96-5.43c44.58-.94,86.37-13.81,130.56-3.28l43.2,21.55c7.66,3.82,13.24,7.42,14.17,14.25Z"/>
        <path class="cls-152" d="M705.64,432.67c-5.84,3.47-8.9-2.04-9.15-16.53l-10.86,9.1c.94,19.08-2.21,45.2-26.73,36.32-1.9,12.34-5.56,14.91-12.54,3.69-6.1-2.97-8.83-8.32-8.2-16.07.86,19.55-4.36,51.13-27.93,36.89-4.55,1.57-7.12-2.6-7.71-12.53-.9-2.22.28-7.04-1.14-8.91-2.85-3.77-8.59-3.38-12.14-2.18.47-.89,2.03-4.12,4.3-5.21,36.34-17.45,67.04-41,102.04-61l36.63-20.92-.36,40.91-26.2,16.46Z"/>
        <path class="cls-15" d="M815.29,359.85l-4.5,10.18c-7.54-2.4-13.3-1.48-17.29,2.76,7.19,13.15-24.24,32.57-33.6,23.23-16.04-5.03,3.26-33.64-15.54-33.18,17.76-8.75,31.99-24.43,49.78-35.43l40.62-25.1c3.14,50.97-.8,44.39-19.47,57.55Z"/>
        <path class="cls-158" d="M1255,88.59c19.33,11.87-6.33,25.76-22.89,20.96l-8.17,4.86c-.82,11.71-10.38,10.74-12.83-.54l-8.1-4.43c-1.57-18.54-13.99-.56-17.75,9.01-8.48,6.58-15.27,6.83-20.37.74-6.49,16.67-11.37,9.35-14.66-21.98-3.63-3.06-8.99-2.91-13.35-2.52-2.35-5.06,9.47-3.94,30.1-7.54,28.08-4.9,61.76-5.09,88.03,1.44Z"/>
        <path class="cls-16" d="M867.71,330.57c-6.78,11.36-10.65,3.32-11.59-24.13-.46-3.47,1.03-9.38-3.31-11.95-2.71-1.61-6.8-1.13-9.96-.95l49.35-31.52-1.35,51.94-23.14,16.61Z"/>
        <path class="cls-147" d="M1042.58,196.01c-3.65,7.55-7.96,10.49-11.48,2.96l-3.21-39.71c-2.15.55-3.9.4-5.6-.25,16.45-7.21,32.1-15.75,45.15-27.98l-1.6,50.14-23.27,14.83Z"/>
        <path class="cls-34" d="M924.47,283.1c-1.33,12.95-6.12,14.27-12.28,2.75-.08-10.93,1.2-22-1.64-33.23l-18.2,4.34c.24-8.68,6.18-10.45,14.16-14.14l39.36-18.24c1.07,14.11,2.37,28.6-.58,44.09l-20.81,14.44Z"/>
        <path class="cls-158" d="M1133.44,93.64c-8.43,33.23-27.97,20.05-36.41,33.97-3.24,10.43-6.78,9.31-7.86-1.47,0-3.81.95-8.33-.82-13.16-.99-2.71-5.12-3.89-8.63-3.41l53.73-15.93Z"/>
        <path class="cls-59" d="M115.27,813.47c1.77-10.49-2.54-23.34,2.15-35.33,2.99-7.63,12.81-9.7,17.98-12.86-2.79,26.25,6.41,36.12-20.13,48.19Z"/>
        <path class="cls-54" d="M1845.44,77.78l8.27,2.55,15.85,504.19c-3.64,4.47-9.51,7.24-17.6,8.3.57,13.43-39.17,24.9-47.08,14.29l-25.02-.73c-5.18-162.25-10.09-324.76-14.72-487.52l6.27-5.16c11.82-4.5,23.98-5.42,38.53-4.96l1.33-30.85,34.17-.12Z"/>
        <path class="cls-80" d="M1914.97,77.81c4.22,4.48,10.24,6.11,19.64,4.94l3.67,27.69,8.26,4.68,16.93,440.72c.91,10.56-1.36,15.68-12.36,16.22l-4.19,9.98c-12.29,7-51.94,21.62-60.37,8.41-6.76.27-12.58-1.2-17.46-4.42-5.3-158.26-9.7-316.5-13.2-474.71,10.62-9.54,23.88-10.95,39.77-4.22-1.96-17.01,1.61-26.95,10.72-29.81l8.58.51Z"/>
        <path class="cls-26" d="M1906.39,77.3c-3.23,25.99-.71,49.79-11.72,41.44-10.33-7.83-21.38-11.04-32.6-3.49l14.38,460.94c.15,4.67-.23,7.24,1.14,9.86s5.49,3.97,8.98,4.43c2.33,12.45-31.39,14.23-34.6,2.35,6.33-2.37,10.67-7.06,10.34-16.61l-16.86-498.43,60.94-.48Z"/>
        <path class="cls-44" d="M2037.49,102.49l9.42,371.52.13,81.96c-25.18,2.24-46.86,18.99-75.12,17.33l-8.28-2.5-12.4-322.37c3.6-4.54,3.45-10.12-.44-16.75l-4.05-111.18,7.86-6.24c7.41-17.67,30.21-4.76,65.08-13.88,6.54-1.71,13.82-.71,17.81,2.12Z"/>
        <path class="cls-131" d="M2317.81,103.2l7.25,3.61,8.78,349.15c-5.27,14.91-29.02,22.28-40.73,10.1-1.15-2.96-5.54-5.24-5.71-12.59l-7.48-310.59c-.3-12.49-2-22.44-5.6-32.08,6.43-6.94,7.08-16.83,4.7-29.18,11.79-4.77,24.74-4.39,37.32-1.84l1.48,23.44Z"/>
        <path class="cls-134" d="M1954.6,114.26l3.96,117.65c.09,2.34,6.83,6.63,8.24,8.05,1.88,1.91-8.05,7.39-7.94,10.26l13.06,323.07-20.81-1.22c2.14-3.76,4.89-9.12,4.61-16.35l-17.44-445.28,16.32,3.81Z"/>
        <path class="cls-7" d="M1681.92,100.38l8.27,10.86c-.03,169.89.67,339.79,2.12,509.71l-16.02,5.13-39.1,13.51c-11.26,1.22-20.05-.77-26.35-5.99l-11.73-514.36,8.03-5.14c44.43,4.12,38.39-14.95,42-18.24s20.88-6.11,32.78,4.52Z"/>
        <path class="cls-150" d="M1758.57,113.66l6.5,2.63,14.02,475.84c2.18,10.34-3.39,16.18-16.71,17.54-16.6,1-30.25,12.69-47.45,13.84-11.73,1.37-19.19-.46-22.4-5.49l-4.2-505.04c3.78-2.41,9.9-3.04,18.36-1.9,4.66-.65,12.49.77,16.27-2.18,4.62-3.61,3.17-12.02,4.06-19.25,1.2-9.77,23.06-10.74,27.68-4.34,6.51,9.01,3.64,20,3.89,28.35Z"/>
        <path class="cls-105" d="M1590.62,106.83c3.29.89,6.08,3.41,8.37,7.56l12.79,516.42c-1.7,6.07-8.68,10.11-20.95,12.12l-20,7.59-8.23-2.67-11.33-524.28,8.05-5.1c-.19-7.34,3.51-16.61,2-24.97,9.8-.92,17.6-1.55,25.55.95,4.09,1.29,4.86,9.29,3.76,12.38Z"/>
        <path class="cls-126" d="M1559.31,118.47l4.99,191.99,6.53,340.06c-6.9,2.62-13.42.68-20.66.61l-7.45-540.7c2.21,5.11,12.14,6.96,16.6,8.04Z"/>
        <path class="cls-126" d="M1706.68,111.08c-3.13.52-6.92,2.74-12.03,5.32l5.72,504.34c4.4,2.74,12.49,1.97,14.55,2.76l-38.63,2.58c9.39-4.32,9.94-10.16,9.79-21.39l-4.16-504.31c6.22,5.56,16.48,9.81,24.76,10.69Z"/>
        <path class="cls-140" d="M1607.14,114.1l11.69,519.09c.14,5.6,17.22,6,18.35,6.4l-46.36,3.34,14.01-9.9-14.22-526.21c7.02-1.88,11.98,6.23,16.52,7.27Z"/>
        <path class="cls-97" d="M1771.42,113.7l14.8,490.78c8.28,2.14,13.41,1.2,18.66,2.63l-42.51,2.56c8.31-3.9,10.25-10.26,9.93-21.29l-13.74-474.72c3.86.08,9.5,1.32,12.86.04Z"/>
      </g>
    </g>
  </g>
</svg>