<?xml version="1.0" encoding="UTF-8"?>
<svg id="Camada_1" data-name="Camada 1" xmlns="http://www.w3.org/2000/svg" viewBox="0 0 2663.65 1560.59">
  <defs>
    <style>
      .cls-1 {
        fill: #0291da;
      }

      .cls-2 {
        fill: #273740;
      }

      .cls-3, .cls-4 {
        fill: #fff;
      }

      .cls-5 {
        letter-spacing: -.03em;
      }

      .cls-4 {
        font-family: AgileraRegular, Agilera;
        font-size: 384.05px;
        stroke: #fff;
        stroke-miterlimit: 10;
        stroke-width: 20px;
      }
    </style>
  </defs>
  <rect class="cls-1" x="-16.54" y="-23.49" width="2696.73" height="1607.56"/>
  <g>
    <path class="cls-2" d="M47.13,1009.04c16.03,81.81,32.07,163.63,48.1,245.44,775.04,82.73,1550.09,165.45,2325.13,248.18,65.39-183.65,130.78-367.31,196.17-550.96-856.47,19.11-1712.93,38.22-2569.4,57.33Z"/>
    <g>
      <path class="cls-3" d="M413.48,1038.81l1.45-5.07-15.52-9.7-3.52,6.68c-2.92,5.56-6.38,8.76-10.58,9.81-3.33.84-9.68,1.03-21.03-2.75l-17.72-5.32c-12.94-3.64-24.32-5.48-33.81-5.48-19.5,0-35.95,7.88-48.9,23.41-4.6,5.52-8.45,11.14-11.55,16.85-9.57-26.47-33.33-40.26-70.09-40.26h-23.83v19.82h7.01c9.1,0,16.06,3.06,21.29,9.36,5.55,6.7,8.25,15.39,8.25,26.57v185.07c0,46.34,25.49,70.83,73.73,70.83h24.99v-20.4h-7.01c-9.15,0-16.13-2.99-21.35-9.14-5.44-6.39-8.19-15.4-8.19-26.79v-146.2c0-19.13,4.74-34.62,14.13-46.1,6.46-8.07,14.05-12.33,23.2-13.03,7.62.04,17.09,2.05,28.16,5.98l.24.08c21.5,6.75,40.89,5.6,57.64-3.42,16.74-9.02,27.85-22.74,33-40.8Z"/>
      <path class="cls-3" d="M621.02,1276.88c-26.8,22.02-54.52,29.89-84.73,24.06-30.18-5.81-56.83-23.24-79.22-51.8-7.6-11.1-11.53-22.52-11.7-33.96-.17-11.33,2.81-20.56,9.1-28.17,8.74-10.42,21.78-15.48,39.88-15.48h.3c8.29-.37,20.62,1.06,36.63,4.22,16.98,3.36,27.65,5.2,32.62,5.61,32.94,3.37,56.84-6.94,70.99-30.53,8.69-13.91,11.05-30.58,7-49.56-4.01-18.73-14.09-34.8-30-47.78-21.7-17.59-50.71-26.51-86.22-26.51-43.12,0-80.31,15.33-110.55,45.57-30.24,30.23-45.57,67.23-45.57,109.97s15.43,79.84,45.85,110.26c30.42,30.43,67.52,45.86,110.26,45.86s79.73-15.33,109.97-45.57l4.7-4.7-14.15-15.73-5.18,4.25ZM437.49,1172.03c-4.57,4.8-8.15,10.32-10.73,16.51-.71-2.45-1.45-5.04-2.2-7.77-5.84-24.52-5.58-47.55.79-68.45,6.27-20.61,17.43-35.12,34.11-44.35l.18-.11c11.23-6.66,23.3-10.04,35.87-10.04s24.83,2.34,35.5,6.96c10.82,4.69,20.9,11.29,29.94,19.6,18.94,17.54,27.39,33.97,25.11,48.83-1.35,7.6-5.95,17.8-30.01,19.09-7,.37-17.47-.11-31.16-1.43-14.51-1.39-24.51-2.06-30.55-2.06-24.79,0-43.92,7.81-56.86,23.22Z"/>
      <path class="cls-3" d="M891.77,1277.04c-18.4,16.24-38.99,24.92-61.21,25.81-22.4.9-43.98-5.16-64.11-18.05-20.42-13.05-37.7-31.67-51.35-55.29-18.13-31.82-25.74-64.09-22.61-95.92,3.07-31.26,15.44-52.71,37.82-65.57,7.74-3.85,15.26-6.33,22.36-7.37,6.87-1,13.46-.59,19.61,1.23,6.75,2.01,12.33,4.11,16.56,6.22,4.34,2.17,9.65,5.34,15.78,9.42,6.55,4.38,11.04,7.16,13.7,8.51,24.18,13.12,45.96,14.35,64.74,3.65,19.09-10.87,27.88-29.19,26.15-54.44l-.33-4.84-16.22-4.86-2.58,5.44c-2.56,5.4-5.79,8.53-9.87,9.54-3.33.83-9.68,1.03-21.13-2.78-22.62-7.15-43.44-10.77-61.87-10.77-43.12,0-80.31,15.33-110.55,45.57-30.24,30.23-45.57,67.23-45.57,109.97s15.33,80.31,45.57,110.55c30.23,30.24,67.43,45.57,110.55,45.57s78.9-15.31,109.9-45.5l5.09-4.96-15.48-15.48-4.94,4.36Z"/>
      <path class="cls-3" d="M1042.62,1026.97c-43.12,0-80.31,15.33-110.55,45.57-30.24,30.23-45.57,67.23-45.57,109.97s15.33,80.31,45.57,110.55c30.23,30.24,67.43,45.57,110.55,45.57s79.75-15.43,109.98-45.87c30.22-30.42,45.55-67.51,45.55-110.24s-15.33-79.73-45.57-109.97c-30.23-30.24-67.23-45.57-109.97-45.57ZM1032.42,1297.65c-29.22-13.04-53.31-35.87-71.62-67.86-18.32-32.01-26.02-64.38-22.9-96.2,3.07-31.34,15.5-52.82,38.05-65.71,11.4-6.69,23.42-10.04,36.26-10.04s25.79,3.17,40.01,9.52c29.21,13.05,53.4,35.78,71.9,67.56,18.12,32.58,25.64,65.14,22.33,96.75-3.27,31.23-15.64,52.84-37.7,66.01-22.52,12.87-47.49,12.86-76.34-.02Z"/>
      <path class="cls-3" d="M1608.98,1309.08c-5.44-6.39-8.19-15.4-8.19-26.79v-168.25c0-24.95-7.87-45.89-23.39-62.26-15.62-16.46-36.07-24.81-60.78-24.81-37.1,0-64.97,17.49-83.06,52.04-4.79-12.45-12.12-23.16-21.91-31.97-14.81-13.32-33.56-20.07-55.74-20.07s-41,6.28-56.33,18.67c-9.14,7.38-16.91,16.45-23.26,27.09-8.17-30.06-32.59-45.76-71.83-45.76h-23.83v19.82h7.01c9.1,0,16.06,3.06,21.29,9.36,5.55,6.7,8.25,15.39,8.25,26.57v185.07c0,46.34,25.49,70.83,73.73,70.83h24.99v-20.4h-7.01c-9.15,0-16.13-2.99-21.35-9.14-5.44-6.39-8.19-15.4-8.19-26.79v-145.16c-.36-21.09,4.89-37.02,16.04-48.7,11.12-11.64,23.54-17.48,37.95-17.85,12.4.02,22.67,4.44,31.42,13.52,8.71,9.05,13.13,22.25,13.13,39.23v144.46c0,46.34,25.49,70.83,73.73,70.83h25v-20.4h-7.01c-9.15,0-16.13-2.99-21.35-9.14-5.44-6.39-8.19-15.4-8.19-26.79v-145.16c-.36-21.09,4.89-37.03,16.05-48.71,11.12-11.64,23.54-17.48,37.95-17.85,12.4.02,22.67,4.44,31.42,13.52,8.71,9.05,13.13,22.25,13.13,39.23v144.46c0,46.34,25.7,70.83,74.31,70.83h24.41v-20.4h-7.01c-9.15,0-16.13-2.99-21.35-9.14Z"/>
      <path class="cls-3" d="M1871.29,1276.88c-26.8,22.02-54.51,29.89-84.73,24.06-30.18-5.81-56.83-23.24-79.22-51.8-7.6-11.1-11.53-22.52-11.7-33.96-.17-11.33,2.81-20.56,9.1-28.17,8.74-10.42,21.78-15.48,39.88-15.48h.3c8.29-.37,20.62,1.06,36.63,4.22,16.98,3.36,27.65,5.2,32.62,5.61,32.94,3.37,56.84-6.94,70.99-30.53,8.69-13.91,11.05-30.58,7-49.56-4.01-18.73-14.09-34.8-30-47.78-21.7-17.59-50.71-26.51-86.22-26.51-43.12,0-80.31,15.33-110.55,45.57-30.24,30.23-45.57,67.23-45.57,109.97s15.43,79.84,45.85,110.26c30.42,30.43,67.52,45.86,110.26,45.86s79.73-15.33,109.97-45.57l4.7-4.7-14.15-15.73-5.18,4.25ZM1687.75,1172.03c-4.57,4.8-8.15,10.32-10.73,16.51-.71-2.45-1.45-5.04-2.2-7.77-5.84-24.52-5.58-47.55.79-68.45,6.27-20.61,17.43-35.12,34.11-44.35l.18-.11c11.23-6.66,23.3-10.04,35.87-10.04s24.83,2.34,35.5,6.96c10.82,4.69,20.9,11.29,29.94,19.6,18.94,17.54,27.39,33.97,25.11,48.83-1.35,7.6-5.95,17.8-30.01,19.09-6.99.37-17.47-.11-31.16-1.43-14.51-1.39-24.51-2.06-30.55-2.06-24.79,0-43.92,7.81-56.86,23.22Z"/>
      <path class="cls-3" d="M2142.04,1277.04c-18.4,16.24-38.99,24.92-61.21,25.81-22.4.9-43.98-5.16-64.11-18.05-20.42-13.05-37.7-31.67-51.35-55.29-18.13-31.82-25.74-64.09-22.61-95.92,3.07-31.26,15.44-52.71,37.82-65.57,7.74-3.85,15.26-6.33,22.36-7.37,6.86-1,13.46-.59,19.61,1.23,6.75,2.01,12.33,4.11,16.56,6.22,4.34,2.17,9.65,5.34,15.78,9.42,6.55,4.38,11.04,7.16,13.7,8.51,24.18,13.13,45.96,14.35,64.73,3.65,19.09-10.87,27.88-29.19,26.15-54.44l-.33-4.84-16.22-4.86-2.58,5.44c-2.56,5.4-5.79,8.53-9.87,9.54-3.33.83-9.68,1.03-21.13-2.78-22.62-7.15-43.44-10.77-61.87-10.77-43.12,0-80.31,15.33-110.55,45.57-30.24,30.23-45.57,67.23-45.57,109.97,0,39.5,13.09,74.25,38.9,103.28,23.27,26.18,51.99,42.88,85.51,49.73l-36.21,52.78,23.18-1.54c8.83-.66,15.67.53,20.34,3.54,4.21,2.72,6.51,5.84,7,9.53.53,3.96-.51,7.48-3.25,11.04-2.91,3.77-7.34,6.36-13.66,7.95-10.61,2.82-22.9,3.17-36.55,1.01l-8.1-1.28v26.08l6.24.69c10.65,1.18,22.43,1.78,35,1.78,18.59,0,35.13-4.24,49.14-12.6,15.1-9.02,22.78-22.87,22.85-41.17.85-13.58-5.16-25.3-17.89-34.85-8.24-6.18-17.46-9.32-27.55-9.41l7.28-10.47h3.88c41.92,0,78.9-15.31,109.9-45.5l5.09-4.96-15.48-15.48-4.94,4.36Z"/>
      <path class="cls-3" d="M2402.85,1072.54c-30.23-30.24-67.23-45.57-109.97-45.57s-80.31,15.33-110.55,45.57c-30.24,30.23-45.57,67.23-45.57,109.97s15.33,80.31,45.57,110.55c30.23,30.24,67.43,45.57,110.55,45.57s79.75-15.43,109.98-45.87c30.22-30.42,45.55-67.51,45.55-110.24s-15.33-79.73-45.57-109.97ZM2282.69,1297.65c-29.22-13.04-53.31-35.87-71.62-67.86-18.32-32.01-26.02-64.38-22.9-96.2,3.07-31.34,15.5-52.82,38.05-65.71,11.4-6.69,23.42-10.04,36.26-10.04s25.79,3.17,40.01,9.52c29.21,13.05,53.4,35.78,71.9,67.56,18.12,32.58,25.64,65.14,22.33,96.75-3.27,31.23-15.64,52.84-37.7,66.01-22.52,12.87-47.49,12.86-76.34-.02Z"/>
    </g>
    <g>
      <polygon class="cls-2" points="193.52 589.63 326.89 589.63 326.89 923.06 592.06 923.06 592.06 589.63 725.43 589.63 725.43 324.46 193.52 324.46 193.52 589.63"/>
      <polygon class="cls-2" points="770.86 923.06 1267.85 923.06 1267.85 772.82 1035.63 772.82 1035.63 699.07 1197.25 699.07 1197.25 548.84 1035.63 548.84 1035.63 474.7 1267.85 474.7 1267.85 324.46 770.86 324.46 770.86 923.06"/>
      <polygon class="cls-2" points="1314.81 589.63 1448.18 589.63 1448.18 923.06 1713.35 923.06 1713.35 589.63 1846.72 589.63 1846.72 324.46 1314.81 324.46 1314.81 589.63"/>
    </g>
    <g>
      <path class="cls-3" d="M1600.35,921.96c-2.64-2.06-3.97-6.41-3.97-13.07v-93.99h-28.49v91.66c-2.25,1.92-4.65,3.73-7.2,5.42-6.37,4.21-13.95,6.31-22.76,6.31s-15.27-2.59-19.39-7.78c-4.11-5.19-6.17-13.26-6.17-24.23v-71.38h-28.49v78.43c0,16.65,3.72,29.23,11.16,37.74,7.44,8.52,18.51,12.78,33.19,12.78,10.96,0,20.31-2.16,28.05-6.46,4.64-2.58,9.08-5.74,13.32-9.45,1.13,3.87,2.8,6.92,5.03,9.15,4.5,4.5,11.06,6.76,19.68,6.76,7.64,0,14.39-1.57,20.27-4.7l-1.18-16.74c-6.07,1.76-10.43,1.62-13.07-.44Z"/>
      <path class="cls-3" d="M1843.71,922.4c-2.35.59-4.51.98-6.46,1.18-3.72,0-6.42-1.03-8.08-3.08-1.67-2.06-2.5-5.92-2.5-11.6v-47.29c0-16.64-3.53-29.13-10.57-37.45-7.05-8.32-17.43-12.48-31.14-12.48-10.18,0-19.88,2.6-29.08,7.78-6.53,3.68-12.41,7.99-17.65,12.9-1.54-3.35-3.44-6.29-5.7-8.79-7.15-7.93-17.77-11.9-31.87-11.9-10.18,0-19.68,2.45-28.49,7.34-4.92,2.73-9.46,5.88-13.65,9.41l-1.04-13.52h-27.32v125.72h28.79v-90.12c.63-.56,1.25-1.12,1.91-1.67,4.41-3.62,9.2-6.51,14.39-8.67,5.19-2.15,10.43-3.23,15.72-3.23,7.83,0,13.7,2.45,17.62,7.34,3.91,4.9,5.87,12.53,5.87,22.91v73.43h28.79v-80.48c0-3.11-.13-6.08-.39-8.88.37-.32.74-.64,1.12-.96,4.6-3.82,9.64-7,15.13-9.55,5.48-2.54,10.87-3.82,16.16-3.82,15.08,0,22.62,10.57,22.62,31.72v44.94c0,11.16,2.25,19,6.76,23.5,4.5,4.5,11.16,6.76,19.97,6.76,7.64,0,14.49-1.57,20.56-4.7l-1.47-16.74Z"/>
    </g>
    <g>
      <path class="cls-2" d="M2331.31,805.6c-2.56-8.92-6.53-15.63-12.86-21.74-15.15-14.63-26.06-32.9-32.43-54.31-7.06-23.75-7.67-48.93-1.83-74.86,3.63-16.11,4.34-32.19,2.17-49.17l-.88-18.33c-.09-1.84-.54-3.71-.99-5.51-.48-1.97-.98-4-1.03-6.06l-.94-42.88c-.11-5.14,1.22-9.76,2.63-14.65.15-.52.3-1.05.45-1.57-2.65-3.42-4.56-7.23-6.4-10.91-1.1-2.19-2.24-4.46-3.52-6.64-1.94-3.28-4.41-6.25-6.79-9.13-2.14-2.58-4.35-5.25-6.21-8.16l-13.69-21.45c-3.06-4.79-6.51-9.87-11.02-14.59-6.04-6.31-11.27-13.63-16.45-23.02-1.75-3.17-4.38-6.29-7.17-9.59-4.73-5.61-10.08-11.95-12.28-20.13-2.13,5.01-4.65,10.28-8.39,15.2l-8.82,11.59c-5.49,13.01-13.2,24.46-23.57,34.97-6.7,12.23-13.75,23.42-21.57,34.21l-6.81,7.95c-3.25,3.8-5,8.26-6.69,12.57-3.02,7.71-8.05,14.32-12.92,20.72l-.48.64c1.89,7.09,2.84,12.41,3.16,17.77l1.84,30.34c.13,2.12-.26,4.27-.63,6.34-.28,1.54-.57,3.13-.63,4.67l-.85,20.44c-.69,16.62,1.14,31.13,5.61,44.34,12.27,36.32,9.38,72.45-8.35,104.51-5.69,10.28-11.03,17.54-17.32,23.57-5.82,5.56-9.75,11.9-12.38,19.93-4.14,12.62-7.04,25.55-8.86,39.52l-8.24,63.11c43,20.84,91.41,32.18,142.45,31.32h0c50.18-.85,97.43-13.4,139.17-35.01l-5.1-39.53c-2.62-20.36-6.36-38.82-11.41-56.43Z"/>
      <path class="cls-2" d="M1964.07,791.66c6.25-16.2,9.22-30.32,9.35-44.46l1.52-164.77-.63-37.24c-.13-7.99,2.89-15.62,8.29-20.95,3.44-3.39,8.33-6.39,13.06-9.3,4.82-2.96,9.81-6.02,13.32-9.51l17.07-16.98,22.52-22.45c1.5-1.5,2.99-2.96,4.47-4.41,3.51-3.44,6.83-6.7,10.18-10.28,2.45-2.61,4.54-5.5,6.57-8.29,1.33-1.83,2.7-3.72,4.18-5.55,2.13-2.63,5.46-4.9,9.31-7.53,3.74-2.55,7.98-5.45,11.76-9.19,8.3-8.22,17.3-16.51,28.3-26.11,4.33-3.77,7.45-8.19,10.75-12.86.7-.99,1.41-1.99,2.13-2.99,2.37-3.28,5.61-5.8,8.75-8.23l.49-.38c3.2-2.49,5.8-5.11,8.13-7.57l10.94-11.55,18.53-24.87,3.44-1.66,5.04-.03c.43.17.87.34,1.3.5,3.32,1.26,6.74,2.57,9.37,6.36,2.94-4.47,7.59-6.78,13.52-6.68l5.42.09.08.09c3.37,3.65,6.4,8.79,9.33,13.77,2.43,4.12,4.72,8.01,6.85,10.34l18.49,20.29,10.1,9.19,11.36,13.89,21.38,19.33,15.07,13.76c2.9,2.65,5.58,4.57,8.44,6.05,3.55,1.84,6.3,4.15,8.91,7.52,5.99,7.7,11.46,13.68,17.22,18.83l25.14,22.49,17.38,16.63c4.01,3.84,8.76,6.75,13.36,9.57l14.62,8.98c8.37,5.14,13.42,14.2,13.49,24.22l.35,46.59,4.98,154.36c.51,15.66,3.92,31.02,10.45,46.96,3.15,7.69,4.7,14.52,4.74,20.89.01,1.66.05,3.32.1,4.99,41.85-54.47,66.25-122.95,65-196.96h0c-2.95-173.81-146.25-312.33-320.06-309.38h0c-173.81,2.95-312.33,146.25-309.38,320.06h0c1.25,73.69,27.73,141.03,71.06,193.94-.02-.84-.04-1.68-.08-2.52-.41-9.24,1.06-18.06,4.49-26.95Z"/>
      <path class="cls-1" d="M2184.28,353.62c-.09-1.38-.8-2.6-1.99-3.46-.01.01-.02.03-.03.04,1.8,1.39,2.33,3.47,1.74,5.37.23-.63.33-1.29.29-1.95Z"/>
      <polygon class="cls-1" points="2419.23 571.85 2419.24 571.72 2419.22 571.72 2419.23 571.85"/>
      <path class="cls-3" d="M2442.85,788.03c-6.3-15.46-9.61-30.64-10.11-46.41l-4.87-151.64-.45-49.25c-.08-8.35-3.54-15.28-10.02-20.04l-14.7-9.22c-5.61-3.52-11.6-7.53-17.37-13.02l-14.76-14.05-25.61-23.01-13.97-13.69-6.03-.88.63-.39c1.17-.74,1.89-.98,3.44-1.36-1.34-2.97-2.99-4.65-5.03-5.14-.83-.2-2.32.85-3.3,1.55-.31.22-.59.42-.81.56l-1.18.73-.18-.21c-.15-.19-.18-1.19.05-1.4l3.76-3.42-5.81-3.96-3.02,3.15-.21-.08c-.33-.16-.2-1.08-.19-1.09l.16-.97.96-2.21-5.04-3.99-12.42-11.7-19.18-16.9-8.09-7.69c-.51-.49-2.08-.63-3.34-.74h-.13c-.05.04-.12.09-.2.09-.05,0-.1-.01-.15-.05-.05-.03-.07-.06-.09-.1h-.16s.17-.28.17-.28h0s.05-.07.05-.07c0-.02.02-.03.03-.04h0s0,0,0,0h0s.42-.65.42-.65l2.12-.54-3.63-4.51c-.52-.65-2.51-.6-3.83-.57l-1.03.03,3.33-1.99-4.2-4.07-2.21.82v-.4c.02-.7.04-1.96-.29-2.3l-9.13-9.35-11.35-11.27-6.13-4.21c-5.16-4.43-9.48-9.42-13.24-15.27-1.32-2.06-.88-4.77-.29-6.98-5.01-.5-9.54,2.49-11.06,7.37-1.48,4.72-1.6,9.45-.36,13.36,5.4-4.28,10.93-5.78,16.44-4.45l.1.05c3.79,2.87,7.16,6.59,10.33,11.35l9.11,11.28,10.02,10.97c1.54,1.68,3.22,3.27,4.86,4.81,2.34,2.2,4.75,4.48,6.78,7.07,7.1,9.08,13.25,16.02,19.92,22.51,2.79,2.71,5.51,5.51,8.14,8.22,4.76,4.9,9.68,9.98,15.06,14.53l12.72,9.32c2.85,2.09,5.02,4.78,7.31,7.63,2.39,2.97,5.1,6.34,9.05,9.57,9.47,7.75,18.03,16.29,26.69,25.09l12.37,12.57-.44,1.57-7.01-5.36-19.99-17.69-18.5-15.86c-3.1,1.37-5.54,1.92-8.66,1.95h-.08c-.59-.18-.92-.33-.89-.64.04-.31.44-.36.85-.37l7.19-2.78-8.54-9.72-5.15,2.39-1.04.6-.2-.16c-.22-.22-.13-.9-.03-1.08.06-.11.55-.69.66-.78l3.67-2.88c.23-.18.4-.32.53-.41-.42-.31-1.43-.91-2.49-1.53-3.06-1.79-7.7-4.5-10.76-7.51l-16.08-15.82-15.36-15.53-7.59-9.22c-3.66-4.44-7.37-8.43-11.31-12.66l-6.37-6.85c-.34-.37-.68-.74-1.02-1.12-1.79-1.97-3.64-4.02-6.08-5.21-8.51-4.16-15.49-9.92-20.75-17.11-1.4-1.91-1.74-4.26-1.05-7.16-6.22-.11-11.53,4.12-12.44,9.95-1.34,8.55-.02,17.01,3.69,23.8,6.03,11.01,13.41,20.77,20.54,30.21,3.48,4.61,6.93,8.59,11.83,13.69l.3-.5c1.11-3.02,2.51-5.08,4.66-7.74l-.05-.09.17-.1.05-.08h.04s.16-.2.16-.2l.18.34v.03s.01,0,.01,0h0c.05.1.31.61.4.78l.06.11-2.89,7.29c-.36.9-.25,3.17.19,3.97,8.01,14.62,17.41,28.16,28.73,41.39l4.2,4.31c.26.27.87.57,1.25.54.05,0,.12-.02.15-.06l3.44-4.79c.23-.33,1.35-.16,1.55-.03.17.12.18.31.11.43l-.56.9c-1.16,1.86-2.47,3.96-2.21,6.13.19,1.54,1.67,3.63,2.99,4.7.52-.92.97-1.84,1.39-2.73,1.29-2.67,2.5-5.2,5.54-6.84l.71-.39-3.62,7.98c-.79,1.75-1.55,4.98-.76,6.7,3.08,6.67,5.86,11.25,9.3,15.3l15.41,18.18c4.9,5.78,10.84,10.77,17.16,14.43,3.04,1.31,6.35.69,9.84.02,1.82-.35,3.7-.7,5.54-.76l.76-.02-.58.5c-3.7,3.23-8.78,4.56-15.54,4.06-1.56,8.69.65,17.94,6.59,27.51l3.48-7.5.05-.04c.57-.44.94-.23,1.07-.11.33.28.36.89.1,1.39-2.14,7.88-4.19,19.15,2.44,26.4,5.65-3.23,10.86-4.4,16.38-3.67.26.07.93.25.85.7-.08.47-.92.55-1.42.51-10.96,2-17.35,7.82-18.47,16.84l-2.63,21.28-6.85,38.93c-3.2,18.18-4.45,35.8-3.84,53.88l.08,2.26-.61-2.18c-2.53-9-3.17-18.69-1.96-29.63l3.33-30.09,7.49-52.6c.7-4.91,1.3-9.12,4.13-13.16-3.82-4.01-5.54-9.43-5.42-17.03-3.65-6.19-6.32-12.14-8.18-18.18-1.46-5.49-1.61-10.68-.48-15.86-7.87-5.75-14.91-12.32-22.14-20.66-6.48-7.47-13.18-15.2-18.08-24.41-3.24-6.09-7.03-11.28-11.93-16.34-7.45-7.7-13.51-15.21-18.51-22.97l-14.62-22.68c-1.38-2.14-3.09-3.95-4.9-5.86-1.2-1.27-2.44-2.58-3.56-3.98-8.23-10.31-15.66-20.89-24.26-33.56,2.09,6.47,5.45,12.25,10.51,18.12.62.71,1.25,1.42,1.9,2.13,2.11,2.33,4.28,4.74,5.78,7.53,4.88,9.13,9.96,16.36,16.01,22.76,5.48,5.8,9.31,10.88,12.44,16.47,4.09,7.31,8.72,14.32,14.58,22.05l11.52,15.21,8.39,15.4,15.85,21.24,15.48,18.04c1.59,1.86,3.61,4.72,2.76,8.14-1.57,6.29-.68,12.26,2.63,17.74,2,3.31,1.96,6.24,1.92,8.82-.03,2.07-.05,3.85.99,5.38,2.06,3.02,3.35,5.89,2.93,10.08-.28,2.8.5,4.78,1.18,6.52.99,2.53,1.85,4.72-1.14,8.12-2.81,3.21-5.99,4.91-9.35,6.71-3.56,1.91-7.25,3.88-10.66,7.85-3.77,4.37-6.44,9.12-9.27,14.14-.72,1.28-1.45,2.58-2.21,3.89l-.61,1.05.1-1.21c.23-2.71,1.2-5.06,2.14-7.33.18-.44.36-.88.54-1.32,2.8-7.01,6.8-12.59,12.24-17.06l.06-.04c.15-.06.23-.12.27-.15-.13-.07-.48-.15-.9-.09-4.48,1.3-7.88,2.59-11.71,4.45l-.29.14-.32-1.16,2.92-1.79c5.29-3.24,11.75-6.62,19.59-7.13l5.11-5.82c-2.26-2.68-2.33-5.88-2.4-8.97-.03-1.52-.06-2.96-.34-4.34-.4-.9-.85-1.81-1.29-2.69-1.81-3.66-3.69-7.44-2.85-11.94l-20.75,4.45v-1.25s13.59-4.68,13.59-4.68c-2.62-.55-5.36-.36-7.74-.09l-8.32.95,1.38-1.41c6.64-2.89,13.7-3.06,19.79-2.8-3.42-6.19-2.86-12.43-2.45-17.01.24-2.68.43-4.81-.35-5.72l-13.25-15.61-13.72-17.43c-1.37,4.02-1.98,7.37-1.92,10.5l.74,40.26c.08,4.25.81,8.14,1.58,12.26.27,1.46.56,2.97.81,4.5.3,1.79.17,3.76.05,5.66-.09,1.43-.19,2.9-.1,4.28l1.85,28.79c.12,9.03-1.02,18.3-3.58,29.19-6.41,27.23-4.65,55.19,5.08,80.86,6.62,17.47,16.91,32.71,30.57,45.31,4.06,3.74,7.22,8.76,9.4,14.9,3.24,9.12,5.68,18.27,7.69,28.79,4.44,23.27,7.89,47.35,10.4,72.79,37.2-20.02,69.87-47.28,96.16-79.88-.11-2-.18-4.01-.22-6.04-.16-8.77-1.8-16.56-5.35-25.25ZM2367.99,782.49c-5.16,2.84-10.43,4.27-15.45,4.32-6.99.07-13.48-2.53-18.49-7.71-4.41-4.57-7.78-11.87-9.01-19.54l-.26-1.65,6.19,11.83c3.94,7.53,13.07,14.97,22.25,13.92l15.97-1.83-1.21.67ZM2420.22,546.76l-.92,24.96h-.06s0,.13,0,.13v-.12s-.48.01-.48.01l-2.2-26.18c-.73-8.65-6.28-16.71-15.23-22.1-.93-.56-1.87-1.12-2.81-1.67-5.96-3.51-12.12-7.14-16.53-13.16l-.76-1.04,23.67,13.59c7.73,4.44,15.73,14.92,15.33,25.59Z"/>
      <path class="cls-3" d="M2071.13,830.45c1.77-10.21,4.03-19.55,7.12-29.4,2.52-8.06,5.73-13.86,10.07-18.27,9.34-9.47,15.74-17.89,20.76-27.28,10.33-19.34,15.26-39.86,14.64-60.99-.35-11.87-2.65-23.81-7.45-38.72-4.97-15.42-6.79-30.82-5.57-47.1l.58-18.32c.05-1.63.4-3.3.75-4.92.42-1.98.85-4.04.73-6.01l-2.07-33.35c-.2-3.26-.85-6.3-2.22-10.39l-18.87,24.69-.04,10.36c-.01,3.77-1.12,7.28-3.48,11,7.92-.48,14.48-.07,20.58,3.25l1.11.61-16.57-1.24-.09.44,13.22,5.75-20.5-3.28c-.1,3.04-.75,5.96-1.94,8.69-1.33,3.05-1.91,6.08-2.52,9.29l-1.35,7.03,4.42,6.24c9.2,1.09,16.61,4.04,22.64,9.01l1.07.88-11.65-3.61c6.01,5.65,10,11.65,12.86,19.29.16.44.4.86.66,1.32.69,1.23,1.47,2.63.58,4.31l-.24.46-.24-.47c-3.04-5.94-6.59-12.2-11.88-17.76-3.23-3.39-7.18-5.48-10.96-7.24l-7.18-3.33,9.91,60.77c1.76,10.79,1.72,21.69-.11,35.36.05.14.1.33-.11.43-.26.13-.29.06-.84-.99l-.03-.06v-.06c-.17-19.36-1.52-34.3-4.37-48.44l-9.88-49.07-1.85-14.75c-.66-5.25-3.95-9.8-9.28-12.81-1.95-1.1-4.08-1.68-6.34-2.29-1.47-.4-2.99-.81-4.59-1.39l-.86-.32.9-.21c5.02-1.16,10.21-.29,16.8,2.8,6.11-8.69,3.24-21.28.54-30.02l-.39-1.25.85.99c2.15,2.49,3.42,5.03,4.89,7.96.22.43.44.87.67,1.32,5.3-10.13,6.66-18.54,4.14-25.69-5.77.24-10.15-1.21-13.02-4.32l-.62-.67.88.22c13.1,3.25,15.69.76,24.28-7.52l.7-.67c10.9-10.48,20.63-23.08,29.74-38.52,3.2-5.42-.2-11.53-3.2-16.91l-.55-.99.94.63c3.54,2.37,5.41,5.9,7.11,9.63,1.71-1.49,3.68-3.67,2.88-6.17-.43-1.36-1.25-2.65-2.12-4.03-.36-.57-.74-1.16-1.09-1.78l-.31-.53.6.12c3,.62,4.13,2.62,5.69,5.38l.04.07,5.37-5.77,14.4-19.52c4.14-5.61,7.69-11.7,11.53-19.76,1.81-3.79.02-7.36-2.04-11.49-.57-1.15-1.17-2.34-1.69-3.56l-.39-.9.8.57c3.29,2.37,4.85,5.7,6.49,9.22.22.48.45.96.68,1.45,11.31-13.15,21.44-27.39,30.1-42.32,2.66-4.59,3.57-9.62,4.28-14.37.95-6.4-.28-11.95-3.55-16.05-2.54-3.19-6.16-4.73-9.71-4.17.4,1.56.87,4.08.21,5.38-4.39,8.62-11.74,13.06-19.52,17.77-.84.51-1.69,1.02-2.53,1.54-3.81,3.28-7.37,7.21-10.81,11.01-2.36,2.6-4.8,5.29-7.31,7.77l-10.38,13.11-13.14,14.14c-1.2,1.29-2.37,2.58-3.54,3.86-4.51,4.94-8.77,9.61-13.81,13.88l-7.54,6.38c.77.94,1.39,1.81,2.13,3.44l.48,1.06-3.92-3.22c-3.03,1.42-6.23,3.66-8.67,6.05,2.84,1.66,4.92,2.89,7.42,4.98l1.11.92-10.45-3.48-5.41,7.19,9.3,3.21-.96.21c-3.37.72-6.54.15-10.54-1l-15.27,13.67-18.18,16.88c-.7.65-1.38,1.3-2.07,1.95-3.57,3.39-6.94,6.59-11.56,9.06l-1.38.74,15.88-17.61c4.36-4.84,8.75-9.12,12.47-12.66l8.57-8.18c7.22-6.07,12.01-11.14,16.02-16.96,2.23-3.24,5.81-5.67,9.59-8.25,3.35-2.28,6.82-4.64,9.97-7.87l13.93-14.3,12.74-13.43,14.37-17.5,10.39-11.11c6.28-6.72,11.46-12.4,16.28-19.24,3.91-5.55,7.44-9.66,11.46-13.31l.06-.05h.08c8.26-1.55,13.65.11,17.87,5.53l.74-10.57c.24-3.51-.97-6.81-3.34-9.07-2.08-1.98-4.85-2.92-7.84-2.65.72,2.16,1.14,5.04-.61,7.15-.74.9-1.48,1.82-2.22,2.74-3.51,4.38-7.15,8.91-11.9,11.93-5.78,3.67-10.94,7.14-15.46,12.36-4.22,4.87-9.3,9.12-13.31,12.31l3.15,3.34-5.13-1.74-4.35,4.75,4,2.37-.83.08c-.44.04-.91.06-1.39.08-1.54.07-3.14.14-3.79.91-1.07,1.26-2.05,2.55-2.99,3.79-1.86,2.45-3.62,4.77-5.99,6.84-10.97,9.62-21.68,19.12-32.1,29.62-2.92,2.94-6.26,5.08-9.8,7.35l-.98.63c1.7,1.47,3.21,3.12,3.16,5.15v.52s-.43-.3-.43-.3c-.44-.32-.9-.75-1.38-1.2-1.17-1.1-2.5-2.35-3.79-2.04-2.6.64-4.39,3-5.97,5.09-.24.31-.47.62-.7.91l6.32,2.34-1.1.14c-1.18.15-2.28.12-3.24.1-1.19-.03-2.22-.06-3.19.22-1.53.44-2.41,1.87-3.27,3.26-.48.78-.98,1.58-1.58,2.2l-22.14,22.37-30.91,31.32c-4.49,4.54-9.02,8.21-14.28,11.55-1.52.96-3,1.87-4.43,2.75-11.3,6.93-19.47,11.94-19.28,27.1l.48,38.3-1.32,160.78c-.07,8.57-.36,17.66-3.04,26.4l-7.18,23.45c-1.73,5.66-3.52,11.51-3.46,17.68.05,4.8-.05,9.5-.31,14.17,26.95,31.34,59.95,57.3,97.16,76.08l.27-4.33c2.36-23.94,5.35-46.26,9.16-68.25ZM2025.81,511c-5.17,6.12-11.22,9.97-17.62,14.04-.83.53-1.67,1.06-2.51,1.6-5.11,3.29-13.75,10.44-14.3,21.38l-1.36,27.13h-1.27s-.01-.25-.01-.25l-1.31-22.47c-.69-11.85,5.36-22.71,16.2-29.05l23.23-13.6-1.03,1.22ZM2046.12,785.61l-1.23-.59,16.28.82c7.48.38,13.44-4.55,17.13-8.74,3.96-4.5,6.31-9.77,8.8-15.35l1.2-2.68-.14,1.62c-.75,8.52-5.11,17.32-11.1,22.42-4.68,3.99-10.17,6.02-16.12,6.08-4.71.05-9.7-1.14-14.81-3.58Z"/>
      <path class="cls-3" d="M2156.49,450.87c-4.77,8.12-11.7,16.44-17.82,23.77-5.3,6.36-9.88,11.85-12.27,16.17-8.32,15.03-17.25,27.32-27.3,37.58l-5.2,5.31-10.95,9.72c2.17,12.96-1.87,22.17-7.37,32.83l-.52,8.13c-.22,3.39-2.26,6.34-4.08,8.95,1.67,2.28,2.98,4.64,4.17,7.55.61-2.91,1.37-5.24,2.95-7.5.79-1.98.81-3.72.83-5.41.02-2.25.05-4.57,1.9-7.41,3.65-5.59,5.06-11.62,3.99-17-.71-3.55-.12-6.15,1.91-8.45,9.47-10.72,17.88-21.89,25.56-32.37,3.58-4.89,8.03-11.52,10.69-19.43,1.73-5.16,4.7-8.53,8.14-12.43l.28-.32c8.83-10.01,15.53-21.31,22.76-33.97,2.63-4.61,5.4-8.31,9.25-12.38,6.57-6.94,11.06-15.17,14.92-23.03,2.08-4.22,4.51-7.95,7.89-12.1l.93-1.13c3.36-4.09,6.82-8.3,8.2-13.69l-17.8,25.92-10.64,12.92-10.42,17.75Z"/>
      <path class="cls-3" d="M2182.26,350.19c-5.92,6.97-10.52,13.29-14.41,19.79,5.82-2.5,10.03-6.65,14.5-12.08l.03-.03c.76-.66,1.3-1.46,1.61-2.31.59-1.9.06-3.98-1.74-5.37Z"/>
      <path class="cls-3" d="M2236.11,369.33l-9.3-13.3-6.01-6.38c-1.8,2.1-1.78,4.29.08,6.68,4.33,5.57,8.76,10.76,15.24,13Z"/>
      <path class="cls-3" d="M2185.81,330.03l-14.09,20.48c3.83-1.76,6.33-4.51,8.96-7.4.47-.52.95-1.05,1.44-1.57l4.52-6.11c.19-.26.34-.55.45-.85.45-1.51,0-3.32-1.28-4.54Z"/>
      <path class="cls-3" d="M2222.14,340.25c2.63,3.61,5.34,7.33,9.07,9.43-3.15-6.64-6.88-12.18-10.48-17.54-.5-.74-.99-1.48-1.49-2.22-1.84,2.92-.55,5.74.89,7.62.68.89,1.36,1.82,2.01,2.72Z"/>
      <path d="M2341.81,826.6c-1.91-10.01-4.32-19.27-7.68-28.75-1.97-5.56-4.97-10.77-9.33-14.79-13.72-12.65-24.01-27.94-30.64-45.41-9.9-26.12-11.48-53.88-5.09-81.02,2.27-9.64,3.71-19.22,3.58-29.11l-1.85-28.79c-.21-3.22.57-6.8.05-9.91-.94-5.71-2.29-10.97-2.4-16.79l-.74-40.26c-.07-3.92.93-7.72,2.1-11.07l14.02,17.81,13.25,15.61c2.26,2.66-2.79,13.15,3.07,23.21-6.82-.32-13.73-.04-20.16,2.76l-.77.81,7.57-.87c3.01-.34,5.95-.47,8.74.31l-14.27,4.92v.71s20.82-4.47,20.82-4.47c-1.25,5.68,1.95,10.18,4.06,14.9.88,4.33-.64,9.48,2.84,13.4l-5.34,6.09c-7.34.45-13.55,3.41-19.57,7.1l-2.74,1.68.18.64c4.01-1.94,7.42-3.21,11.79-4.47.93-.13,1.82.31.78.77-5.72,4.71-9.52,10.35-12.16,16.95-1.1,2.75-2.39,5.39-2.66,8.57,3.73-6.43,6.76-12.55,11.51-18.07,6.62-7.69,14.21-7.94,20.01-14.56,4.88-5.56-.81-7.52-.11-14.49.4-3.97-.72-6.72-2.89-9.9-2.42-3.54.65-8.31-2.92-14.21-3.39-5.61-4.21-11.75-2.66-17.95.76-3.04-.83-5.71-2.7-7.9l-15.49-18.05-15.87-21.28-8.37-15.36-11.52-15.21c-5.41-7.14-10.22-14.26-14.6-22.08-3.44-6.16-7.6-11.33-12.4-16.42-6.57-6.95-11.58-14.45-16.05-22.81-1.93-3.6-5-6.56-7.64-9.61-4.83-5.6-8.49-11.49-10.75-18.8.02-.7.16-.96.48.06,7.94,11.71,15.71,22.89,24.44,33.83,2.75,3.45,6.13,6.23,8.47,9.87l14.62,22.68c5.38,8.35,11.56,15.78,18.47,22.92,4.88,5.04,8.66,10.18,11.97,16.4,4.82,9.06,11.34,16.63,18.04,24.36,6.77,7.81,13.87,14.63,22.24,20.73-1.23,5.47-.97,10.62.43,15.9,1.98,6.43,4.74,12.33,8.19,18.18-.11,6.31,1,12.47,5.5,17.07-2.92,4.06-3.52,8.38-4.21,13.23l-7.49,52.59-3.33,30.09c-1.11,10.01-.74,19.95,1.95,29.53-.63-18.45.68-35.97,3.84-53.94l6.85-38.92,2.63-21.28c1.25-10.1,8.7-15.26,18.72-17.08.99.08,1.76-.34.55-.66-6.09-.8-11.37.84-16.4,3.75-6.62-7.05-5.12-17.71-2.64-26.85.38-.67.07-1.59-.74-.96l-3.66,7.9c-5.25-8.31-8.78-18.14-6.85-28.37,5.6.44,11.27-.21,15.58-3.97-5.28.16-10.72,2.78-15.53.7-6.46-3.74-12.41-8.81-17.23-14.49l-15.41-18.18c-3.94-4.64-6.75-9.75-9.34-15.37-.84-1.82-.02-5.19.76-6.92l3.29-7.25c-4.04,2.18-4.74,5.91-6.98,9.74-1.48-1.08-3.14-3.39-3.34-5.07-.27-2.25,1.04-4.37,2.25-6.31l.56-.9c.1-.16-1.09-.26-1.2-.1l-3.44,4.79c-.31.43-1.41-.03-1.82-.45l-4.21-4.32c-11.02-12.88-20.59-26.53-28.76-41.44-.5-.91-.58-3.25-.2-4.2l2.85-7.17c-.09-.17-.36-.68-.4-.77-2.29,2.82-3.64,4.84-4.75,7.85l-.49.81c-4.59-4.76-8.29-8.93-12.1-13.97-7.41-9.8-14.62-19.39-20.56-30.25-3.98-7.27-4.98-15.95-3.72-23.97,1.01-6.44,7.02-10.42,13.06-10.17-.71,2.72-.59,5.19.92,7.26,5.43,7.42,12.41,12.99,20.65,17.02,2.95,1.44,5,4.05,7.18,6.39l5.82,6.26c4.09,4.4,8.03,8.61,11.87,13.26l7.58,9.2,15.36,15.53,16.08,15.82c4.61,4.53,13,8.49,13.48,9.26,0,0-.52.4-.78.6l-3.67,2.88c-.08.07-.55.62-.6.71-.09.14-.1.84.04.75l.88-.5,5.34-2.48,8.93,10.17-7.6,2.94c-.89.02-.82.22.05.46,3.28-.03,5.68-.64,8.71-2l18.63,15.97,19.98,17.68,6.68,5.12.29-1.03-12.26-12.46c-8.64-8.78-17.14-17.27-26.67-25.07-7.74-6.34-10.55-12.94-16.35-17.19l-12.73-9.33c-8.34-7.08-15.36-15.14-23.21-22.77-7.37-7.16-13.63-14.45-19.95-22.53-3.43-4.39-7.89-7.78-11.63-11.87l-10.03-10.98-9.13-11.3c-2.87-4.31-6.14-8.15-10.27-11.28-5.91-1.42-11.44.52-16.51,4.65-1.48-4.32-1.19-9.33.24-13.9,1.56-4.98,6.26-8.22,11.67-7.53-.66,2.37-1.1,5.08.17,7.06,3.71,5.78,7.97,10.74,13.16,15.19l6.16,4.24,11.35,11.27,9.13,9.35c.42.43.39,1.68.37,2.49l2-.74,4.58,4.44-2.74,1.64c1.53-.04,3.46-.07,4.05.67l3.9,4.84-2.42.62c-.07.11-.26.4-.36.56,1.46.13,3.17.25,3.79.84l8.08,7.68,19.18,16.91,12.4,11.69,5.21,4.12-1.05,2.4-.14.9c-.03.16-.04.91.08.79l.89-.93,2.15-2.25,2.41,1.64,3.87,2.64-4.01,3.65c-.11.1-.11,1.12.02,1.04l.97-.6c1.01-.63,3.1-2.44,4.32-2.14,2.88.69,4.49,3.61,5.34,5.59-1.73.42-2.45.63-3.68,1.4l5.39.78,14.02,13.75,25.62,23.01,14.76,14.05c5.35,5.09,11.03,9.04,17.32,12.99l14.72,9.23c6.65,4.88,10.05,11.94,10.13,20.26l.45,49.25,4.87,151.64c.52,16.26,4.04,31.46,10.09,46.32,3.41,8.37,5.21,16.28,5.37,25.35.03,1.8.1,3.58.18,5.36,1.41-1.75,2.79-3.52,4.16-5.3-.05-1.67-.09-3.33-.1-4.99-.04-6.36-1.6-13.19-4.74-20.89-6.53-15.95-9.95-31.31-10.45-46.96l-4.98-154.36-.35-46.59c-.08-10.03-5.12-19.08-13.49-24.22l-14.62-8.98c-4.6-2.82-9.35-5.73-13.36-9.57l-17.38-16.63-25.14-22.49c-5.76-5.15-11.23-11.13-17.22-18.83-2.62-3.36-5.36-5.68-8.91-7.52-2.86-1.48-5.54-3.4-8.44-6.05l-15.07-13.76-21.38-19.33-11.36-13.89-10.1-9.19-18.49-20.29c-2.13-2.33-4.42-6.22-6.85-10.34-2.93-4.97-5.96-10.11-9.33-13.77l-.08-.09-5.42-.09c-5.93-.1-10.57,2.21-13.52,6.68-2.63-3.8-6.06-5.1-9.37-6.36-.44-.17-.87-.33-1.3-.5l-5.04.03-3.44,1.66-18.53,24.87-10.94,11.55c-2.33,2.46-4.93,5.09-8.13,7.57l-.49.38c-3.13,2.44-6.38,4.96-8.75,8.23-.72,1-1.43,2-2.13,2.99-3.3,4.67-6.43,9.09-10.75,12.86-11,9.6-20,17.9-28.3,26.11-3.78,3.74-8.02,6.63-11.76,9.19-3.86,2.63-7.19,4.9-9.31,7.53-1.48,1.83-2.85,3.72-4.18,5.55-2.03,2.79-4.12,5.68-6.57,8.29-3.36,3.59-6.67,6.84-10.18,10.28-1.48,1.45-2.97,2.91-4.47,4.41l-22.52,22.45-17.07,16.98c-3.51,3.49-8.5,6.55-13.32,9.51-4.73,2.9-9.63,5.9-13.06,9.3-5.4,5.33-8.43,12.97-8.29,20.95l.63,37.24-1.52,164.77c-.13,14.14-3.1,28.26-9.35,44.46-3.43,8.89-4.9,17.7-4.49,26.95.04.84.06,1.68.08,2.52,1.59,1.94,3.2,3.86,4.83,5.76.25-4.6.35-9.23.3-13.97-.06-6.17,1.7-11.97,3.47-17.76l7.18-23.45c2.6-8.47,2.95-17.3,3.03-26.32l1.32-160.78-.48-38.3c-.22-17.24,10.24-21.47,23.83-30.09,5.31-3.36,9.81-7.02,14.24-11.51l30.91-31.32,22.14-22.37c1.65-1.66,2.45-4.8,4.97-5.53,1.85-.53,3.91,0,6.48-.32l-5.63-2.09c1.82-2.26,3.82-5.6,7.05-6.39,1.98-.49,3.84,2.16,5.4,3.28.04-2.04-1.57-3.68-3.35-5.17,4.04-2.6,7.79-4.87,11.04-8.14,10.36-10.43,21.07-19.95,32.11-29.63,3.56-3.12,5.82-6.9,8.95-10.6.94-1.11,3.48-.91,5.36-1.09l-3.57-2.11,4.7-5.13,4.26,1.44-2.6-2.76c4.69-3.72,9.47-7.8,13.5-12.46,4.57-5.27,9.69-8.7,15.52-12.41,5.71-3.63,9.78-9.44,14.06-14.61,1.65-1.99,1.31-4.82.45-7.21,7.25-.86,12.3,5.14,11.82,11.97l-.79,11.3c-4.68-6.44-10.57-7.41-18.04-6.02-4.43,4.03-8,8.4-11.42,13.27-4.94,7.02-10.45,13.01-16.3,19.27l-10.38,11.1-14.38,17.52-12.74,13.43-13.93,14.3c-6.83,7.01-15.42,10.12-19.53,16.08-4.59,6.66-9.92,11.84-16.06,17.01l-8.57,8.18c-4.32,4.13-8.44,8.2-12.45,12.65l-14.83,16.45c5.48-2.93,9.3-7,13.56-10.96l18.18-16.88,15.39-13.77c3.66,1.07,7.02,1.79,10.55,1.04l-8.73-3.01,5.75-7.64,9.27,3.08c-2.57-2.15-4.67-3.36-7.69-5.13,2.52-2.54,5.89-4.92,9.15-6.43l3.15,2.59c-.75-1.67-1.37-2.5-2.26-3.58l7.74-6.56c6.37-5.39,11.64-11.59,17.33-17.72l13.12-14.12,10.4-13.13c6.2-6.11,11.69-13.24,18.17-18.83,8.44-5.18,17.12-9.7,21.95-19.2.6-1.18.2-3.59-.31-5.47,3.87-.74,7.68.99,10.26,4.22,3.64,4.56,4.47,10.42,3.6,16.26-.76,5.1-1.68,9.93-4.31,14.47-8.83,15.21-18.93,29.38-30.41,42.68-2.07-4.28-3.49-8.23-7.27-10.95,2.37,5.52,6.12,10.25,3.73,15.27-3.36,7.05-6.93,13.54-11.56,19.81l-14.41,19.54-5.62,6.05c-1.67-2.94-2.71-5.01-5.73-5.64,1.21,2.08,2.61,3.89,3.24,5.86.86,2.7-1.27,5.03-3.24,6.7-1.69-3.73-3.52-7.4-7.17-9.85,3.15,5.66,6.42,11.72,3.19,17.18-8.35,14.14-17.96,27.2-29.79,38.58-9.23,8.88-11.64,11.64-25.23,8.26,3.18,3.44,7.91,4.46,13,4.22,3.21,8.85,0,18.44-4.34,26.56-1.86-3.62-3.2-6.73-5.76-9.69,3.11,10.05,5.36,22.04-.71,30.44-5.52-2.62-11.1-4.21-16.83-2.88,4.1,1.49,7.73,1.87,10.97,3.7,4.97,2.81,8.7,7.33,9.41,13.01l1.84,14.73,9.88,49.07c3.25,16.12,4.23,32.06,4.37,48.5.23.44.62,1.18.42.73,1.63-12.08,2.07-23.44.13-35.35l-9.99-61.27,7.65,3.55c4.13,1.92,7.89,3.99,11.04,7.3,4.98,5.23,8.48,11.1,11.93,17.82,1.12-2.12-.61-3.71-1.25-5.41-2.93-7.81-7.15-14.1-13.68-20.01l11.47,3.56c-6.64-5.47-14.38-8-22.62-8.96l-4.56-6.44,1.27-6.63c.66-3.46,1.23-6.62,2.64-9.86,1.25-2.88,1.87-5.91,1.93-8.9l18.67,2.99-11.45-4.97.18-.9,15.55,1.17c-6.51-3.55-13.71-3.65-20.97-3.18,2.41-3.67,3.71-7.29,3.73-11.31l.04-10.45,19.23-25.17c1.37,4.02,2.16,7.25,2.39,10.95l2.07,33.35c.23,3.63-1.36,7.36-1.47,10.96l-.58,18.33c-1.21,16.07.59,31.61,5.56,47,4.11,12.74,7.07,25.26,7.47,38.79.63,21.49-4.61,42.29-14.67,61.13-5.55,10.39-12.6,19.02-20.81,27.35-4.95,5.02-7.92,11.48-10.01,18.16-3.06,9.77-5.35,19.2-7.11,29.36-3.95,22.76-6.89,45.13-9.16,68.22l-.28,4.41c1.34.67,2.68,1.33,4.03,1.99l8.24-63.11c1.82-13.97,4.72-26.9,8.86-39.52,2.63-8.03,6.57-14.36,12.38-19.93,6.29-6.02,11.64-13.29,17.32-23.57,17.74-32.05,20.62-68.19,8.35-104.51-4.46-13.21-6.3-27.72-5.61-44.34l.85-20.44c.06-1.54.35-3.13.63-4.67.38-2.08.76-4.23.63-6.34l-1.84-30.34c-.33-5.36-1.27-10.68-3.16-17.77l.48-.64c4.86-6.39,9.89-13,12.92-20.72,1.69-4.31,3.44-8.77,6.69-12.57l6.81-7.95c7.82-10.79,14.88-21.98,21.57-34.21,10.37-10.52,18.08-21.96,23.57-34.97l8.82-11.59c3.74-4.91,6.25-10.19,8.39-15.2,2.19,8.19,7.54,14.52,12.28,20.13,2.79,3.3,5.42,6.42,7.17,9.59,5.18,9.39,10.4,16.71,16.45,23.02,4.51,4.72,7.96,9.8,11.02,14.59l13.69,21.45c1.86,2.91,4.07,5.58,6.21,8.16,2.38,2.87,4.85,5.84,6.79,9.13,1.28,2.17,2.42,4.44,3.52,6.64,1.84,3.68,3.75,7.49,6.4,10.91-.15.53-.3,1.05-.45,1.57-1.41,4.89-2.74,9.51-2.63,14.65l.94,42.88c.04,2.06.54,4.1,1.03,6.06.44,1.8.9,3.67.99,5.51l.88,18.33c2.17,16.98,1.46,33.06-2.17,49.17-5.85,25.92-5.23,51.11,1.83,74.86,6.36,21.41,17.27,39.69,32.43,54.31,6.33,6.12,10.3,12.82,12.86,21.74,5.05,17.62,8.79,36.08,11.41,56.43l5.1,39.53c1.46-.76,2.92-1.53,4.37-2.31-2.41-24.33-5.77-48.51-10.38-72.64ZM2221,349.38l6.24,6.62,9.77,13.97c-7.13-2.16-11.81-7.76-16.14-13.35-1.78-2.29-2.16-4.76.13-7.25ZM2219.45,329.56c4.39,6.59,8.84,12.84,12.56,20.87-5.12-2.5-8.28-7.89-11.89-12.6-1.84-2.41-2.75-5.36-.67-8.27ZM2186.52,335.73l-4.54,6.14c-3.42,3.66-6.25,7.36-11.36,9.41l14.83-21.55c.13.1.24.2.36.31l.03-.05c1.33,1.19,1.81,3.07,1.25,4.59-.12.41-.31.8-.57,1.16ZM2182.22,358.22c-4.29,5.2-8.84,9.88-15.36,12.47,4.45-7.57,9.5-14.25,15.05-20.76.12.08.24.17.35.26.01-.01.02-.03.03-.04,1.2.87,1.9,2.09,1.99,3.46.04.66-.06,1.32-.29,1.95-.3.98-.9,1.9-1.77,2.66ZM2186.64,409.41c-3.13,3.83-5.65,7.55-7.86,12.05-4.08,8.29-8.56,16.33-14.97,23.1-3.68,3.89-6.51,7.6-9.21,12.32-6.8,11.91-13.72,23.71-22.79,34.01-3.59,4.08-6.61,7.41-8.38,12.66-2.41,7.17-6.24,13.38-10.72,19.5-8.22,11.22-16.4,22.02-25.58,32.39-2.15,2.43-2.48,5.07-1.85,8.22,1.2,6.03-.72,12.11-4.03,17.2-3.2,4.9-.82,8.1-2.72,12.8-1.77,2.53-2.49,5.16-3.1,8.32-1.23-3.2-2.6-5.83-4.59-8.5,1.86-2.65,3.93-5.59,4.15-8.97l.52-8.19c5.77-11.17,9.51-20.22,7.35-32.86l11.05-9.81,5.2-5.31c10.99-11.21,19.67-23.81,27.26-37.52,5.24-9.47,21.31-24.98,30.1-39.95l10.44-17.79,10.63-12.9,18.59-27.07c-1.22,6.63-5.49,11.4-9.48,16.3Z"/>
      <path d="M2443.31,788.06c-6.05-14.86-9.57-30.06-10.09-46.32l-4.87-151.64-.45-49.25c-.08-8.32-3.48-15.37-10.13-20.26l-14.72-9.23c-6.3-3.95-11.97-7.89-17.32-12.99l-14.76-14.05-25.62-23.01-14.02-13.75-5.39-.78c1.22-.77,1.95-.98,3.68-1.4-.86-1.98-2.46-4.9-5.34-5.59-1.22-.29-3.31,1.51-4.32,2.14l-.97.6c-.12.08-.12-.94-.02-1.04l4.01-3.65-3.87-2.64-2.41-1.64-2.15,2.25-.89.93c-.11.12-.1-.63-.08-.79l.14-.9,1.05-2.4-5.21-4.12-12.4-11.69-19.18-16.91-8.08-7.68c-.62-.59-2.33-.71-3.79-.84.1-.16.29-.45.36-.56l2.42-.62-3.9-4.84c-.6-.74-2.53-.71-4.05-.67l2.74-1.64-4.58-4.44-2,.74c.02-.82.04-2.06-.37-2.49l-9.13-9.35-11.35-11.27-6.16-4.24c-5.19-4.45-9.45-9.42-13.16-15.19-1.27-1.98-.83-4.69-.17-7.06-5.41-.7-10.11,2.55-11.67,7.53-1.43,4.57-1.72,9.58-.24,13.9,5.07-4.12,10.61-6.07,16.51-4.65,4.13,3.14,7.4,6.97,10.27,11.28l9.13,11.3,10.03,10.98c3.74,4.09,8.19,7.48,11.63,11.87,6.32,8.08,12.58,15.37,19.95,22.53,7.85,7.63,14.87,15.69,23.21,22.77l12.73,9.33c5.8,4.25,8.61,10.85,16.35,17.19,9.53,7.79,18.03,16.29,26.67,25.07l12.26,12.46-.29,1.03-6.68-5.12-19.98-17.68-18.63-15.97c-3.04,1.36-5.44,1.96-8.71,2-.87-.25-.94-.45-.05-.46l7.6-2.94-8.93-10.17-5.34,2.48-.88.5c-.15.08-.13-.61-.04-.75.05-.09.51-.64.6-.71l3.67-2.88c.26-.2.78-.61.78-.6-.48-.77-8.87-4.73-13.48-9.26l-16.08-15.82-15.36-15.53-7.58-9.2c-3.83-4.66-7.77-8.86-11.87-13.26l-5.82-6.26c-2.18-2.34-4.23-4.94-7.18-6.39-8.25-4.03-15.22-9.6-20.65-17.02-1.51-2.07-1.64-4.54-.92-7.26-6.04-.25-12.05,3.73-13.06,10.17-1.25,8.02-.25,16.7,3.72,23.97,5.94,10.86,13.15,20.44,20.56,30.25,3.81,5.04,7.51,9.21,12.1,13.97l.49-.81c1.11-3.01,2.46-5.03,4.75-7.85.05.09.31.6.4.77l-2.85,7.17c-.38.95-.3,3.29.2,4.2,8.17,14.91,17.74,28.56,28.76,41.44l4.21,4.32c.41.42,1.51.88,1.82.45l3.44-4.79c.11-.15,1.3-.06,1.2.1l-.56.9c-1.21,1.94-2.52,4.07-2.25,6.31.2,1.68,1.86,4,3.34,5.07,2.24-3.83,2.94-7.55,6.98-9.74l-3.29,7.25c-.79,1.73-1.6,5.1-.76,6.92,2.59,5.62,5.4,10.72,9.34,15.37l15.41,18.18c4.82,5.68,10.77,10.75,17.23,14.49,4.81,2.08,10.26-.54,15.53-.7-4.31,3.76-9.99,4.42-15.58,3.97-1.92,10.22,1.61,20.06,6.85,28.37l3.66-7.9c.81-.62,1.12.29.74.96-2.48,9.14-3.98,19.8,2.64,26.85,5.02-2.91,10.31-4.55,16.4-3.75,1.21.32.44.74-.55.66-10.02,1.82-17.47,6.98-18.72,17.08l-2.63,21.28-6.85,38.92c-3.16,17.97-4.47,35.49-3.84,53.94-2.69-9.58-3.06-19.52-1.95-29.53l3.33-30.09,7.49-52.59c.69-4.84,1.3-9.17,4.21-13.23-4.49-4.6-5.61-10.76-5.5-17.07-3.45-5.85-6.21-11.75-8.19-18.18-1.4-5.27-1.66-10.43-.43-15.9-8.36-6.1-15.47-12.92-22.24-20.73-6.7-7.73-13.23-15.3-18.04-24.36-3.31-6.22-7.09-11.36-11.97-16.4-6.91-7.14-13.09-14.58-18.47-22.92l-14.62-22.68c-2.35-3.64-5.72-6.42-8.47-9.87-8.73-10.94-16.49-22.12-24.44-33.83-.31-1.02-.45-.77-.48-.06,2.27,7.31,5.92,13.2,10.75,18.8,2.64,3.06,5.71,6.01,7.64,9.61,4.47,8.37,9.48,15.86,16.05,22.81,4.81,5.09,8.96,10.26,12.4,16.42,4.38,7.82,9.19,14.94,14.6,22.08l11.52,15.21,8.37,15.36,15.87,21.28,15.49,18.05c1.87,2.18,3.46,4.86,2.7,7.9-1.54,6.2-.73,12.34,2.66,17.95,3.57,5.9.5,10.67,2.92,14.21,2.17,3.18,3.28,5.92,2.89,9.9-.7,6.97,4.99,8.93.11,14.49-5.8,6.62-13.39,6.87-20.01,14.56-4.75,5.52-7.78,11.64-11.51,18.07.27-3.18,1.57-5.82,2.66-8.57,2.64-6.6,6.44-12.24,12.16-16.95,1.04-.45.15-.9-.78-.77-4.37,1.27-7.79,2.53-11.79,4.47l-.18-.64,2.74-1.68c6.02-3.69,12.24-6.65,19.57-7.1l5.34-6.09c-3.48-3.92-1.96-9.07-2.84-13.4-2.1-4.72-5.31-9.21-4.06-14.9l-20.83,4.47v-.71s14.28-4.92,14.28-4.92c-2.79-.79-5.73-.66-8.74-.31l-7.57.87.77-.81c6.43-2.8,13.34-3.08,20.16-2.76-5.86-10.06-.81-20.54-3.07-23.21l-13.25-15.61-14.02-17.81c-1.18,3.35-2.18,7.15-2.1,11.07l.74,40.26c.11,5.83,1.45,11.08,2.4,16.79.51,3.11-.26,6.69-.05,9.91l1.85,28.79c.13,9.89-1.31,19.48-3.58,29.11-6.39,27.14-4.81,54.9,5.09,81.02,6.63,17.48,16.91,32.76,30.64,45.41,4.36,4.02,7.36,9.23,9.33,14.79,3.36,9.47,5.77,18.74,7.68,28.75,4.61,24.13,7.97,48.31,10.38,72.64.03-.01.05-.03.08-.04-2.51-25.44-5.96-49.52-10.4-72.79-2.01-10.52-4.45-19.67-7.69-28.79-2.18-6.14-5.34-11.16-9.4-14.9-13.66-12.6-23.95-27.84-30.57-45.31-9.73-25.67-11.49-53.64-5.08-80.86,2.56-10.89,3.7-20.17,3.58-29.19l-1.85-28.79c-.09-1.37,0-2.85.1-4.28.12-1.9.25-3.86-.05-5.66-.25-1.53-.54-3.04-.81-4.5-.77-4.12-1.5-8.01-1.58-12.26l-.74-40.26c-.06-3.14.55-6.48,1.92-10.5l13.72,17.43,13.25,15.61c.78.92.59,3.04.35,5.72-.41,4.58-.97,10.82,2.45,17.01-6.09-.26-13.15-.08-19.79,2.8l-1.38,1.41,8.32-.95c2.38-.27,5.12-.46,7.74.09l-13.58,4.68v1.25s20.74-4.45,20.74-4.45c-.83,4.5,1.04,8.28,2.85,11.94.44.88.89,1.79,1.29,2.69.28,1.38.31,2.81.34,4.34.07,3.09.14,6.29,2.4,8.97l-5.11,5.82c-7.83.51-14.29,3.89-19.59,7.13l-2.92,1.79.32,1.16.29-.14c3.83-1.86,7.24-3.15,11.71-4.45.42-.06.77.02.9.09-.04.03-.12.09-.27.15l-.06.04c-5.43,4.47-9.43,10.06-12.24,17.06-.18.44-.36.88-.54,1.32-.94,2.27-1.91,4.62-2.14,7.33l-.1,1.21.61-1.05c.76-1.31,1.49-2.61,2.21-3.89,2.83-5.02,5.5-9.77,9.27-14.14,3.41-3.96,7.1-5.94,10.66-7.85,3.36-1.8,6.53-3.5,9.35-6.71,2.99-3.4,2.13-5.59,1.14-8.12-.68-1.75-1.46-3.73-1.18-6.52.42-4.18-.87-7.05-2.93-10.08-1.04-1.53-1.02-3.31-.99-5.38.04-2.59.08-5.52-1.92-8.82-3.31-5.48-4.2-11.45-2.63-17.74.85-3.42-1.17-6.28-2.76-8.14l-15.48-18.04-15.85-21.24-8.39-15.4-11.52-15.21c-5.86-7.73-10.49-14.74-14.58-22.05-3.13-5.6-6.97-10.68-12.44-16.47-6.04-6.4-11.13-13.63-16.01-22.76-1.49-2.79-3.67-5.2-5.78-7.53-.64-.71-1.28-1.42-1.9-2.13-5.07-5.87-8.42-11.65-10.51-18.12,8.6,12.67,16.03,23.24,24.26,33.56,1.12,1.41,2.36,2.72,3.56,3.98,1.81,1.91,3.52,3.72,4.9,5.86l14.62,22.68c5,7.75,11.05,15.27,18.51,22.97,4.9,5.06,8.69,10.25,11.93,16.34,4.9,9.21,11.6,16.94,18.08,24.41,7.23,8.34,14.27,14.91,22.14,20.66-1.14,5.18-.98,10.37.48,15.86,1.86,6.04,4.53,11.99,8.18,18.18-.12,7.6,1.6,13.02,5.42,17.03-2.83,4.04-3.43,8.26-4.13,13.16l-7.49,52.6-3.33,30.09c-1.21,10.94-.57,20.63,1.96,29.63l.61,2.18-.08-2.26c-.61-18.08.64-35.71,3.84-53.88l6.85-38.93,2.63-21.28c1.12-9.02,7.5-14.84,18.47-16.84.51.03,1.34-.04,1.42-.51.08-.45-.59-.63-.85-.7-5.52-.72-10.73.44-16.38,3.67-6.62-7.25-4.57-18.52-2.44-26.4.27-.51.23-1.11-.1-1.39-.13-.11-.49-.33-1.07.11l-.05.04-3.48,7.5c-5.94-9.57-8.16-18.82-6.59-27.51,6.76.5,11.84-.83,15.54-4.06l.58-.5-.76.02c-1.85.06-3.73.41-5.54.76-3.5.66-6.8,1.29-9.84-.02-6.32-3.66-12.25-8.65-17.16-14.43l-15.41-18.18c-3.44-4.05-6.22-8.63-9.3-15.3-.79-1.72-.03-4.95.76-6.7l3.62-7.98-.71.39c-3.04,1.64-4.25,4.17-5.54,6.84-.43.89-.87,1.81-1.39,2.73-1.32-1.07-2.8-3.15-2.99-4.7-.26-2.17,1.05-4.28,2.21-6.13l.56-.9c.08-.13.07-.32-.11-.43-.2-.14-1.31-.3-1.55.03l-3.44,4.79s-.1.05-.15.06c-.38.02-.99-.28-1.25-.54l-4.2-4.31c-11.32-13.23-20.72-26.77-28.73-41.39-.44-.8-.55-3.07-.19-3.97l2.89-7.29-.06-.11c-.09-.17-.35-.68-.4-.77h0s0,0,0,0v-.03s-.19-.34-.19-.34l-.16.2h-.04s-.05.07-.05.07l-.17.1.05.09c-2.15,2.66-3.55,4.72-4.66,7.74l-.3.5c-4.91-5.1-8.35-9.09-11.83-13.69-7.13-9.44-14.51-19.2-20.54-30.21-3.72-6.79-5.03-15.24-3.69-23.8.91-5.82,6.22-10.05,12.44-9.95-.69,2.9-.35,5.24,1.05,7.16,5.26,7.19,12.24,12.95,20.75,17.11,2.44,1.19,4.29,3.23,6.08,5.21.34.38.68.75,1.02,1.12l6.37,6.85c3.93,4.23,7.65,8.22,11.31,12.66l7.59,9.22,15.36,15.53,16.08,15.82c3.06,3.02,7.69,5.72,10.76,7.51,1.06.62,2.08,1.21,2.49,1.53-.13.1-.3.23-.53.41l-3.67,2.88c-.12.09-.6.67-.66.78-.11.18-.19.86.03,1.08l.2.16,1.04-.6,5.15-2.39,8.54,9.72-7.19,2.78c-.41,0-.81.05-.85.37-.04.31.29.46.89.63h.08c3.12-.02,5.57-.57,8.66-1.94l18.5,15.86,19.99,17.69,7.01,5.36.44-1.57-12.37-12.57c-8.66-8.8-17.22-17.34-26.69-25.09-3.95-3.23-6.66-6.6-9.05-9.57-2.29-2.85-4.46-5.54-7.31-7.63l-12.72-9.32c-5.37-4.56-10.3-9.63-15.06-14.53-2.63-2.71-5.35-5.51-8.14-8.22-6.67-6.49-12.82-13.43-19.92-22.51-2.03-2.59-4.45-4.87-6.78-7.07-1.63-1.54-3.32-3.13-4.86-4.81l-10.02-10.97-9.11-11.28c-3.17-4.76-6.55-8.47-10.33-11.35l-.1-.05c-5.51-1.33-11.04.17-16.44,4.45-1.24-3.91-1.11-8.64.36-13.36,1.53-4.88,6.05-7.88,11.06-7.37-.59,2.21-1.03,4.92.29,6.98,3.76,5.86,8.08,10.85,13.24,15.27l6.13,4.21,11.35,11.27,9.13,9.35c.33.34.31,1.59.3,2.3v.4s2.2-.82,2.2-.82l4.2,4.07-3.33,1.99,1.03-.03c1.32-.03,3.31-.08,3.83.57l3.63,4.51-2.12.54-.42.65h0s0,0,0,0h0s-.02.03-.03.04l-.05.07h0s-.17.27-.17.27h.16s.05.08.09.11c.05.04.1.05.15.05.08,0,.14-.05.2-.11h.13c1.26.13,2.83.27,3.34.75l8.09,7.69,19.18,16.9,12.42,11.7,5.04,3.99-.96,2.21-.16.97s-.14.92.19,1.09l.21.08,3.02-3.15,5.81,3.96-3.76,3.42c-.23.21-.2,1.2-.05,1.4l.18.21,1.18-.73c.23-.14.5-.34.81-.56.98-.7,2.47-1.75,3.3-1.55,2.04.49,3.68,2.17,5.03,5.14-1.55.38-2.27.62-3.44,1.36l-.63.39,6.03.88,13.97,13.69,25.61,23.01,14.76,14.05c5.77,5.49,11.76,9.5,17.37,13.02l14.7,9.22c6.48,4.76,9.94,11.68,10.02,20.04l.45,49.25,4.87,151.64c.51,15.77,3.81,30.96,10.11,46.41,3.54,8.69,5.19,16.48,5.35,25.25.04,2.03.11,4.05.22,6.04.15-.18.3-.37.44-.55-.09-1.78-.15-3.56-.18-5.36-.16-9.07-1.96-16.97-5.37-25.35Z"/>
      <path d="M1964.85,812.77c-.06-6.17,1.73-12.02,3.46-17.68l7.18-23.45c2.67-8.74,2.97-17.83,3.04-26.4l1.32-160.78-.48-38.3c-.19-15.16,7.97-20.17,19.28-27.1,1.43-.88,2.91-1.79,4.43-2.75,5.26-3.33,9.8-7,14.28-11.55l30.91-31.32,22.14-22.37c.6-.61,1.1-1.42,1.58-2.2.86-1.39,1.74-2.82,3.27-3.26.97-.28,2-.25,3.19-.22.97.03,2.06.05,3.24-.1l1.1-.14-6.32-2.34c.23-.29.46-.6.7-.91,1.58-2.09,3.37-4.45,5.97-5.09,1.29-.32,2.62.93,3.79,2.04.48.45.94.88,1.38,1.2l.42.3v-.52c.06-2.03-1.45-3.68-3.15-5.15l.98-.63c3.54-2.27,6.88-4.41,9.8-7.35,10.42-10.5,21.13-20,32.1-29.62,2.36-2.07,4.12-4.39,5.99-6.84.94-1.24,1.92-2.53,2.99-3.79.65-.77,2.25-.84,3.79-.91.48-.02.95-.04,1.39-.08l.83-.08-4-2.37,4.35-4.75,5.13,1.74-3.15-3.34c4.01-3.19,9.09-7.44,13.31-12.31,4.53-5.22,9.68-8.69,15.46-12.36,4.76-3.02,8.39-7.55,11.9-11.93.74-.92,1.48-1.84,2.22-2.74,1.75-2.11,1.33-4.99.61-7.15,2.99-.26,5.76.67,7.84,2.65,2.36,2.25,3.58,5.56,3.34,9.07l-.74,10.57c-4.22-5.42-9.61-7.08-17.87-5.54h-.08s-.06.07-.06.07c-4.02,3.66-7.56,7.76-11.46,13.31-4.81,6.84-10,12.52-16.28,19.24l-10.39,11.11-14.37,17.5-12.74,13.43-13.93,14.3c-3.15,3.23-6.62,5.59-9.97,7.87-3.78,2.57-7.36,5-9.59,8.25-4.01,5.83-8.8,10.9-16.02,16.96l-8.57,8.18c-3.72,3.55-8.11,7.83-12.47,12.66l-15.88,17.61,1.38-.74c4.61-2.47,7.99-5.67,11.56-9.06.68-.65,1.37-1.3,2.07-1.95l18.18-16.88,15.27-13.67c4,1.16,7.17,1.72,10.54,1l.96-.21-9.3-3.21,5.41-7.19,10.45,3.48-1.11-.92c-2.5-2.09-4.58-3.32-7.42-4.98,2.43-2.39,5.64-4.63,8.67-6.05l3.92,3.22-.48-1.06c-.73-1.63-1.36-2.49-2.13-3.44l7.54-6.38c5.04-4.27,9.3-8.94,13.81-13.88,1.17-1.28,2.35-2.57,3.54-3.86l13.14-14.14,10.38-13.11c2.52-2.48,4.96-5.17,7.31-7.77,3.44-3.8,7-7.73,10.81-11.01.84-.52,1.69-1.03,2.53-1.54,7.78-4.71,15.13-9.15,19.52-17.77.66-1.29.19-3.81-.21-5.38,3.55-.56,7.16.98,9.71,4.17,3.27,4.09,4.49,9.64,3.55,16.05-.71,4.75-1.62,9.78-4.28,14.37-8.67,14.94-18.79,29.17-30.1,42.32-.23-.49-.46-.97-.68-1.45-1.64-3.53-3.2-6.86-6.49-9.22l-.8-.57.39.9c.53,1.22,1.12,2.41,1.69,3.56,2.07,4.13,3.85,7.69,2.04,11.49-3.84,8.06-7.39,14.15-11.53,19.76l-14.4,19.52-5.37,5.77-.04-.07c-1.56-2.76-2.69-4.75-5.69-5.38l-.6-.12.31.53c.36.61.73,1.21,1.09,1.78.87,1.37,1.69,2.67,2.12,4.03.8,2.5-1.18,4.69-2.88,6.17-1.71-3.74-3.57-7.26-7.11-9.63l-.94-.63.55.99c3,5.38,6.4,11.49,3.2,16.91-9.12,15.44-18.85,28.04-29.74,38.52l-.7.67c-8.59,8.28-11.19,10.77-24.28,7.52l-.88-.22.62.67c2.87,3.1,7.24,4.56,13.02,4.32,2.52,7.15,1.16,15.57-4.14,25.69-.23-.45-.45-.89-.67-1.32-1.47-2.93-2.74-5.47-4.89-7.96l-.85-.99.39,1.25c2.7,8.74,5.57,21.33-.54,30.02-6.59-3.1-11.78-3.96-16.8-2.8l-.9.21.86.32c1.6.58,3.12,1,4.59,1.39,2.26.61,4.38,1.19,6.34,2.29,5.33,3.01,8.62,7.56,9.28,12.81l1.85,14.75,9.88,49.07c2.85,14.14,4.19,29.08,4.37,48.44v.06s.03.06.03.06c.54,1.05.57,1.11.84.99.21-.1.16-.29.11-.43,1.84-13.66,1.87-24.57.11-35.36l-9.91-60.77,7.18,3.33c3.78,1.76,7.73,3.85,10.96,7.24,5.29,5.56,8.84,11.82,11.88,17.76l.24.47.24-.46c.89-1.68.11-3.08-.58-4.31-.25-.45-.49-.88-.66-1.32-2.86-7.64-6.85-13.64-12.86-19.29l11.65,3.61-1.07-.88c-6.03-4.97-13.44-7.92-22.64-9.01l-4.42-6.24,1.35-7.03c.61-3.21,1.19-6.24,2.52-9.29,1.19-2.73,1.84-5.65,1.94-8.69l20.5,3.28-13.22-5.75.09-.44,16.57,1.24-1.11-.61c-6.1-3.32-12.66-3.73-20.58-3.25,2.36-3.72,3.46-7.23,3.48-11l.04-10.36,18.87-24.69c1.37,4.09,2.01,7.13,2.22,10.39l2.07,33.35c.12,1.98-.31,4.03-.73,6.01-.34,1.62-.69,3.29-.75,4.92l-.58,18.32c-1.22,16.28.6,31.68,5.57,47.1,4.81,14.91,7.11,26.85,7.45,38.72.62,21.13-4.31,41.65-14.64,60.99-5.02,9.4-11.42,17.81-20.76,27.28-4.35,4.41-7.55,10.22-10.07,18.27-3.08,9.85-5.35,19.19-7.12,29.4-3.81,21.99-6.81,44.31-9.16,68.25l-.27,4.33c.16.08.32.16.48.24l.28-4.41c2.27-23.09,5.21-45.46,9.16-68.22,1.76-10.16,4.05-19.6,7.11-29.36,2.09-6.68,5.06-13.15,10.01-18.16,8.2-8.32,15.25-16.95,20.81-27.35,10.06-18.84,15.3-39.64,14.67-61.13-.4-13.53-3.36-26.05-7.47-38.79-4.96-15.39-6.77-30.92-5.56-47l.58-18.33c.11-3.59,1.7-7.32,1.47-10.96l-2.07-33.35c-.23-3.7-1.02-6.93-2.39-10.95l-19.23,25.17-.04,10.45c-.01,4.02-1.31,7.64-3.73,11.31,7.27-.47,14.46-.36,20.97,3.18l-15.55-1.17-.18.9,11.45,4.97-18.67-2.99c-.06,2.99-.67,6.02-1.93,8.9-1.41,3.24-1.97,6.4-2.64,9.86l-1.27,6.63,4.56,6.44c8.24.96,15.98,3.49,22.62,8.96l-11.47-3.56c6.52,5.91,10.75,12.2,13.68,20.01.64,1.7,2.37,3.28,1.25,5.41-3.45-6.73-6.95-12.59-11.93-17.82-3.16-3.32-6.92-5.38-11.04-7.3l-7.65-3.55,9.99,61.27c1.94,11.91,1.5,23.27-.13,35.35.2.45-.19-.29-.42-.73-.15-16.43-1.12-32.37-4.37-48.5l-9.88-49.07-1.84-14.73c-.71-5.69-4.44-10.2-9.41-13.01-3.24-1.83-6.87-2.21-10.97-3.7,5.74-1.32,11.31.26,16.83,2.88,6.07-8.41,3.82-20.39.71-30.44,2.56,2.97,3.9,6.07,5.76,9.69,4.33-8.13,7.55-17.71,4.34-26.56-5.09.24-9.83-.78-13-4.22,13.59,3.38,16,.62,25.23-8.26,11.83-11.37,21.44-24.44,29.79-38.58,3.23-5.46-.04-11.52-3.19-17.18,3.65,2.44,5.48,6.12,7.17,9.85,1.97-1.67,4.1-4,3.24-6.7-.63-1.97-2.03-3.78-3.24-5.86,3.02.63,4.06,2.69,5.73,5.64l5.62-6.05,14.41-19.54c4.62-6.27,8.2-12.76,11.56-19.81,2.39-5.02-1.36-9.75-3.73-15.27,3.78,2.72,5.2,6.66,7.27,10.95,11.48-13.3,21.58-27.47,30.41-42.68,2.63-4.54,3.56-9.37,4.31-14.47.87-5.84.04-11.7-3.6-16.26-2.58-3.23-6.38-4.95-10.26-4.22.5,1.88.91,4.29.31,5.47-4.84,9.5-13.51,14.01-21.95,19.2-6.48,5.59-11.98,12.72-18.17,18.83l-10.4,13.13-13.12,14.12c-5.69,6.13-10.97,12.33-17.33,17.72l-7.74,6.56c.89,1.08,1.5,1.91,2.26,3.58l-3.15-2.59c-3.26,1.51-6.63,3.89-9.15,6.43,3.02,1.77,5.11,2.99,7.69,5.13l-9.27-3.08-5.75,7.64,8.73,3.01c-3.53.75-6.89.03-10.55-1.04l-15.39,13.77-18.18,16.88c-4.27,3.96-8.09,8.03-13.56,10.96l14.83-16.45c4.01-4.45,8.13-8.52,12.45-12.65l8.57-8.18c6.14-5.16,11.47-10.34,16.06-17.01,4.11-5.97,12.7-9.07,19.53-16.08l13.93-14.3,12.74-13.43,14.38-17.52,10.38-11.1c5.85-6.26,11.36-12.25,16.3-19.27,3.43-4.87,6.99-9.24,11.42-13.27,7.47-1.39,13.36-.42,18.04,6.02l.79-11.3c.48-6.83-4.57-12.83-11.82-11.97.86,2.39,1.2,5.22-.45,7.21-4.27,5.17-8.35,10.98-14.06,14.61-5.84,3.71-10.96,7.15-15.52,12.41-4.04,4.66-8.82,8.74-13.5,12.46l2.6,2.76-4.26-1.44-4.7,5.13,3.57,2.11c-1.88.18-4.41-.03-5.36,1.09-3.14,3.7-5.39,7.48-8.95,10.6-11.04,9.68-21.76,19.2-32.11,29.63-3.25,3.27-7.01,5.54-11.04,8.14,1.78,1.5,3.39,3.14,3.35,5.17-1.55-1.12-3.42-3.76-5.4-3.28-3.23.79-5.23,4.13-7.05,6.39l5.63,2.09c-2.57.33-4.63-.2-6.48.32-2.52.72-3.32,3.86-4.97,5.53l-22.14,22.37-30.91,31.32c-4.42,4.48-8.93,8.15-14.24,11.51-13.59,8.61-24.05,12.84-23.83,30.09l.48,38.3-1.32,160.78c-.07,9.01-.43,17.84-3.03,26.32l-7.18,23.45c-1.77,5.79-3.54,11.59-3.47,17.76.05,4.74-.05,9.37-.3,13.97.02.02.04.04.05.06.26-4.68.36-9.37.31-14.17Z"/>
      <path d="M2166.91,433.08l-10.44,17.79c-8.79,14.97-24.86,30.48-30.1,39.95-7.59,13.71-16.27,26.31-27.26,37.52l-5.2,5.31-11.05,9.81c2.16,12.64-1.58,21.69-7.35,32.86l-.52,8.19c-.22,3.38-2.29,6.32-4.15,8.97,1.99,2.67,3.36,5.3,4.59,8.5.61-3.16,1.33-5.79,3.1-8.32,1.9-4.7-.48-7.9,2.72-12.8,3.32-5.09,5.23-11.17,4.03-17.2-.62-3.14-.3-5.78,1.85-8.22,9.17-10.38,17.36-21.17,25.58-32.39,4.48-6.12,8.32-12.33,10.72-19.5,1.76-5.25,4.78-8.58,8.38-12.66,9.08-10.3,15.99-22.11,22.79-34.01,2.7-4.73,5.53-8.44,9.21-12.32,6.41-6.76,10.89-14.8,14.97-23.1,2.21-4.5,4.73-8.22,7.86-12.05,4-4.9,8.27-9.67,9.48-16.3l-18.59,27.07-10.63,12.9ZM2195.35,394.28c-1.38,5.39-4.84,9.6-8.2,13.69l-.93,1.13c-3.38,4.15-5.82,7.88-7.89,12.1-3.87,7.86-8.35,16.09-14.92,23.03-3.85,4.07-6.62,7.77-9.25,12.38-7.23,12.66-13.94,23.95-22.76,33.97l-.28.32c-3.44,3.9-6.41,7.27-8.14,12.43-2.65,7.91-7.11,14.54-10.69,19.43-7.68,10.48-16.09,21.66-25.56,32.37-2.03,2.3-2.62,4.9-1.91,8.45,1.07,5.37-.35,11.41-3.99,17-1.85,2.84-1.88,5.16-1.9,7.41-.02,1.68-.04,3.43-.83,5.41-1.58,2.26-2.34,4.59-2.95,7.5-1.19-2.91-2.49-5.27-4.17-7.55,1.83-2.61,3.87-5.56,4.08-8.95l.52-8.13c5.51-10.67,9.55-19.87,7.37-32.83l10.95-9.72,5.2-5.31c10.05-10.26,18.98-22.55,27.3-37.58,2.39-4.32,6.97-9.81,12.27-16.17,6.12-7.34,13.05-15.65,17.82-23.77l10.42-17.75,10.64-12.92,17.8-25.92Z"/>
      <path d="M2182.38,357.88l-.03.03c-4.47,5.42-8.68,9.57-14.5,12.08,3.89-6.51,8.49-12.82,14.41-19.79-.11-.09-.23-.18-.35-.26-5.54,6.51-10.59,13.19-15.05,20.76,6.53-2.59,11.07-7.26,15.36-12.47.87-.76,1.46-1.68,1.77-2.66-.31.86-.85,1.65-1.61,2.31Z"/>
      <path d="M2237.01,369.98l-9.77-13.97-6.24-6.62c-2.29,2.49-1.91,4.96-.13,7.25,4.34,5.59,9.01,11.19,16.14,13.35ZM2220.8,349.65l6.01,6.38,9.3,13.3c-6.48-2.24-10.91-7.43-15.24-13-1.85-2.39-1.88-4.58-.08-6.68Z"/>
      <path d="M2182.12,341.54c-.49.52-.97,1.05-1.44,1.57-2.63,2.9-5.13,5.64-8.96,7.4l14.09-20.48c-.11-.11-.23-.21-.36-.31l-14.83,21.55c5.11-2.05,7.94-5.75,11.36-9.41l4.54-6.14c.26-.35.45-.74.57-1.16-.11.3-.26.59-.45.85l-4.52,6.11Z"/>
      <path d="M2232.01,350.43c-3.71-8.03-8.17-14.28-12.56-20.87-2.08,2.92-1.17,5.87.67,8.27,3.6,4.7,6.76,10.09,11.89,12.6ZM2219.24,329.92c.5.74.99,1.48,1.49,2.22,3.6,5.36,7.33,10.9,10.48,17.54-3.72-2.09-6.44-5.82-9.07-9.43-.65-.9-1.33-1.83-2.01-2.72-1.44-1.88-2.73-4.7-.89-7.62Z"/>
      <path d="M1987.9,552.55l1.31,22.47h.76s1.35-26.88,1.35-26.88c.47-9.29,6.84-16.7,14.43-21.59,7.2-4.64,14.24-8.7,20.07-15.59l-21.85,12.79c-10.27,6.01-16.77,16.69-16.06,28.8Z"/>
      <path d="M1987.42,552.43l1.31,22.47v.26s1.29-.01,1.29-.01l1.36-27.13c.55-10.94,9.2-18.09,14.3-21.38.84-.54,1.68-1.07,2.51-1.6,6.4-4.07,12.45-7.92,17.62-14.04l1.03-1.22-23.23,13.6c-10.84,6.34-16.89,17.2-16.2,29.05ZM2025.82,510.96c-5.83,6.89-12.87,10.95-20.07,15.59-7.59,4.89-13.96,12.31-14.43,21.59l-1.35,26.87h-.76s-1.31-22.46-1.31-22.46c-.71-12.11,5.8-22.79,16.06-28.8l21.85-12.79Z"/>
      <path d="M2404.96,521.54l-22.55-12.95c5.06,6.91,12.33,10.58,19.27,14.76,8.13,4.9,14.54,12.65,15.36,22.31l2.19,26.06h.02s.92-24.84.92-24.84c.37-10.08-6.91-20.59-15.2-25.34Z"/>
      <path d="M2404.89,521.16l-23.67-13.59.76,1.04c4.41,6.02,10.57,9.65,16.53,13.16.94.55,1.88,1.11,2.81,1.67,8.95,5.39,14.5,13.45,15.23,22.1l2.2,26.18h.47s-2.19-26.07-2.19-26.07c-.81-9.67-7.23-17.41-15.36-22.31-6.94-4.18-14.21-7.85-19.27-14.76l22.55,12.95c8.28,4.76,15.57,15.26,15.2,25.34l-.92,24.84h.06s.92-24.96.92-24.96c.39-10.68-7.61-21.15-15.33-25.59Z"/>
      <path d="M2088.08,760.8c-2.77,6.19-5.11,11.77-9.38,16.62-4.46,5.07-10.36,9.19-17.35,8.84l-14.91-.75c10.4,4.97,21.6,5.23,30.63-2.46,6.32-5.38,10.3-14.28,11.01-22.24Z"/>
      <path d="M2088.15,760.68l.14-1.62-1.2,2.68c-2.49,5.58-4.83,10.85-8.8,15.35-3.69,4.2-9.65,9.12-17.13,8.74l-16.28-.82,1.23.59c5.11,2.44,10.1,3.63,14.81,3.58,5.95-.06,11.44-2.1,16.12-6.08,5.99-5.1,10.35-13.91,11.1-22.42ZM2046.45,785.5l14.91.75c6.99.35,12.89-3.76,17.35-8.84,4.27-4.85,6.61-10.43,9.38-16.62-.7,7.96-4.69,16.86-11.01,22.24-9.03,7.69-20.24,7.43-30.63,2.46Z"/>
      <path d="M2330.94,770.01l-5.42-10.35c1.1,6.87,4.12,14.41,8.93,19.39,9.28,9.6,22.45,9.49,33.6,3.34l-14.6,1.68c-9.08,1.04-18.46-6.29-22.53-14.06Z"/>
      <path d="M2330.98,769.74l-6.19-11.83.26,1.65c1.23,7.67,4.59,14.97,9.01,19.54,5,5.18,11.5,7.78,18.49,7.71,5.02-.05,10.29-1.48,15.45-4.32l1.21-.67-15.97,1.83c-9.18,1.06-18.31-6.38-22.25-13.92ZM2368.07,782.39c-11.15,6.15-24.33,6.26-33.6-3.34-4.81-4.98-7.84-12.52-8.93-19.39l5.42,10.35c4.07,7.77,13.45,15.1,22.53,14.06l14.6-1.68Z"/>
    </g>
    <text class="cls-4" transform="translate(67.62 394.35)"><tspan class="cls-5" x="0" y="0">U</tspan><tspan x="216.98" y="0">m</tspan></text>
  </g>
</svg>