<?xml version="1.0" encoding="UTF-8"?>
<svg id="Camada_1" data-name="Camada 1" xmlns="http://www.w3.org/2000/svg" viewBox="0 0 116.24 151.44">
  <defs>
    <style>
      .cls-1 {
        fill: #0291da;
      }

      .cls-2 {
        fill: #2c373f;
      }
    </style>
  </defs>
  <path class="cls-1" d="M113.17,14.03c-1.67-3-3.34-6-5.01-9-6.26-1.2-30.51-5.52-61.97-4.07C30.06,1.69,18.22,3.67,11.46,5.03c-2.27.99-5.38,2.63-6.94,4.83-1.24,1.74-1.08,3.23-.67,4.28v74.47-28.85,24.93-7.24,62.17c5.97,1.01,11.95,2.01,17.92,3.01,2.96-5.49,5.93-10.97,8.89-16.46-8.94-1-17.87-1.99-26.81-2.99v12.41c-.4.55-.86,1.36-.84,2.35,0,0,.02,1.47,1.51,3,1.91,1.96,9.74,4.26,20.51,5.96,7.51,1.15,15.66,2,24.36,2.34,24.24.95,45.3-2.31,61.97-6.49.61-2.35,1.23-4.7,1.84-7.05h.03v-12.52c-4.31,3.44-8.63,6.87-12.94,10.31.99.71,1.98,1.42,2.96,2.13,3.33,1.33,6.65,2.66,9.98,4v-62.17,7.24-24.93,28.85V26.44c-.02-4.14-.04-8.27-.06-12.41Z"/>
  <g>
    <path class="cls-2" d="M0,11.69v128.07c0,6.55,25.53,11.69,58.12,11.69s58.12-5.13,58.12-11.69V11.69c0-6.55-25.53-11.69-58.12-11.69S0,5.13,0,11.69ZM108.76,139.81c-.67,2.45-5.06,4.64-11.74,5.85l-2.53.46v-11.59c0-.66-1.68-1.2-3.74-1.2s-3.74.54-3.74,1.2v12.19s.04.07.07.11l.4.48-1.45.17c-7.19.86-14.72,1.37-22.38,1.51l-1.8.03v-9.26c0-.66-1.68-1.2-3.74-1.2s-3.74.54-3.74,1.2v9.26l-1.8-.03c-7.66-.14-15.19-.65-22.38-1.51l-1.45-.17.4-.48s.05-.07.07-.11v-65.81c0-.66-1.68-1.2-3.74-1.2s-3.74.54-3.74,1.2v65.21l-2.53-.46c-6.68-1.21-11.06-3.39-11.74-5.85v-.05s0-122.16,0-122.16l2.83.8c.13.04.27.07.41.11.16.04.31.08.46.12,1,.28,1.84.49,2.65.67.52.12,1.02.23,1.53.35.86.19,1.83.38,2.97.6l.39.07c.4.08.8.15,1.21.22,1.1.19,2.32.39,3.83.61.17.02.33.05.49.08.2.03.4.06.62.09,1.74.24,3.56.46,5.42.67.27.03.55.06.83.08.21.02.41.04.61.06,1.55.16,2.98.29,4.38.4.58.05,1.16.09,1.74.13l.39.03c1.33.09,2.72.18,4.11.26.77.04,1.55.08,2.33.12,1.29.06,2.73.11,4.51.17l.54.02c.51.02,1.02.03,1.54.05.51.01,1,.02,1.49.03l1.61.03v45.3c0,.66,1.68,1.2,3.74,1.2s3.74-.54,3.74-1.2V23.35l1.62-.03c.49,0,.98-.02,1.47-.03.53-.01,1.04-.03,1.55-.05l.55-.02c1.69-.05,3.16-.11,4.51-.17.78-.04,1.55-.08,2.33-.12,1.37-.08,2.76-.16,4.11-.26l.33-.02c.61-.04,1.21-.09,1.8-.13,1.41-.11,2.84-.24,4.37-.4l.26-.02,2.26-.26-.02.77v63.53c0,.66,1.68,1.2,3.74,1.2s3.74-.54,3.74-1.2V20.86l.91-.15c.17-.03.34-.06.51-.09.14-.03.28-.05.43-.08.39-.07.78-.14,1.18-.22l.42-.08c1.13-.21,2.1-.41,2.96-.6.51-.11.96-.21,1.49-.34.97-.23,1.9-.47,2.69-.68.14-.04.3-.08.46-.12.14-.03.28-.07.41-.11l2.83-.8v122.2ZM108.77,11.69c0,2.5-5.47,4.85-15.4,6.62-9.61,1.72-22.13,2.66-35.25,2.66s-25.63-.95-35.25-2.66c-9.93-1.77-15.4-4.12-15.4-6.62s5.47-4.85,15.4-6.62c9.61-1.72,22.13-2.66,35.25-2.66s25.63.95,35.25,2.66c9.93,1.77,15.4,4.12,15.4,6.62Z"/>
    <path class="cls-2" d="M22.43,11.09c-.32.17-.49.37-.49.56.02.4.68.78,1.76.99,1.73.34,4.03.18,5.21-.36,1.04-.48,10.31-2.89,29.21-2.89s28.07,2.38,29.15,2.84l.1.05c.5.28,1.31.48,2.27.56.96.08,1.97.04,2.84-.12h.02c1.75-.34,2.34-1.07,1.32-1.64-2.99-1.65-16.4-4.1-35.69-4.1s-32.71,2.44-35.7,4.1Z"/>
    <path class="cls-2" d="M25.49,27.96c-2.06,0-3.74.54-3.74,1.2v46.47c0,.66,1.68,1.2,3.74,1.2s3.74-.54,3.74-1.2V29.16c0-.66-1.68-1.2-3.74-1.2Z"/>
    <path class="cls-2" d="M58.12,74.43c-2.06,0-3.74.54-3.74,1.2v8.76c0,.66,1.68,1.2,3.74,1.2s3.74-.54,3.74-1.2v-8.76c0-.66-1.68-1.2-3.74-1.2Z"/>
    <path class="cls-2" d="M58.12,90.18c-2.06,0-3.74.54-3.74,1.2v41.38c0,.66,1.68,1.2,3.74,1.2s3.74-.54,3.74-1.2v-41.38c0-.66-1.68-1.2-3.74-1.2Z"/>
    <path class="cls-2" d="M90.75,91.93c-2.06,0-3.74.54-3.74,1.2v13.69c0,.66,1.68,1.2,3.74,1.2s3.74-.54,3.74-1.2v-13.69c0-.66-1.68-1.2-3.74-1.2Z"/>
    <path class="cls-2" d="M90.75,112.61c-2.06,0-3.74.54-3.74,1.2v13.72c0,.66,1.68,1.2,3.74,1.2s3.74-.54,3.74-1.2v-13.72c0-.66-1.68-1.2-3.74-1.2Z"/>
  </g>
</svg>