<?xml version="1.0" encoding="UTF-8"?>
<svg id="Camada_1" data-name="Camada 1" xmlns="http://www.w3.org/2000/svg" viewBox="0 0 124.44 219.85">
  <defs>
    <style>
      .cls-1 {
        fill: #0291da;
      }

      .cls-2 {
        fill: #114b60;
      }
    </style>
  </defs>
  <rect class="cls-2" x="6.73" y="6.68" width="111.41" height="205.22" rx="30.76" ry="30.76"/>
  <g>
    <path class="cls-1" d="M4.1,26.65v166.54c0,13.28,25.53,23.69,58.12,23.69s58.12-10.41,58.12-23.69V26.65c0-13.28-25.53-23.69-58.12-23.69S4.1,13.37,4.1,26.65ZM112.86,193.3c-.67,4.97-5.06,9.4-11.74,11.85l-2.53.93v-23.5c0-1.34-1.68-2.44-3.74-2.44s-3.74,1.09-3.74,2.44v24.72c.02.07.04.15.07.22l.4.97-1.45.35c-7.19,1.74-14.72,2.77-22.38,3.06l-1.8.07v-18.76c0-1.34-1.68-2.44-3.74-2.44s-3.74,1.09-3.74,2.44v18.76l-1.8-.07c-7.66-.29-15.19-1.32-22.38-3.06l-1.45-.35.4-.97c.03-.07.05-.14.07-.22v-111.11c0-1.34-1.68-2.44-3.74-2.44s-3.74,1.09-3.74,2.44v109.9l-2.53-.93c-6.68-2.45-11.06-6.88-11.74-11.85v-.1s0-154.57,0-154.57l2.83,1.63c.13.07.27.14.41.21.16.08.31.16.46.24,1,.56,1.84.99,2.65,1.36.52.25,1.02.47,1.53.7.86.38,1.83.78,2.97,1.21l.39.15c.4.15.8.31,1.21.45,1.1.39,2.32.78,3.83,1.23.17.05.33.1.49.15.2.06.4.13.62.19,1.74.49,3.56.94,5.42,1.35.27.06.55.11.83.16.21.04.41.08.61.12,1.55.32,2.98.59,4.38.81.58.09,1.16.18,1.74.26l.39.06c1.33.19,2.72.37,4.11.53.77.09,1.55.17,2.33.24,1.29.12,2.73.23,4.51.35l.54.04c.51.03,1.02.07,1.54.09.51.03,1,.05,1.49.06l1.61.05v16.65c0,1.34,1.68,2.44,3.74,2.44s3.74-1.09,3.74-2.44v-16.65l1.62-.05c.49-.02.98-.04,1.47-.06.53-.02,1.04-.06,1.55-.09l.55-.04c1.69-.1,3.16-.21,4.51-.35.78-.08,1.55-.16,2.33-.24,1.37-.15,2.76-.33,4.11-.53l.33-.05c.61-.09,1.21-.17,1.8-.27,1.41-.23,2.84-.49,4.37-.81l.26-.05,2.26-.52-.02,1.57v58c0,1.34,1.68,2.44,3.74,2.44s3.74-1.09,3.74-2.44v-61.55l.91-.31c.17-.06.34-.12.51-.19.14-.05.28-.11.43-.16.39-.14.78-.29,1.18-.44l.42-.16c1.13-.43,2.1-.83,2.96-1.21.51-.22.96-.43,1.49-.68.97-.47,1.9-.96,2.69-1.38.14-.08.3-.16.46-.23.14-.07.28-.14.41-.21l2.83-1.63v154.65ZM112.87,26.65c0,5.06-5.47,9.83-15.4,13.42-9.61,3.48-22.13,5.4-35.25,5.4s-25.63-1.92-35.25-5.4c-9.93-3.59-15.4-8.36-15.4-13.42s5.47-9.83,15.4-13.42c9.61-3.48,22.13-5.4,35.25-5.4s25.63,1.92,35.25,5.4c9.93,3.59,15.4,8.36,15.4,13.42Z"/>
    <path class="cls-1" d="M26.53,25.44c-.32.35-.49.74-.49,1.14.02.81.68,1.57,1.76,2.01,1.73.68,4.03.37,5.21-.72,1.04-.96,10.31-5.86,29.21-5.86s28.07,4.82,29.15,5.76l.1.1c.5.56,1.31.96,2.27,1.13.96.17,1.97.08,2.84-.25h.02c1.75-.69,2.34-2.17,1.32-3.32-2.99-3.35-16.4-8.3-35.69-8.3s-32.71,4.96-35.7,8.31Z"/>
    <path class="cls-1" d="M29.59,53.77c-2.06,0-3.74,1.09-3.74,2.44v24.91c0,1.34,1.68,2.44,3.74,2.44s3.74-1.09,3.74-2.44v-24.91c0-1.34-1.68-2.44-3.74-2.44Z"/>
    <path class="cls-1" d="M62.22,78.67c-2.06,0-3.74,1.09-3.74,2.44v22.15c0,1.34,1.68,2.44,3.74,2.44s3.74-1.09,3.74-2.44v-22.15c0-1.34-1.68-2.44-3.74-2.44Z"/>
    <path class="cls-1" d="M62.22,115c-2.06,0-3.74,1.09-3.74,2.44v61.6c0,1.34,1.68,2.44,3.74,2.44s3.74-1.09,3.74-2.44v-61.6c0-1.34-1.68-2.44-3.74-2.44Z"/>
    <path class="cls-1" d="M94.85,118.54c-2.06,0-3.74,1.09-3.74,2.44v15.99c0,1.34,1.68,2.44,3.74,2.44s3.74-1.09,3.74-2.44v-15.99c0-1.34-1.68-2.44-3.74-2.44Z"/>
    <path class="cls-1" d="M94.85,148.7c-2.06,0-3.74,1.09-3.74,2.44v17.26c0,1.34,1.68,2.44,3.74,2.44s3.74-1.09,3.74-2.44v-17.26c0-1.34-1.68-2.44-3.74-2.44Z"/>
  </g>
</svg>