<?xml version="1.0" encoding="UTF-8"?>
<svg id="Camada_1" data-name="Camada 1" xmlns="http://www.w3.org/2000/svg" viewBox="0 0 1553.54 1560.59">
  <defs>
    <style>
      .cls-1 {
        fill: #0291da;
      }

      .cls-2 {
        fill: #b2ab97;
      }

      .cls-3 {
        fill: #fff;
      }
    </style>
  </defs>
  <rect class="cls-2" x="-26.64" y="-23.49" width="1606.82" height="1607.56"/>
  <g>
    <path class="cls-1" d="M1054.82,1179.43c-5.56-19.38-14.18-33.95-27.94-47.23-32.91-31.77-56.61-71.46-70.44-117.98-15.33-51.58-16.67-106.29-3.97-162.6,7.89-34.99,9.43-69.92,4.71-106.8l-1.9-39.82c-.19-4-1.18-8.05-2.14-11.97-1.05-4.27-2.13-8.69-2.23-13.17l-2.05-93.15c-.25-11.16,2.65-21.19,5.71-31.82.33-1.13.65-2.27.98-3.42-5.75-7.43-9.9-15.7-13.9-23.7-2.39-4.77-4.86-9.7-7.65-14.42-4.22-7.13-9.57-13.59-14.75-19.83-4.65-5.6-9.46-11.4-13.49-17.73l-29.73-46.6c-6.64-10.41-14.13-21.45-23.93-31.69-13.12-13.71-24.47-29.61-35.72-50.01-3.8-6.89-9.52-13.67-15.57-20.84-10.28-12.19-21.9-25.95-26.67-43.73-4.63,10.89-10.1,22.34-18.22,33.02l-19.15,25.18c-11.93,28.27-28.68,53.12-51.2,75.97-14.55,26.57-29.88,50.88-46.86,74.32l-14.78,17.27c-7.06,8.25-10.86,17.94-14.53,27.3-6.57,16.75-17.49,31.11-28.06,45l-1.05,1.38c4.11,15.39,6.16,26.95,6.87,38.6l4,65.91c.28,4.6-.56,9.27-1.38,13.78-.6,3.35-1.23,6.81-1.37,10.14l-1.84,44.39c-1.5,36.11,2.49,67.61,12.18,96.31,26.65,78.88,20.38,157.38-18.15,227.01-12.35,22.32-23.95,38.11-37.63,51.19-12.63,12.08-21.18,25.84-26.9,43.28-8.99,27.42-15.29,55.5-19.24,85.84l-17.89,137.08c93.4,45.28,198.55,69.91,309.42,68.02h0c109.01-1.85,211.62-29.12,302.3-76.05l-11.07-85.85c-5.7-44.22-13.81-84.31-24.79-122.58Z"/>
    <path class="cls-1" d="M257.11,1149.16c13.57-35.18,20.03-65.87,20.31-96.57l3.3-357.91-1.37-80.9c-.29-17.35,6.27-33.94,18.01-45.52,7.47-7.37,18.09-13.89,28.37-20.19,10.47-6.42,21.3-13.07,28.94-20.66l37.09-36.89,48.93-48.77c3.26-3.25,6.5-6.43,9.71-9.58,7.62-7.48,14.83-14.55,22.12-22.34,5.32-5.68,9.87-11.95,14.27-18.01,2.88-3.97,5.87-8.08,9.08-12.05,4.62-5.71,11.85-10.65,20.23-16.36,8.13-5.55,17.34-11.83,25.55-19.95,18.04-17.85,37.58-35.87,61.48-56.72,9.4-8.2,16.18-17.79,23.36-27.94,1.53-2.16,3.06-4.33,4.63-6.5,5.15-7.12,12.19-12.59,19-17.89l1.07-.84c6.94-5.4,12.59-11.1,17.66-16.45l23.76-25.09,40.25-54.03,7.47-3.6,10.94-.06c.94.37,1.88.73,2.83,1.09,7.2,2.74,14.65,5.57,20.36,13.82,6.39-9.72,16.48-14.73,29.36-14.51l11.78.2.17.19c7.31,7.93,13.89,19.1,20.26,29.9,5.27,8.95,10.25,17.4,14.87,22.47l40.17,44.08,21.93,19.96,24.69,30.17,46.44,41.99,32.73,29.88c6.29,5.75,12.12,9.92,18.33,13.13,7.71,3.99,13.68,9.02,19.36,16.33,13.01,16.72,24.89,29.71,37.4,40.9l54.61,48.85,37.75,36.12c8.71,8.33,19.04,14.66,29.03,20.78l31.76,19.5c18.19,11.17,29.14,30.84,29.31,52.62l.76,101.21,10.82,335.3c1.1,34.01,8.52,67.37,22.7,102.01,6.84,16.71,10.21,31.55,10.3,45.37.02,3.6.1,7.21.22,10.83,90.91-118.31,143.91-267.06,141.18-427.84h0c-6.41-377.55-317.67-678.42-695.22-672.01h0C387.62,103.09,86.75,414.35,93.16,791.9h0c2.72,160.07,60.24,306.34,154.36,421.27-.04-1.82-.08-3.65-.16-5.48-.88-20.08,2.31-39.23,9.76-58.53Z"/>
    <path class="cls-1" d="M735.45,197.66c-.2-2.99-1.73-5.65-4.33-7.53-.02.03-.05.06-.07.08,3.9,3.02,5.06,7.54,3.77,11.67.49-1.36.73-2.79.63-4.23Z"/>
    <polygon class="cls-1" points="1245.8 671.68 1245.81 671.41 1245.78 671.41 1245.8 671.68"/>
    <path class="cls-3" d="M1297.1,1141.27c-13.68-33.58-20.87-66.56-21.97-100.82l-10.57-329.39-.98-106.99c-.17-18.15-7.69-33.2-21.76-43.53l-31.93-20.03c-12.19-7.65-25.19-16.37-37.72-28.29l-32.07-30.52-55.63-49.98-30.34-29.74-13.1-1.9,1.36-.86c2.54-1.6,4.1-2.12,7.47-2.95-2.92-6.44-6.49-10.1-10.92-11.17-1.81-.44-5.04,1.85-7.18,3.37-.67.48-1.28.9-1.77,1.21l-2.57,1.59-.4-.45c-.32-.42-.39-2.58.11-3.04l8.16-7.43-12.62-8.6-6.56,6.85-.46-.17c-.72-.36-.42-2.34-.42-2.36l.35-2.11,2.09-4.79-10.95-8.66-26.97-25.42-41.65-36.71-17.57-16.7c-1.11-1.06-4.52-1.37-7.26-1.61l-.29-.03c-.12.12-.25.23-.43.23-.1,0-.21-.03-.33-.11-.1-.07-.16-.14-.2-.21l-.34-.03.37-.58h0s.1-.15.1-.15c.02-.03.04-.06.06-.09h0s0,0,0,0h0s.91-1.41.91-1.41l4.59-1.18-7.89-9.79c-1.13-1.41-5.46-1.3-8.33-1.23l-2.25.05,7.22-4.33-9.13-8.84-4.8,1.77.02-.87c.03-1.53.08-4.25-.64-4.99l-19.84-20.3-24.65-24.47-13.31-9.14c-11.2-9.61-20.59-20.45-28.75-33.17-2.87-4.47-1.91-10.35-.63-15.15-10.89-1.1-20.71,5.41-24.03,16.02-3.21,10.26-3.48,20.53-.79,29.02,11.74-9.3,23.75-12.55,35.72-9.67l.22.1c8.22,6.24,15.56,14.31,22.44,24.65l19.8,24.49,21.77,23.83c3.34,3.65,7,7.11,10.55,10.45,5.08,4.78,10.33,9.73,14.74,15.36,15.43,19.72,28.78,34.8,43.28,48.89,6.05,5.88,11.96,11.97,17.67,17.85,10.34,10.65,21.04,21.67,32.71,31.57l27.62,20.24c6.19,4.54,10.89,10.38,15.87,16.56,5.19,6.45,11.08,13.77,19.66,20.79,20.58,16.84,39.17,35.39,57.97,54.49l26.88,27.3-.95,3.4-15.22-11.65-43.43-38.42-40.18-34.45c-6.73,2.98-12.04,4.17-18.82,4.24l-.17-.02c-1.28-.36-2.01-.7-1.92-1.37.09-.68.95-.78,1.85-.8l15.63-6.04-18.55-21.12-11.2,5.2-2.27,1.3-.43-.34c-.47-.48-.29-1.96-.06-2.34.14-.23,1.18-1.49,1.44-1.69l7.98-6.26c.51-.4.88-.69,1.15-.9-.91-.68-3.11-1.97-5.42-3.32-6.66-3.89-16.71-9.77-23.37-16.32l-34.92-34.37-33.37-33.74-16.49-20.03c-7.94-9.65-16.01-18.32-24.56-27.5l-13.85-14.88c-.74-.8-1.48-1.61-2.22-2.43-3.89-4.29-7.91-8.72-13.2-11.31-18.49-9.04-33.65-21.54-45.08-37.16-3.04-4.16-3.79-9.25-2.28-15.55-13.52-.23-25.05,8.96-27.03,21.61-2.9,18.58-.05,36.94,8.02,51.69,13.09,23.92,29.12,45.12,44.62,65.63,7.56,10.01,15.04,18.66,25.71,29.74l.66-1.09c2.42-6.57,5.45-11.04,10.13-16.81l-.1-.2.37-.21.11-.17h.09s.35-.43.35-.43l.38.74.03.06h0s0,0,0,0c.1.2.68,1.31.87,1.68l.13.24-6.29,15.83c-.78,1.96-.55,6.88.41,8.63,17.4,31.77,37.81,61.18,62.4,89.91l9.12,9.36c.56.58,1.9,1.23,2.72,1.18.12,0,.27-.04.33-.12l7.48-10.4c.51-.71,2.92-.35,3.36-.06.38.25.4.66.23.94l-1.22,1.96c-2.52,4.03-5.37,8.61-4.8,13.32.41,3.36,3.63,7.89,6.49,10.2,1.14-2.01,2.1-4,3.03-5.93,2.79-5.8,5.43-11.29,12.03-14.85l1.55-.84-7.87,17.34c-1.72,3.8-3.38,10.82-1.66,14.54,6.69,14.5,12.73,24.44,20.2,33.24l33.47,39.48c10.65,12.56,23.54,23.4,37.27,31.35,6.61,2.86,13.79,1.49,21.38.05,3.95-.75,8.03-1.53,12.04-1.65l1.66-.05-1.25,1.09c-8.03,7.01-19.07,9.89-33.75,8.81-3.39,18.87,1.42,38.97,14.32,59.75l7.56-16.3.11-.09c1.24-.96,2.04-.49,2.32-.25.71.61.79,1.93.21,3.03-4.64,17.12-9.09,41.59,5.29,57.35,12.27-7.02,23.59-9.56,35.58-7.98.55.14,2.01.53,1.84,1.51-.18,1.03-1.99,1.19-3.09,1.11-23.82,4.34-37.69,16.99-40.11,36.58l-5.72,46.23-14.88,84.56c-6.95,39.48-9.67,77.77-8.34,117.05l.17,4.91-1.33-4.73c-5.49-19.55-6.88-40.6-4.25-64.37l7.23-65.35,16.27-114.25c1.52-10.66,2.82-19.8,8.97-28.59-8.29-8.7-12.03-20.48-11.77-36.99-7.92-13.45-13.73-26.36-17.76-39.48-3.17-11.93-3.51-23.2-1.03-34.45-17.09-12.49-32.38-26.76-48.09-44.89-14.07-16.23-28.62-33.01-39.27-53.03-7.04-13.23-15.28-24.51-25.91-35.5-16.19-16.72-29.34-33.04-40.2-49.88l-31.77-49.27c-3-4.65-6.71-8.58-10.64-12.74-2.6-2.75-5.29-5.6-7.73-8.65-17.88-22.4-34.01-45.37-52.69-72.89,4.55,14.06,11.83,26.6,22.84,39.36,1.34,1.55,2.72,3.09,4.12,4.63,4.57,5.06,9.3,10.3,12.54,16.36,10.6,19.83,21.64,35.54,34.77,49.43,11.89,12.59,20.23,23.63,27.03,35.78,8.88,15.88,18.95,31.1,31.67,47.89l25.03,33.04,18.22,33.45,34.42,46.15,33.62,39.18c3.46,4.03,7.85,10.26,6,17.68-3.41,13.67-1.48,26.63,5.71,38.53,4.34,7.18,4.25,13.55,4.18,19.17-.06,4.49-.12,8.36,2.15,11.68,4.48,6.57,7.28,12.8,6.37,21.89-.61,6.07,1.08,10.37,2.56,14.17,2.16,5.5,4.02,10.25-2.47,17.65-6.11,6.97-13.01,10.66-20.31,14.57-7.74,4.15-15.75,8.44-23.16,17.05-8.18,9.5-13.99,19.8-20.13,30.71-1.57,2.79-3.16,5.6-4.81,8.45l-1.33,2.29.22-2.64c.5-5.88,2.61-10.98,4.65-15.91.39-.95.79-1.91,1.17-2.86,6.08-15.22,14.78-27.34,26.58-37.06l.14-.09c.32-.14.5-.26.59-.33-.29-.16-1.04-.33-1.95-.2-9.72,2.82-17.11,5.63-25.44,9.66l-.64.31-.69-2.51,6.33-3.88c11.49-7.04,25.53-14.38,42.54-15.49l11.09-12.65c-4.91-5.83-5.06-12.77-5.21-19.49-.07-3.31-.14-6.43-.74-9.42-.87-1.95-1.85-3.93-2.8-5.84-3.94-7.95-8.01-16.16-6.2-25.93l-45.08,9.67.02-2.7,29.5-10.17c-5.69-1.2-11.65-.78-16.82-.19l-18.07,2.07,3.01-3.07c14.42-6.27,29.75-6.65,42.98-6.09-7.43-13.45-6.21-26.99-5.32-36.95.52-5.83.93-10.44-.76-12.43l-28.77-33.91-29.8-37.86c-2.98,8.73-4.31,16.01-4.18,22.82l1.61,87.45c.17,9.23,1.76,17.68,3.44,26.62.6,3.17,1.21,6.45,1.76,9.77.64,3.9.37,8.17.1,12.29-.2,3.1-.4,6.3-.21,9.29l4.01,62.54c.26,19.61-2.21,39.75-7.78,63.41-13.92,59.14-10.1,119.88,11.04,175.64,14.38,37.94,36.72,71.06,66.4,98.42,8.82,8.13,15.69,19.02,20.42,32.37,7.03,19.81,12.34,39.68,16.7,62.53,9.65,50.55,17.13,102.85,22.59,158.1,80.79-43.48,151.76-102.71,208.86-173.51-.23-4.34-.4-8.71-.48-13.13-.34-19.05-3.92-35.96-11.61-54.84ZM1134.49,1129.24c-11.2,6.17-22.65,9.27-33.55,9.38-15.18.15-29.29-5.5-40.16-16.75-9.59-9.92-16.9-25.78-19.56-42.44l-.57-3.59,13.45,25.7c8.56,16.36,28.4,32.52,48.34,30.23l34.69-3.99-2.63,1.45ZM1247.94,617.18l-2,54.22h-.13s-.01.28-.01.28l-.02-.27-1.02.02-4.78-56.88c-1.58-18.79-13.63-36.29-33.07-48.01-2.03-1.22-4.07-2.42-6.11-3.63-12.95-7.63-26.33-15.51-35.92-28.59l-1.65-2.26,51.41,29.53c16.78,9.64,34.16,32.4,33.3,55.59Z"/>
    <path class="cls-3" d="M489.66,1233.41c3.84-22.18,8.76-42.47,15.46-63.86,5.48-17.5,12.44-30.11,21.88-39.7,20.28-20.57,34.19-38.85,45.09-59.26,22.44-42.01,33.14-86.58,31.79-132.48-.75-25.77-5.75-51.71-16.19-84.1-10.8-33.49-14.76-66.96-12.1-102.31l1.26-39.79c.11-3.54.88-7.17,1.62-10.68.91-4.31,1.85-8.77,1.58-13.06l-4.51-72.45c-.44-7.09-1.84-13.7-4.82-22.58l-40.98,53.64-.08,22.5c-.03,8.19-2.43,15.82-7.55,23.9,17.21-1.03,31.46-.16,44.71,7.06l2.42,1.32-35.99-2.7-.2.97,28.73,12.48-44.52-7.13c-.22,6.59-1.64,12.94-4.22,18.88-2.88,6.62-4.14,13.21-5.47,20.18l-2.94,15.26,9.6,13.56c19.99,2.37,36.08,8.77,49.19,19.57l2.32,1.92-25.3-7.85c13.05,12.28,21.71,25.3,27.93,41.91.36.95.87,1.88,1.43,2.86,1.49,2.67,3.19,5.7,1.25,9.36l-.53,1.01-.52-1.01c-6.61-12.9-14.31-26.5-25.81-38.57-7.01-7.36-15.59-11.91-23.81-15.73l-15.59-7.24,21.53,131.99c3.82,23.43,3.75,47.12-.25,76.8.12.3.21.71-.23.92-.57.27-.64.13-1.81-2.15l-.06-.13v-.14c-.37-42.06-3.3-74.51-9.48-105.23l-21.47-106.6-4.01-32.04c-1.42-11.4-8.58-21.28-20.15-27.82-4.24-2.4-8.87-3.65-13.77-4.97-3.19-.86-6.49-1.75-9.97-3.02l-1.88-.69,1.95-.45c10.91-2.52,22.18-.64,36.5,6.09,13.27-18.87,7.04-46.22,1.17-65.2l-.84-2.71,1.85,2.15c4.67,5.42,7.43,10.92,10.63,17.29.47.94.95,1.9,1.45,2.87,11.52-22,14.47-40.26,9-55.8-12.54.52-22.05-2.64-28.27-9.38l-1.34-1.45,1.92.48c28.45,7.07,34.08,1.64,52.74-16.34l1.51-1.46c23.67-22.77,44.8-50.14,64.61-83.67,6.96-11.78-.43-25.03-6.94-36.73l-1.2-2.15,2.04,1.37c7.69,5.15,11.75,12.81,15.45,20.92,3.71-3.23,8-7.97,6.27-13.41-.94-2.95-2.72-5.77-4.6-8.74-.79-1.24-1.6-2.53-2.38-3.87l-.67-1.15,1.3.27c6.52,1.36,8.97,5.69,12.35,11.68l.09.15,11.66-12.54,31.27-42.4c8.99-12.18,16.71-25.42,25.04-42.93,3.92-8.24.05-15.99-4.44-24.95-1.25-2.49-2.54-5.07-3.68-7.73l-.84-1.96,1.73,1.24c7.16,5.14,10.53,12.37,14.1,20.04.48,1.04.97,2.09,1.48,3.15,24.57-28.56,46.57-59.49,65.39-91.94,5.79-9.97,7.77-20.89,9.3-31.21,2.06-13.91-.6-25.96-7.7-34.85-5.53-6.92-13.38-10.27-21.08-9.06.86,3.4,1.89,8.87.46,11.68-9.53,18.72-25.5,28.37-42.41,38.6-1.83,1.11-3.66,2.22-5.49,3.34-8.27,7.14-16,15.67-23.48,23.92-5.12,5.65-10.42,11.5-15.89,16.89l-22.54,28.47-28.54,30.71c-2.6,2.79-5.15,5.59-7.7,8.39-9.8,10.74-19.05,20.88-30,30.15l-16.38,13.86c1.67,2.05,3.02,3.92,4.62,7.47l1.04,2.31-8.51-6.99c-6.58,3.09-13.54,7.96-18.83,13.15,6.16,3.61,10.68,6.28,16.11,10.81l2.4,2-22.7-7.55-11.74,15.61,20.21,6.97-2.08.45c-7.33,1.56-14.22.34-22.89-2.17l-33.18,29.7-39.48,36.66c-1.52,1.41-3.01,2.82-4.49,4.23-7.75,7.36-15.08,14.31-25.1,19.67l-2.99,1.6,34.49-38.24c9.47-10.5,19-19.8,27.08-27.51l18.61-17.77c15.69-13.18,26.09-24.19,34.81-36.85,4.85-7.04,12.61-12.32,20.83-17.91,7.29-4.96,14.82-10.08,21.66-17.1l30.26-31.07,27.67-29.18,31.21-38.02,22.57-24.14c13.64-14.59,24.9-26.93,35.35-41.78,8.48-12.05,16.16-20.97,24.9-28.92l.12-.11.17-.03c17.95-3.34,29.66.26,38.82,12.04l1.6-22.95c.53-7.62-2.11-14.8-7.25-19.69-4.52-4.31-10.54-6.34-17.03-5.76,1.57,4.68,2.47,10.94-1.32,15.53-1.61,1.95-3.21,3.94-4.82,5.95-7.63,9.51-15.52,19.35-25.85,25.91-12.56,7.98-23.75,15.5-33.59,26.85-9.16,10.57-20.2,19.8-28.91,26.73l6.84,7.25-11.15-3.77-9.45,10.31,8.69,5.15-1.81.17c-.95.09-1.97.14-3.01.18-3.35.15-6.82.31-8.23,1.97-2.32,2.74-4.45,5.53-6.5,8.24-4.05,5.33-7.87,10.36-13.01,14.86-23.83,20.89-47.1,41.53-69.73,64.33-6.34,6.39-13.6,11.04-21.28,15.97l-2.13,1.37c3.7,3.19,6.97,6.77,6.87,11.18l-.02,1.13-.91-.66c-.96-.69-1.95-1.62-2.99-2.6-2.55-2.39-5.43-5.11-8.24-4.42-5.64,1.38-9.53,6.52-12.96,11.05-.52.68-1.02,1.35-1.52,1.98l13.72,5.09-2.39.3c-2.57.33-4.95.26-7.05.21-2.59-.07-4.83-.13-6.94.48-3.32.95-5.24,4.07-7.1,7.08-1.04,1.69-2.12,3.44-3.43,4.77l-48.1,48.6-67.14,68.04c-9.74,9.87-19.6,17.84-31.03,25.08-3.3,2.09-6.52,4.06-9.63,5.97-24.55,15.06-42.28,25.94-41.87,58.87l1.05,83.19-2.87,349.24c-.15,18.61-.79,38.36-6.6,57.34l-15.6,50.93c-3.76,12.29-7.66,25-7.51,38.4.11,10.43-.11,20.63-.68,30.79,58.55,68.08,130.23,124.46,211.04,165.25l.59-9.4c5.12-52,11.62-100.49,19.9-148.25ZM391.23,539.52c-11.24,13.29-24.37,21.65-38.28,30.5-1.81,1.15-3.63,2.31-5.45,3.48-11.09,7.15-29.88,22.68-31.07,46.44l-2.96,58.92-2.76.02-.03-.56-2.86-48.81c-1.51-25.73,11.65-49.32,35.18-63.1l50.45-29.53-2.23,2.64ZM435.34,1136.01l-2.67-1.28,35.35,1.79c16.24.82,29.19-9.87,37.21-18.99,8.6-9.78,13.7-21.23,19.1-33.34l2.61-5.83-.31,3.51c-1.63,18.5-11.1,37.62-24.11,48.71-10.16,8.66-22.09,13.08-35.02,13.21-10.22.1-21.07-2.48-32.16-7.78Z"/>
    <path class="cls-3" d="M675.08,408.9c-10.36,17.64-25.42,35.7-38.71,51.64-11.52,13.81-21.47,25.74-26.66,35.13-18.07,32.65-37.47,59.35-59.31,81.63l-11.3,11.53-23.79,21.12c4.72,28.15-4.05,48.15-16.02,71.32l-1.13,17.66c-.47,7.36-4.9,13.78-8.87,19.45,3.64,4.94,6.47,10.08,9.05,16.4,1.32-6.32,2.98-11.38,6.4-16.29,1.73-4.3,1.77-8.08,1.8-11.74.05-4.88.1-9.93,4.13-16.09,7.92-12.13,11-25.25,8.68-36.92-1.53-7.71-.25-13.37,4.16-18.35,20.58-23.28,38.84-47.55,55.52-70.32,7.78-10.62,17.45-25.02,23.21-42.2,3.76-11.21,10.22-18.53,17.69-27l.62-.7c19.17-21.75,33.74-46.28,49.44-73.78,5.71-10,11.72-18.04,20.1-26.88,14.28-15.07,24.02-32.95,32.41-50.02,4.51-9.17,9.79-17.27,17.14-26.29l2.02-2.46c7.29-8.87,14.81-18.03,17.81-29.73l-38.65,56.29-23.12,28.07-22.63,38.56Z"/>
    <path class="cls-3" d="M731.05,190.21c-12.86,15.14-22.85,28.86-31.3,43,12.64-5.43,21.79-14.45,31.5-26.23l.07-.07c1.64-1.43,2.82-3.16,3.5-5.02,1.29-4.13.14-8.66-3.77-11.67Z"/>
    <path class="cls-3" d="M848.03,231.78l-20.21-28.9-13.05-13.85c-3.92,4.57-3.86,9.32.17,14.51,9.4,12.11,19.02,23.37,33.1,28.24Z"/>
    <path class="cls-3" d="M738.77,146.43l-30.61,44.49c8.31-3.82,13.74-9.79,19.46-16.08,1.03-1.13,2.07-2.27,3.13-3.41l9.81-13.28c.42-.57.75-1.2.99-1.85.98-3.29,0-7.21-2.79-9.87Z"/>
    <path class="cls-3" d="M817.69,168.62c5.71,7.84,11.6,15.93,19.69,20.48-6.85-14.42-14.94-26.45-22.77-38.11-1.08-1.6-2.16-3.21-3.23-4.82-3.99,6.33-1.2,12.46,1.94,16.55,1.48,1.93,2.95,3.95,4.37,5.9Z"/>
    <path d="M1077.61,1225.06c-4.15-21.74-9.38-41.86-16.68-62.44-4.29-12.08-10.79-23.39-20.27-32.13-29.81-27.49-52.16-60.68-66.55-98.65-21.5-56.73-24.94-117.03-11.06-175.99,4.93-20.93,8.05-41.76,7.77-63.24l-4.01-62.54c-.45-6.99,1.23-14.77.12-21.52-2.05-12.41-4.97-23.82-5.21-36.48l-1.61-87.45c-.16-8.51,2.01-16.77,4.57-24.05l30.46,38.69,28.77,33.91c4.9,5.78-6.06,28.56,6.67,50.41-14.82-.69-29.81-.08-43.79,5.99l-1.68,1.75,16.44-1.88c6.53-.75,12.91-1.02,18.98.68l-31,10.69v1.55s45.23-9.71,45.23-9.71c-2.73,12.35,4.24,22.11,8.81,32.35,1.92,9.4-1.4,20.58,6.17,29.1l-11.59,13.23c-15.94.99-29.43,7.41-42.52,15.42l-5.95,3.65.38,1.39c8.7-4.22,16.11-6.97,25.62-9.72,2.02-.28,3.95.68,1.68,1.67-12.42,10.23-20.67,22.49-26.4,36.82-2.38,5.97-5.2,11.71-5.79,18.61,8.1-13.97,14.68-27.27,25-39.25,14.38-16.7,30.86-17.25,43.47-31.63,10.6-12.09-1.75-16.34-.24-31.48.86-8.63-1.56-14.6-6.27-21.5-5.25-7.69,1.41-18.05-6.34-30.87-7.37-12.18-9.14-25.52-5.78-38.98,1.64-6.6-1.8-12.41-5.87-17.16l-33.65-39.21-34.47-46.22-18.17-33.37-25.03-33.04c-11.76-15.52-22.21-30.96-31.72-47.96-7.48-13.38-16.5-24.61-26.94-35.67-14.27-15.11-25.15-31.38-34.86-49.56-4.18-7.83-10.86-14.24-16.59-20.88-10.5-12.17-18.44-24.96-23.36-40.84.05-1.52.35-2.08,1.04.14,17.25,25.44,34.13,49.73,53.08,73.48,5.97,7.48,13.31,13.53,18.41,21.43l31.77,49.27c11.69,18.13,25.11,34.29,40.12,49.79,10.61,10.96,18.82,22.11,26.01,35.63,10.47,19.67,24.64,36.12,39.2,52.92,14.7,16.95,30.14,31.78,48.3,45.02-2.68,11.89-2.11,23.07.94,34.53,4.29,13.97,10.29,26.79,17.79,39.5-.24,13.71,2.18,27.09,11.94,37.08-6.33,8.82-7.66,18.21-9.16,28.73l-16.26,114.24-7.23,65.36c-2.41,21.73-1.61,43.34,4.23,64.14-1.36-40.08,1.48-78.14,8.35-117.17l14.87-84.53,5.72-46.23c2.72-21.95,18.9-33.15,40.67-37.1,2.15.16,3.82-.74,1.2-1.44-13.23-1.74-24.71,1.82-35.62,8.14-14.37-15.32-11.12-38.48-5.73-58.32.82-1.46.15-3.45-1.61-2.09l-7.96,17.16c-11.4-18.04-19.06-39.41-14.89-61.62,12.15.97,24.48-.46,33.85-8.63-11.46.36-23.28,6.05-33.74,1.52-14.03-8.12-26.96-19.14-37.42-31.48l-33.47-39.48c-8.55-10.08-14.65-21.18-20.28-33.38-1.83-3.96-.05-11.27,1.65-15.04l7.14-15.74c-8.77,4.74-10.3,12.83-15.16,21.15-3.22-2.34-6.81-7.37-7.25-11.01-.59-4.88,2.25-9.49,4.88-13.71l1.22-1.96c.22-.35-2.36-.56-2.61-.23l-7.48,10.4c-.67.93-3.06-.07-3.95-.99l-9.15-9.39c-23.95-27.98-44.73-57.62-62.47-90.02-1.08-1.98-1.26-7.07-.44-9.13l6.19-15.57c-.19-.37-.77-1.48-.87-1.68-4.98,6.12-7.91,10.51-10.32,17.05l-1.06,1.75c-9.97-10.34-18.01-19.41-26.29-30.35-16.1-21.3-31.76-42.12-44.66-65.7-8.64-15.79-10.81-34.65-8.09-52.07,2.19-13.99,15.26-22.63,28.37-22.08-1.55,5.9-1.28,11.28,2,15.77,11.79,16.12,26.95,28.22,44.86,36.98,6.4,3.13,10.87,8.79,15.6,13.87l12.65,13.6c8.89,9.56,17.45,18.69,25.77,28.81l16.46,19.99,33.36,33.74,34.92,34.37c10,9.85,28.24,18.45,29.28,20.12,0-.01-1.13.87-1.7,1.31l-7.98,6.26c-.18.14-1.18,1.34-1.3,1.53-.19.31-.23,1.82.09,1.64l1.91-1.09,11.6-5.38,19.41,22.09-16.51,6.38c-1.93.03-1.78.47.11,1.01,7.12-.08,12.33-1.39,18.93-4.34l40.47,34.7,43.4,38.4,14.52,11.12.62-2.23-26.63-27.06c-18.77-19.07-37.24-37.52-57.93-54.45-16.82-13.76-22.92-28.11-35.51-37.34l-27.65-20.27c-18.11-15.37-33.36-32.88-50.41-49.45-16-15.55-29.6-31.4-43.33-48.95-7.46-9.53-17.14-16.89-25.26-25.78l-21.79-23.85-19.83-24.54c-6.23-9.36-13.33-17.69-22.3-24.51-12.83-3.09-24.85,1.13-35.87,10.09-3.22-9.37-2.59-20.26.52-30.19,3.38-10.81,13.6-17.86,25.35-16.35-1.44,5.16-2.39,11.04.37,15.34,8.05,12.55,17.32,23.33,28.59,33.01l13.39,9.21,24.66,24.48,19.84,20.3c.91.93.85,3.64.81,5.42l4.33-1.6,9.95,9.64-5.96,3.57c3.32-.08,7.51-.15,8.8,1.45l8.47,10.51-5.26,1.35c-.16.24-.56.86-.79,1.21,3.16.29,6.88.55,8.23,1.83l17.56,16.69,41.67,36.73,26.93,25.39,11.31,8.94-2.27,5.21-.3,1.96c-.05.35-.08,1.97.16,1.71l1.93-2.01,4.68-4.88,5.24,3.57,8.41,5.73-8.72,7.94c-.23.21-.23,2.43.04,2.26l2.11-1.31c2.2-1.36,6.74-5.29,9.39-4.65,6.26,1.51,9.74,7.85,11.61,12.15-3.75.9-5.33,1.37-7.98,3.04l11.71,1.7,30.46,29.86,55.64,49.99,32.07,30.52c11.63,11.07,23.95,19.63,37.63,28.21l31.97,20.06c14.44,10.61,21.83,25.93,22,44l.98,106.97,10.57,329.39c1.13,35.31,8.78,68.34,21.93,100.61,7.41,18.19,11.31,35.36,11.66,55.06.07,3.9.21,7.78.4,11.65,3.05-3.8,6.07-7.64,9.04-11.51-.12-3.62-.2-7.23-.22-10.83-.1-13.82-3.47-28.66-10.3-45.37-14.18-34.64-21.61-68.01-22.7-102.01l-10.82-335.3-.76-101.21c-.16-21.78-11.12-41.45-29.31-52.62l-31.76-19.5c-9.99-6.12-20.32-12.45-29.03-20.78l-37.75-36.12-54.61-48.85c-12.51-11.19-24.39-24.19-37.4-40.9-5.68-7.3-11.65-12.34-19.36-16.33-6.21-3.21-12.03-7.39-18.33-13.13l-32.73-29.88-46.44-41.99-24.69-30.17-21.93-19.96-40.17-44.08c-4.62-5.07-9.6-13.52-14.87-22.47-6.36-10.8-12.95-21.97-20.26-29.9l-.17-.19-11.78-.2c-12.88-.21-22.96,4.79-29.36,14.51-5.71-8.25-13.15-11.08-20.36-13.82-.95-.36-1.89-.72-2.83-1.09l-10.94.06-7.47,3.6-40.25,54.03-23.76,25.09c-5.07,5.35-10.71,11.05-17.66,16.45l-1.07.84c-6.81,5.29-13.85,10.77-19,17.89-1.57,2.17-3.1,4.34-4.63,6.5-7.18,10.15-13.96,19.74-23.36,27.94-23.9,20.85-43.44,38.87-61.48,56.72-8.21,8.12-17.42,14.41-25.55,19.95-8.38,5.72-15.61,10.65-20.23,16.36-3.21,3.97-6.19,8.08-9.08,12.05-4.4,6.06-8.95,12.33-14.27,18.01-7.3,7.79-14.5,14.86-22.12,22.34-3.21,3.15-6.45,6.33-9.71,9.58l-48.93,48.77-37.09,36.89c-7.63,7.59-18.46,14.23-28.94,20.66-10.28,6.31-20.91,12.82-28.37,20.19-11.74,11.58-18.3,28.17-18.01,45.52l1.37,80.9-3.3,357.91c-.28,30.71-6.74,61.39-20.31,96.57-7.45,19.31-10.64,38.45-9.76,58.53.08,1.83.13,3.65.16,5.48,3.45,4.21,6.94,8.38,10.49,12.5.55-9.99.76-20.05.66-30.35-.14-13.41,3.69-26,7.54-38.58l15.6-50.93c5.64-18.41,6.41-37.59,6.57-57.17l2.87-349.23-1.05-83.19c-.47-37.46,22.25-46.64,51.77-65.35,11.52-7.3,21.31-15.26,30.92-24.99l67.14-68.04,48.1-48.6c3.58-3.61,5.32-10.44,10.79-12,4.02-1.15,8.49,0,14.07-.71l-12.22-4.53c3.95-4.91,8.3-12.16,15.31-13.88,4.29-1.05,8.35,4.69,11.72,7.12.1-4.42-3.41-7.99-7.27-11.24,8.77-5.66,16.93-10.58,23.99-17.69,22.49-22.66,45.76-43.33,69.75-64.36,7.74-6.79,12.64-15,19.45-23.03,2.05-2.42,7.55-1.97,11.63-2.36l-7.76-4.59,10.21-11.14,9.26,3.13-5.65-5.99c10.18-8.08,20.57-16.94,29.33-27.06,9.92-11.44,21.04-18.9,33.72-26.96,12.4-7.88,21.25-20.5,30.53-31.73,3.58-4.33,2.85-10.47.97-15.67,15.75-1.86,26.71,11.17,25.68,26.01l-1.71,24.54c-10.18-13.99-22.97-16.1-39.19-13.08-9.62,8.75-17.37,18.24-24.81,28.82-10.72,15.24-22.7,28.26-35.41,41.85l-22.54,24.11-31.23,38.05-27.67,29.18-30.25,31.07c-14.84,15.23-33.5,21.97-42.43,34.93-9.96,14.47-21.54,25.73-34.89,36.94l-18.61,17.76c-9.39,8.96-18.34,17.82-27.05,27.48l-32.22,35.72c11.9-6.36,20.19-15.2,29.46-23.81l39.49-36.67,33.42-29.92c7.95,2.31,15.25,3.89,22.92,2.26l-18.97-6.54,12.49-16.6,20.14,6.7c-5.59-4.66-10.15-7.31-16.7-11.15,5.47-5.51,12.79-10.69,19.88-13.97l6.84,5.62c-1.64-3.63-2.97-5.43-4.9-7.78l16.82-14.24c13.83-11.71,25.29-25.18,37.65-38.49l28.51-30.68,22.59-28.53c13.46-13.27,25.39-28.76,39.48-40.9,18.33-11.26,37.18-21.07,47.68-41.7,1.3-2.56.43-7.79-.67-11.89,8.42-1.6,16.68,2.15,22.28,9.16,7.9,9.9,9.71,22.63,7.82,35.31-1.64,11.07-3.65,21.57-9.37,31.42-19.17,33.05-41.12,63.82-66.05,92.71-4.49-9.31-7.57-17.88-15.78-23.78,5.15,11.98,13.3,22.26,8.11,33.17-7.29,15.31-15.06,29.41-25.1,43.03l-31.31,42.45-12.21,13.14c-3.63-6.39-5.89-10.88-12.44-12.24,2.63,4.52,5.67,8.44,7.03,12.73,1.87,5.86-2.76,10.93-7.04,14.55-3.67-8.1-7.64-16.08-15.57-21.39,6.84,12.29,13.94,25.45,6.93,37.32-18.13,30.71-39.02,59.09-64.71,83.8-20.06,19.29-25.29,25.28-54.81,17.94,6.9,7.48,17.19,9.7,28.25,9.17,6.97,19.23-.01,40.05-9.42,57.7-4.04-7.87-6.95-14.61-12.51-21.06,6.75,21.83,11.65,47.87-1.54,66.13-11.99-5.7-24.1-9.14-36.56-6.26,8.91,3.25,16.79,4.06,23.83,8.04,10.8,6.11,18.9,15.91,20.45,28.27l4,31.99,21.47,106.6c7.05,35.02,9.18,69.65,9.49,105.34.49.96,1.35,2.56.91,1.58,3.54-26.24,4.49-50.92.27-76.79l-21.71-133.1,16.61,7.72c8.96,4.16,17.13,8.66,23.99,15.86,10.82,11.36,18.43,24.1,25.91,38.71,2.44-4.61-1.33-8.06-2.71-11.74-6.35-16.96-15.54-30.62-29.71-43.46l24.92,7.73c-14.43-11.89-31.25-17.39-49.14-19.47l-9.89-13.99,2.77-14.4c1.44-7.51,2.67-14.38,5.73-21.41,2.72-6.26,4.05-12.85,4.19-19.33l40.56,6.49-24.86-10.8.4-1.95,33.77,2.53c-14.14-7.7-29.77-7.94-45.56-6.92,5.24-7.98,8.06-15.83,8.09-24.57l.09-22.7,41.78-54.68c2.98,8.73,4.7,15.74,5.2,23.78l4.51,72.45c.49,7.9-2.96,15.99-3.2,23.8l-1.26,39.81c-2.63,34.91,1.29,68.65,12.07,102.08,8.92,27.68,15.36,54.87,16.22,84.26,1.37,46.68-10.01,91.86-31.86,132.78-12.06,22.58-27.37,41.32-45.19,59.4-10.75,10.9-17.19,24.94-21.74,39.46-6.65,21.22-11.61,41.72-15.44,63.78-8.57,49.45-14.96,98.04-19.89,148.18l-.6,9.58c2.9,1.46,5.82,2.9,8.75,4.32l17.89-137.08c3.96-30.34,10.25-58.42,19.24-85.84,5.72-17.44,14.27-31.2,26.9-43.28,13.67-13.08,25.28-28.87,37.63-51.19,38.53-69.62,44.8-148.12,18.15-227.01-9.7-28.7-13.68-60.21-12.18-96.31l1.84-44.39c.14-3.34.76-6.8,1.37-10.14.82-4.51,1.66-9.18,1.38-13.78l-4-65.91c-.71-11.64-2.76-23.2-6.87-38.6l1.05-1.38c10.56-13.89,21.49-28.24,28.06-45,3.67-9.36,7.47-19.05,14.53-27.3l14.78-17.27c16.99-23.44,32.32-47.75,46.86-74.32,22.52-22.85,39.27-47.7,51.2-75.97l19.15-25.18c8.12-10.68,13.59-22.13,18.22-33.02,4.77,17.79,16.38,31.55,26.67,43.73,6.05,7.17,11.77,13.94,15.57,20.84,11.25,20.41,22.6,36.3,35.72,50.01,9.8,10.24,17.29,21.28,23.93,31.69l29.73,46.6c4.04,6.33,8.85,12.13,13.49,17.73,5.18,6.24,10.53,12.69,14.75,19.83,2.79,4.72,5.26,9.65,7.65,14.42,4.01,8,8.15,16.27,13.9,23.7-.33,1.14-.65,2.28-.98,3.42-3.06,10.62-5.96,20.66-5.71,31.82l2.05,93.15c.1,4.48,1.18,8.9,2.23,13.17.96,3.92,1.95,7.97,2.14,11.97l1.9,39.82c4.72,36.88,3.18,71.82-4.71,106.8-12.7,56.31-11.37,111.02,3.97,162.6,13.82,46.51,37.52,86.21,70.44,117.98,13.76,13.28,22.38,27.85,27.94,47.23,10.98,38.26,19.08,78.36,24.79,122.58l11.07,85.85c3.18-1.65,6.34-3.32,9.49-5.02-5.23-52.84-12.54-105.37-22.55-157.79ZM815.21,188.45l13.55,14.39,21.22,30.35c-15.49-4.69-25.65-16.85-35.06-28.99-3.87-4.99-4.69-10.34.29-15.75ZM811.84,145.41c9.54,14.31,19.21,27.89,27.28,45.33-11.12-5.44-17.99-17.14-25.82-27.36-4.01-5.23-5.98-11.63-1.46-17.97ZM740.32,158.8l-9.85,13.33c-7.43,7.95-13.58,16-24.68,20.44l32.21-46.82c.27.21.53.44.77.67l.07-.11c2.89,2.58,3.93,6.67,2.71,9.97-.27.9-.68,1.75-1.24,2.51ZM730.98,207.66c-9.32,11.3-19.19,21.46-33.37,27.08,9.68-16.44,20.64-30.96,32.68-45.1.27.18.51.38.76.57.02-.03.05-.06.07-.08,2.6,1.88,4.13,4.53,4.33,7.53.09,1.44-.14,2.87-.63,4.23-.66,2.12-1.95,4.13-3.84,5.78ZM740.57,318.85c-6.79,8.33-12.27,16.4-17.07,26.18-8.86,18.01-18.6,35.48-32.51,50.17-8,8.44-14.15,16.5-20.01,26.77-14.77,25.86-29.79,51.51-49.51,73.88-7.81,8.86-14.37,16.1-18.19,27.5-5.23,15.59-13.56,29.07-23.3,42.36-17.86,24.38-35.63,47.82-55.56,70.36-4.67,5.28-5.38,11.02-4.02,17.85,2.6,13.09-1.55,26.31-8.76,37.36-6.94,10.64-1.77,17.59-5.9,27.79-3.85,5.49-5.41,11.22-6.74,18.08-2.68-6.94-5.65-12.66-9.97-18.46,4.04-5.77,8.54-12.15,9.01-19.49l1.14-17.78c12.53-24.26,20.65-43.92,15.96-71.38l24-21.31,11.3-11.53c23.87-24.35,42.73-51.73,59.21-81.51,11.38-20.57,46.29-54.27,65.38-86.78l22.68-38.63,23.09-28.03,40.37-58.79c-2.64,14.4-11.92,24.76-20.6,35.41Z"/>
    <path d="M1298.11,1141.34c-13.15-32.27-20.79-65.3-21.93-100.61l-10.57-329.39-.98-106.97c-.17-18.07-7.56-33.39-22-44l-31.97-20.06c-13.68-8.58-26-17.15-37.63-28.21l-32.07-30.52-55.64-49.99-30.46-29.86-11.71-1.7c2.66-1.68,4.23-2.14,7.98-3.04-1.87-4.3-5.35-10.64-11.61-12.15-2.66-.64-7.19,3.29-9.39,4.65l-2.11,1.31c-.27.17-.27-2.05-.04-2.26l8.72-7.94-8.41-5.73-5.24-3.57-4.68,4.88-1.93,2.01c-.25.26-.22-1.36-.16-1.71l.3-1.96,2.27-5.21-11.31-8.94-26.93-25.39-41.67-36.73-17.56-16.69c-1.35-1.28-5.06-1.54-8.23-1.83.23-.35.63-.97.79-1.21l5.26-1.35-8.47-10.51c-1.29-1.6-5.49-1.53-8.8-1.45l5.96-3.57-9.95-9.64-4.33,1.6c.03-1.77.1-4.48-.81-5.42l-19.84-20.3-24.66-24.48-13.39-9.21c-11.26-9.67-20.54-20.46-28.59-33.01-2.76-4.3-1.81-10.19-.37-15.34-11.75-1.52-21.97,5.53-25.35,16.35-3.11,9.94-3.74,20.82-.52,30.19,11.02-8.96,23.04-13.18,35.87-10.09,8.97,6.81,16.08,15.14,22.3,24.51l19.83,24.54,21.79,23.85c8.12,8.89,17.8,16.25,25.26,25.78,13.73,17.55,27.33,33.39,43.33,48.95,17.05,16.57,32.3,34.08,50.41,49.45l27.65,20.27c12.59,9.23,18.69,23.57,35.51,37.34,20.69,16.93,39.16,35.39,57.93,54.45l26.63,27.06-.62,2.23-14.52-11.12-43.4-38.4-40.47-34.7c-6.59,2.95-11.81,4.27-18.93,4.34-1.9-.53-2.05-.97-.11-1.01l16.51-6.38-19.41-22.09-11.6,5.38-1.91,1.09c-.32.18-.28-1.33-.09-1.64.12-.19,1.12-1.39,1.3-1.53l7.98-6.26c.56-.44,1.69-1.32,1.7-1.31-1.05-1.67-19.28-10.27-29.28-20.12l-34.92-34.37-33.36-33.74-16.46-19.99c-8.33-10.11-16.88-19.25-25.77-28.81l-12.65-13.6c-4.73-5.08-9.19-10.74-15.6-13.87-17.91-8.76-33.07-20.86-44.86-36.98-3.28-4.49-3.55-9.86-2-15.77-13.11-.54-26.18,8.1-28.37,22.08-2.72,17.42-.55,36.28,8.09,52.07,12.9,23.58,28.57,44.4,44.66,65.7,8.27,10.95,16.31,20.02,26.29,30.35l1.06-1.75c2.42-6.54,5.34-10.92,10.32-17.05.1.2.68,1.31.87,1.68l-6.19,15.57c-.82,2.07-.64,7.15.44,9.13,17.74,32.4,38.52,62.03,62.47,90.02l9.15,9.39c.89.91,3.28,1.92,3.95.99l7.48-10.4c.24-.34,2.83-.13,2.61.23l-1.22,1.96c-2.63,4.22-5.48,8.83-4.88,13.71.44,3.65,4.04,8.68,7.25,11.01,4.87-8.32,6.39-16.4,15.16-21.15l-7.14,15.74c-1.71,3.76-3.48,11.08-1.65,15.04,5.63,12.2,11.73,23.3,20.28,33.38l33.47,39.48c10.46,12.34,23.39,23.36,37.42,31.48,10.46,4.52,22.28-1.17,33.74-1.52-9.37,8.17-21.69,9.59-33.85,8.63-4.18,22.21,3.49,43.58,14.89,61.62l7.96-17.16c1.76-1.36,2.43.63,1.61,2.09-5.39,19.84-8.64,43.01,5.73,58.32,10.91-6.32,22.39-9.88,35.62-8.14,2.62.7.95,1.61-1.2,1.44-21.77,3.95-37.95,15.16-40.67,37.1l-5.72,46.23-14.87,84.53c-6.87,39.03-9.71,77.09-8.35,117.17-5.85-20.81-6.64-42.41-4.23-64.14l7.23-65.36,16.26-114.24c1.5-10.52,2.82-19.91,9.16-28.73-9.76-10-12.18-23.37-11.94-37.08-7.5-12.71-13.5-25.53-17.79-39.5-3.04-11.46-3.62-22.64-.94-34.53-18.17-13.24-33.61-28.07-48.3-45.02-14.56-16.79-28.73-33.24-39.2-52.92-7.19-13.52-15.4-24.67-26.01-35.63-15.01-15.51-28.43-31.66-40.12-49.79l-31.77-49.27c-5.1-7.91-12.43-13.95-18.41-21.43-18.95-23.75-35.83-48.04-53.08-73.48-.68-2.22-.99-1.66-1.04-.14,4.92,15.88,12.86,28.68,23.36,40.84,5.73,6.64,12.41,13.05,16.59,20.88,9.71,18.18,20.59,34.45,34.86,49.56,10.44,11.05,19.46,22.29,26.94,35.67,9.51,17,19.96,32.44,31.72,47.96l25.03,33.04,18.17,33.37,34.47,46.22,33.65,39.21c4.07,4.74,7.52,10.56,5.87,17.16-3.36,13.46-1.59,26.8,5.78,38.98,7.75,12.82,1.09,23.18,6.34,30.87,4.71,6.9,7.13,12.87,6.27,21.5-1.51,15.14,10.84,19.4.24,31.48-12.61,14.37-29.09,14.93-43.47,31.63-10.32,11.98-16.9,25.28-25,39.25.59-6.9,3.4-12.64,5.79-18.61,5.73-14.33,13.99-26.59,26.4-36.82,2.26-.99.33-1.94-1.68-1.67-9.5,2.75-16.92,5.5-25.62,9.72l-.38-1.39,5.95-3.65c13.09-8.02,26.58-14.44,42.52-15.42l11.59-13.23c-7.56-8.51-4.25-19.69-6.17-29.1-4.57-10.25-11.53-20.01-8.81-32.35l-45.24,9.71v-1.55s31.01-10.69,31.01-10.69c-6.07-1.71-12.46-1.43-18.98-.68l-16.44,1.88,1.68-1.75c13.98-6.08,28.97-6.68,43.79-5.99-12.73-21.84-1.77-44.63-6.67-50.41l-28.77-33.91-30.46-38.69c-2.55,7.28-4.72,15.53-4.57,24.05l1.61,87.45c.23,12.66,3.16,24.07,5.21,36.48,1.11,6.75-.56,14.53-.12,21.52l4.01,62.54c.28,21.48-2.84,42.3-7.77,63.24-13.87,58.96-10.44,119.26,11.06,175.99,14.39,37.97,36.74,71.16,66.55,98.65,9.48,8.74,15.98,20.04,20.27,32.13,7.3,20.58,12.53,40.7,16.68,62.44,10.01,52.41,17.32,104.95,22.55,157.79.06-.03.11-.06.17-.09-5.46-55.26-12.94-107.56-22.59-158.1-4.37-22.85-9.67-42.72-16.7-62.53-4.74-13.35-11.61-24.24-20.42-32.37-29.68-27.37-52.02-60.48-66.4-98.42-21.14-55.77-24.95-116.5-11.04-175.64,5.57-23.66,8.04-43.8,7.78-63.41l-4.01-62.54c-.19-2.99.01-6.19.21-9.29.27-4.13.54-8.39-.1-12.29-.55-3.31-1.16-6.6-1.76-9.77-1.68-8.94-3.27-17.39-3.44-26.62l-1.61-87.45c-.13-6.81,1.2-14.08,4.18-22.82l29.8,37.86,28.77,33.91c1.69,2,1.28,6.6.76,12.43-.89,9.95-2.1,23.5,5.32,36.95-13.23-.56-28.57-.18-42.98,6.09l-3.01,3.07,18.07-2.07c5.17-.59,11.13-1,16.82.19l-29.5,10.17-.02,2.7,45.08-9.67c-1.81,9.76,2.26,17.98,6.2,25.93.95,1.91,1.93,3.89,2.8,5.84.6,2.99.67,6.11.74,9.42.15,6.72.3,13.66,5.21,19.49l-11.09,12.65c-17.01,1.11-31.05,8.45-42.54,15.49l-6.33,3.88.69,2.51.64-.31c8.32-4.04,15.72-6.84,25.44-9.66.91-.13,1.66.04,1.95.2-.09.08-.26.19-.59.33l-.14.09c-11.8,9.72-20.49,21.84-26.58,37.06-.38.96-.78,1.91-1.17,2.86-2.04,4.93-4.15,10.03-4.65,15.91l-.22,2.64,1.33-2.29c1.65-2.85,3.24-5.66,4.81-8.45,6.15-10.91,11.95-21.21,20.13-30.71,7.42-8.61,15.42-12.9,23.16-17.05,7.3-3.91,14.19-7.6,20.31-14.57,6.49-7.39,4.62-12.15,2.47-17.65-1.49-3.79-3.17-8.09-2.56-14.17.91-9.09-1.89-15.32-6.37-21.89-2.26-3.32-2.21-7.19-2.15-11.68.08-5.62.16-11.99-4.18-19.17-7.2-11.9-9.12-24.87-5.71-38.53,1.85-7.43-2.54-13.65-6-17.68l-33.62-39.18-34.42-46.15-18.22-33.45-25.03-33.04c-12.72-16.79-22.79-32.01-31.67-47.89-6.8-12.16-15.14-23.19-27.03-35.78-13.12-13.89-24.17-29.6-34.77-49.43-3.24-6.06-7.97-11.3-12.54-16.36-1.4-1.55-2.78-3.08-4.12-4.63-11.01-12.76-18.29-25.3-22.84-39.36,18.67,27.53,34.81,50.49,52.69,72.89,2.43,3.05,5.12,5.9,7.73,8.65,3.93,4.16,7.64,8.08,10.64,12.74l31.77,49.27c10.86,16.84,24.01,33.16,40.2,49.88,10.64,10.99,18.87,22.27,25.91,35.5,10.65,20.01,25.2,36.79,39.27,53.03,15.71,18.12,31,32.4,48.09,44.89-2.47,11.25-2.14,22.52,1.03,34.45,4.03,13.12,9.84,26.04,17.76,39.48-.26,16.51,3.48,28.28,11.77,36.99-6.15,8.79-7.46,17.93-8.97,28.59l-16.27,114.25-7.23,65.35c-2.63,23.76-1.24,44.82,4.25,64.37l1.33,4.73-.17-4.91c-1.34-39.28,1.39-77.56,8.34-117.05l14.88-84.56,5.72-46.23c2.42-19.59,16.29-32.24,40.11-36.58,1.1.07,2.91-.09,3.09-1.11.17-.98-1.29-1.37-1.84-1.51-11.99-1.57-23.31.96-35.58,7.98-14.38-15.76-9.93-40.23-5.29-57.35.58-1.1.5-2.42-.21-3.03-.28-.24-1.07-.71-2.32.25l-.11.09-7.56,16.3c-12.9-20.78-17.72-40.88-14.32-59.75,14.68,1.08,25.72-1.81,33.75-8.81l1.25-1.09-1.66.05c-4.01.13-8.09.9-12.04,1.65-7.6,1.44-14.77,2.81-21.38-.05-13.73-7.94-26.62-18.78-37.27-31.35l-33.47-39.48c-7.47-8.8-13.51-18.75-20.2-33.24-1.72-3.73-.07-10.75,1.66-14.54l7.87-17.34-1.55.84c-6.6,3.57-9.24,9.05-12.03,14.85-.93,1.93-1.89,3.93-3.03,5.93-2.86-2.32-6.08-6.85-6.49-10.2-.57-4.71,2.28-9.29,4.8-13.32l1.22-1.96c.17-.28.15-.69-.23-.94-.44-.29-2.86-.65-3.36.06l-7.48,10.4c-.06.09-.21.11-.33.12-.82.05-2.16-.6-2.72-1.18l-9.12-9.36c-24.59-28.74-45-58.15-62.4-89.91-.96-1.75-1.19-6.67-.41-8.63l6.29-15.83-.13-.24c-.19-.37-.77-1.48-.87-1.68h0s0,0,0,0l-.03-.06-.38-.74-.35.43h-.09s-.11.16-.11.16l-.37.21.1.2c-4.68,5.78-7.71,10.24-10.13,16.81l-.66,1.09c-10.66-11.08-18.14-19.74-25.71-29.74-15.5-20.5-31.52-41.7-44.62-65.63-8.08-14.75-10.93-33.11-8.02-51.69,1.98-12.65,13.51-21.84,27.03-21.61-1.51,6.3-.76,11.39,2.28,15.55,11.42,15.62,26.59,28.12,45.08,37.16,5.29,2.59,9.31,7.02,13.2,11.31.74.82,1.48,1.63,2.22,2.43l13.85,14.88c8.54,9.18,16.62,17.85,24.56,27.5l16.49,20.03,33.37,33.74,34.92,34.37c6.66,6.55,16.71,12.43,23.37,16.32,2.31,1.35,4.51,2.64,5.42,3.32-.28.21-.65.5-1.15.9l-7.98,6.26c-.26.2-1.3,1.46-1.44,1.69-.23.38-.41,1.86.06,2.34l.43.34,2.27-1.3,11.2-5.2,18.55,21.12-15.63,6.04c-.9.02-1.76.12-1.85.8-.09.67.64,1.01,1.92,1.37l.17.02c6.78-.07,12.09-1.26,18.82-4.24l40.18,34.45,43.43,38.42,15.22,11.65.95-3.4-26.88-27.3c-18.81-19.11-37.39-37.66-57.97-54.49-8.58-7.02-14.47-14.34-19.66-20.79-4.98-6.18-9.68-12.03-15.87-16.56l-27.62-20.24c-11.67-9.9-22.36-20.92-32.71-31.57-5.71-5.89-11.62-11.97-17.67-17.85-14.5-14.09-27.84-29.17-43.28-48.89-4.41-5.63-9.66-10.58-14.74-15.36-3.55-3.34-7.22-6.8-10.55-10.45l-21.77-23.83-19.8-24.49c-6.88-10.34-14.22-18.41-22.44-24.65l-.22-.1c-11.96-2.88-23.98.37-35.72,9.67-2.69-8.49-2.42-18.76.79-29.02,3.32-10.6,13.14-17.11,24.03-16.02-1.28,4.8-2.24,10.69.63,15.15,8.16,12.72,17.55,23.56,28.75,33.17l13.31,9.14,24.65,24.47,19.84,20.3c.73.74.67,3.46.64,4.99l-.02.87,4.8-1.77,9.13,8.84-7.22,4.33,2.25-.05c2.87-.07,7.19-.18,8.33,1.23l7.89,9.79-4.59,1.18-.91,1.41h0s0,0,0,0h0s-.04.06-.06.09l-.1.15h0s-.37.58-.37.58l.34.03c.04.08.1.15.2.21.12.08.23.11.33.11.17,0,.31-.11.43-.23l.29.03c2.74.25,6.15.55,7.26,1.61l17.57,16.7,41.65,36.71,26.97,25.42,10.95,8.66-2.09,4.79-.35,2.11s-.3,2,.42,2.36l.46.17,6.56-6.85,12.62,8.6-8.16,7.43c-.5.45-.43,2.61-.11,3.04l.4.45,2.57-1.59c.49-.3,1.09-.73,1.77-1.21,2.14-1.52,5.37-3.81,7.18-3.37,4.43,1.07,8,4.72,10.92,11.17-3.37.83-4.93,1.35-7.47,2.95l-1.36.86,13.1,1.9,30.34,29.74,55.63,49.98,32.07,30.52c12.53,11.92,25.54,20.64,37.72,28.29l31.93,20.03c14.07,10.33,21.59,25.38,21.76,43.53l.98,106.99,10.57,329.39c1.1,34.26,8.29,67.24,21.97,100.82,7.69,18.88,11.27,35.8,11.61,54.84.08,4.41.25,8.79.48,13.13.32-.4.64-.8.97-1.2-.19-3.86-.33-7.74-.4-11.65-.35-19.7-4.25-36.87-11.66-55.06Z"/>
    <path d="M258.8,1195.02c-.14-13.4,3.75-26.11,7.51-38.4l15.6-50.93c5.81-18.97,6.45-38.73,6.6-57.34l2.87-349.24-1.05-83.19c-.41-32.94,17.32-43.82,41.87-58.87,3.11-1.91,6.32-3.88,9.63-5.97,11.43-7.24,21.28-15.21,31.03-25.08l67.14-68.04,48.1-48.6c1.31-1.33,2.39-3.08,3.43-4.77,1.86-3.01,3.78-6.13,7.1-7.08,2.11-.6,4.35-.54,6.94-.48,2.1.06,4.47.12,7.05-.21l2.39-.3-13.72-5.09c.5-.64,1-1.3,1.52-1.98,3.43-4.53,7.32-9.66,12.96-11.05,2.81-.69,5.69,2.03,8.24,4.42,1.05.98,2.03,1.91,2.99,2.6l.91.66.02-1.13c.1-4.42-3.17-7.99-6.87-11.18l2.13-1.37c7.68-4.92,14.94-9.57,21.28-15.97,22.63-22.8,45.89-43.44,69.73-64.33,5.13-4.5,8.96-9.53,13.01-14.86,2.05-2.7,4.17-5.49,6.5-8.24,1.41-1.66,4.88-1.82,8.23-1.97,1.04-.05,2.06-.09,3.01-.18l1.81-.17-8.69-5.15,9.45-10.31,11.15,3.77-6.84-7.25c8.71-6.93,19.75-16.16,28.91-26.73,9.84-11.34,21.03-18.87,33.59-26.85,10.33-6.56,18.22-16.4,25.85-25.91,1.61-2,3.21-4,4.82-5.95,3.79-4.59,2.89-10.85,1.32-15.53,6.5-.57,12.52,1.46,17.03,5.76,5.14,4.9,7.78,12.07,7.25,19.69l-1.6,22.95c-9.16-11.77-20.87-15.38-38.82-12.04l-.17.03-.12.11c-8.74,7.94-16.42,16.86-24.9,28.92-10.45,14.85-21.72,27.19-35.35,41.78l-22.57,24.14-31.21,38.02-27.67,29.18-30.26,31.07c-6.84,7.02-14.37,12.14-21.66,17.1-8.22,5.59-15.98,10.87-20.83,17.91-8.72,12.66-19.12,23.67-34.81,36.85l-18.61,17.77c-8.07,7.71-17.61,17-27.08,27.51l-34.49,38.24,2.99-1.6c10.02-5.36,17.35-12.31,25.1-19.67,1.48-1.41,2.97-2.82,4.49-4.23l39.48-36.66,33.18-29.7c8.68,2.51,15.56,3.74,22.89,2.17l2.08-.45-20.21-6.97,11.74-15.61,22.7,7.55-2.4-2c-5.44-4.53-9.95-7.2-16.11-10.81,5.28-5.19,12.25-10.05,18.83-13.15l8.51,6.99-1.04-2.31c-1.59-3.54-2.95-5.42-4.62-7.47l16.38-13.86c10.95-9.27,20.21-19.41,30-30.15,2.55-2.79,5.1-5.59,7.7-8.39l28.54-30.71,22.54-28.47c5.47-5.39,10.77-11.24,15.89-16.89,7.48-8.25,15.21-16.79,23.48-23.92,1.83-1.12,3.66-2.23,5.49-3.34,16.91-10.22,32.87-19.88,42.41-38.6,1.43-2.81.41-8.28-.46-11.68,7.7-1.22,15.55,2.14,21.08,9.06,7.1,8.89,9.76,20.94,7.7,34.85-1.53,10.33-3.51,21.24-9.3,31.21-18.83,32.45-40.82,63.37-65.39,91.94-.51-1.06-1-2.12-1.48-3.15-3.57-7.66-6.94-14.9-14.1-20.04l-1.73-1.24.84,1.96c1.14,2.66,2.43,5.23,3.68,7.73,4.49,8.97,8.36,16.71,4.44,24.95-8.33,17.51-16.06,30.75-25.04,42.93l-31.27,42.4-11.66,12.54-.09-.15c-3.39-5.99-5.83-10.32-12.35-11.68l-1.3-.27.67,1.15c.78,1.34,1.59,2.62,2.38,3.87,1.88,2.98,3.66,5.79,4.6,8.74,1.73,5.44-2.56,10.18-6.27,13.41-3.7-8.11-7.76-15.77-15.45-20.92l-2.04-1.37,1.2,2.15c6.51,11.7,13.9,24.95,6.94,36.73-19.81,33.53-40.94,60.9-64.61,83.67l-1.51,1.46c-18.67,17.98-24.3,23.4-52.74,16.34l-1.92-.48,1.34,1.45c6.22,6.74,15.74,9.9,28.27,9.38,5.46,15.54,2.52,33.81-9,55.8-.5-.97-.98-1.93-1.45-2.87-3.19-6.37-5.95-11.87-10.63-17.29l-1.85-2.15.84,2.71c5.87,18.99,12.1,46.33-1.17,65.2-14.32-6.73-25.59-8.61-36.5-6.09l-1.95.45,1.88.69c3.48,1.27,6.78,2.16,9.97,3.02,4.9,1.32,9.52,2.57,13.77,4.97,11.57,6.55,18.73,16.43,20.15,27.82l4.01,32.04,21.47,106.6c6.19,30.71,9.11,63.17,9.48,105.23v.14s.07.13.07.13c1.17,2.28,1.24,2.42,1.81,2.15.45-.22.35-.63.23-.92,3.99-29.68,4.07-53.37.25-76.8l-21.53-131.99,15.59,7.24c8.22,3.82,16.8,8.37,23.81,15.73,11.5,12.08,19.2,25.68,25.81,38.57l.52,1.01.53-1.01c1.94-3.66.24-6.69-1.25-9.36-.55-.99-1.07-1.92-1.43-2.86-6.22-16.6-14.89-29.63-27.93-41.91l25.3,7.85-2.32-1.92c-13.1-10.8-29.2-17.2-49.19-19.57l-9.6-13.56,2.94-15.26c1.33-6.97,2.59-13.55,5.47-20.18,2.58-5.94,4-12.28,4.22-18.88l44.52,7.13-28.73-12.48.2-.97,35.99,2.7-2.42-1.32c-13.25-7.22-27.49-8.1-44.71-7.06,5.12-8.08,7.52-15.71,7.55-23.9l.08-22.5,40.98-53.64c2.97,8.88,4.38,15.49,4.82,22.58l4.51,72.45c.27,4.29-.67,8.75-1.58,13.06-.74,3.51-1.51,7.15-1.62,10.68l-1.26,39.79c-2.66,35.35,1.3,68.82,12.1,102.31,10.44,32.39,15.44,58.33,16.19,84.1,1.34,45.9-9.35,90.47-31.79,132.48-10.9,20.41-24.81,38.69-45.09,59.26-9.45,9.58-16.4,22.2-21.88,39.7-6.7,21.39-11.61,41.68-15.46,63.86-8.28,47.76-14.79,96.25-19.9,148.25l-.59,9.4c.34.17.69.34,1.04.52l.6-9.58c4.93-50.14,11.32-98.74,19.89-148.18,3.82-22.07,8.79-42.57,15.44-63.78,4.55-14.51,10.99-28.55,21.74-39.46,17.82-18.08,33.13-36.82,45.19-59.4,21.85-40.91,33.23-86.1,31.86-132.78-.86-29.39-7.29-56.59-16.22-84.26-10.78-33.43-14.7-67.17-12.07-102.08l1.26-39.81c.25-7.81,3.69-15.9,3.2-23.8l-4.51-72.45c-.5-8.04-2.22-15.05-5.2-23.78l-41.78,54.68-.09,22.7c-.03,8.74-2.85,16.59-8.09,24.57,15.78-1.02,31.42-.79,45.56,6.92l-33.77-2.53-.4,1.95,24.86,10.8-40.56-6.49c-.13,6.49-1.46,13.07-4.19,19.33-3.06,7.03-4.28,13.9-5.73,21.41l-2.77,14.4,9.89,13.99c17.9,2.09,34.71,7.58,49.14,19.47l-24.92-7.73c14.17,12.84,23.35,26.5,29.71,43.46,1.38,3.68,5.15,7.13,2.71,11.74-7.49-14.61-15.09-27.35-25.91-38.71-6.86-7.2-15.02-11.69-23.99-15.86l-16.61-7.72,21.71,133.1c4.22,25.86,3.27,50.54-.27,76.79.44.98-.42-.62-.91-1.58-.32-35.69-2.44-70.32-9.49-105.34l-21.47-106.6-4-31.99c-1.55-12.35-9.64-22.15-20.45-28.27-7.04-3.98-14.92-4.79-23.83-8.04,12.46-2.88,24.57.56,36.56,6.26,13.19-18.26,8.29-44.29,1.54-66.13,5.56,6.45,8.47,13.19,12.51,21.06,9.41-17.65,16.39-38.47,9.42-57.7-11.06.53-21.34-1.69-28.25-9.17,29.52,7.33,34.75,1.35,54.81-17.94,25.69-24.71,46.57-53.09,64.71-83.8,7.01-11.87-.09-25.03-6.93-37.32,7.93,5.31,11.9,13.3,15.57,21.39,4.28-3.62,8.91-8.69,7.04-14.55-1.36-4.28-4.4-8.2-7.03-12.73,6.55,1.36,8.81,5.85,12.44,12.24l12.21-13.14,31.31-42.45c10.04-13.62,17.81-27.71,25.1-43.03,5.19-10.91-2.96-21.18-8.11-33.17,8.21,5.9,11.29,14.47,15.78,23.78,24.93-28.89,46.87-59.67,66.05-92.71,5.72-9.86,7.73-20.35,9.37-31.42,1.88-12.69.08-25.42-7.82-35.31-5.6-7.01-13.86-10.76-22.28-9.16,1.09,4.09,1.97,9.33.67,11.89-10.51,20.63-29.35,30.44-47.68,41.7-14.08,12.14-26.01,27.62-39.48,40.9l-22.59,28.53-28.51,30.68c-12.37,13.31-23.82,26.78-37.65,38.49l-16.82,14.24c1.94,2.36,3.27,4.15,4.9,7.78l-6.84-5.62c-7.09,3.27-14.41,8.45-19.88,13.97,6.55,3.84,11.11,6.49,16.7,11.15l-20.14-6.7-12.49,16.6,18.97,6.54c-7.67,1.64-14.97.06-22.92-2.26l-33.42,29.92-39.49,36.67c-9.27,8.61-17.57,17.44-29.46,23.81l32.22-35.72c8.71-9.66,17.66-18.51,27.05-27.48l18.61-17.76c13.35-11.21,24.92-22.47,34.89-36.94,8.92-12.96,27.59-19.7,42.43-34.93l30.25-31.07,27.67-29.18,31.23-38.05,22.54-24.11c12.71-13.59,24.68-26.61,35.41-41.85,7.44-10.58,15.19-20.07,24.81-28.82,16.22-3.02,29.01-.92,39.19,13.08l1.71-24.54c1.03-14.84-9.92-27.87-25.68-26.01,1.88,5.2,2.61,11.34-.97,15.67-9.28,11.23-18.13,23.86-30.53,31.73-12.68,8.05-23.8,15.52-33.72,26.96-8.77,10.11-19.16,18.98-29.33,27.06l5.65,5.99-9.26-3.13-10.21,11.14,7.76,4.59c-4.08.39-9.59-.05-11.63,2.36-6.81,8.04-11.7,16.24-19.45,23.03-23.99,21.03-47.26,41.69-69.75,64.36-7.06,7.11-15.22,12.03-23.99,17.69,3.86,3.25,7.37,6.82,7.27,11.24-3.37-2.43-7.43-8.17-11.72-7.12-7.01,1.72-11.36,8.97-15.31,13.88l12.22,4.53c-5.58.71-10.05-.44-14.07.71-5.48,1.57-7.22,8.39-10.79,12l-48.1,48.6-67.14,68.04c-9.61,9.74-19.4,17.69-30.92,24.99-29.53,18.71-52.24,27.9-51.77,65.35l1.05,83.19-2.87,349.23c-.16,19.58-.94,38.76-6.57,57.17l-15.6,50.93c-3.85,12.57-7.68,25.17-7.54,38.58.11,10.3-.11,20.36-.66,30.35.04.05.08.09.12.14.56-10.16.79-20.36.68-30.79Z"/>
    <path d="M697.71,370.26l-22.68,38.63c-19.09,32.51-54,66.21-65.38,86.78-16.48,29.78-35.34,57.15-59.21,81.51l-11.3,11.53-24,21.31c4.69,27.46-3.43,47.12-15.96,71.38l-1.14,17.78c-.47,7.35-4.97,13.73-9.01,19.49,4.32,5.8,7.29,11.52,9.97,18.46,1.32-6.86,2.89-12.59,6.74-18.08,4.13-10.2-1.04-17.15,5.9-27.79,7.21-11.05,11.36-24.27,8.76-37.36-1.36-6.82-.65-12.56,4.02-17.85,19.92-22.54,37.7-45.98,55.56-70.36,9.73-13.29,18.07-26.78,23.3-42.36,3.83-11.4,10.38-18.65,18.19-27.5,19.72-22.37,34.74-48.02,49.51-73.88,5.86-10.27,12.02-18.33,20.01-26.77,13.91-14.69,23.66-32.16,32.51-50.17,4.8-9.77,10.28-17.85,17.07-26.18,8.68-10.65,17.96-21.01,20.6-35.41l-40.37,58.79-23.09,28.03ZM759.48,285.98c-3,11.71-10.52,20.86-17.81,29.73l-2.02,2.46c-7.35,9.01-12.64,17.12-17.14,26.29-8.4,17.07-18.13,34.95-32.41,50.02-8.37,8.84-14.38,16.88-20.1,26.88-15.71,27.5-30.27,52.03-49.44,73.78l-.62.7c-7.47,8.47-13.93,15.79-17.69,27-5.76,17.18-15.43,31.58-23.21,42.2-16.68,22.77-34.94,47.04-55.52,70.32-4.41,4.99-5.69,10.65-4.16,18.35,2.32,11.68-.76,24.79-8.68,36.92-4.02,6.17-4.07,11.21-4.13,16.09-.04,3.66-.08,7.44-1.8,11.74-3.42,4.9-5.08,9.96-6.4,16.29-2.58-6.32-5.42-11.45-9.05-16.4,3.97-5.67,8.4-12.08,8.87-19.45l1.13-17.66c11.97-23.17,20.73-43.17,16.02-71.32l23.79-21.12,11.3-11.53c21.84-22.28,41.24-48.99,59.31-81.63,5.2-9.39,15.14-21.32,26.66-35.13,13.29-15.94,28.35-34,38.71-51.64l22.63-38.56,23.12-28.07,38.65-56.29Z"/>
    <path d="M731.32,206.91l-.07.07c-9.71,11.78-18.86,20.8-31.5,26.23,8.45-14.13,18.44-27.85,31.3-43-.25-.19-.49-.39-.76-.57-12.04,14.14-23.01,28.66-32.68,45.1,14.18-5.62,24.06-15.78,33.37-27.08,1.89-1.65,3.18-3.66,3.84-5.78-.67,1.86-1.85,3.59-3.5,5.02Z"/>
    <path d="M849.99,233.19l-21.22-30.35-13.55-14.39c-4.98,5.41-4.16,10.76-.29,15.75,9.42,12.13,19.57,24.3,35.06,28.99ZM814.77,189.03l13.05,13.85,20.21,28.9c-14.08-4.87-23.7-16.14-33.1-28.24-4.03-5.19-4.09-9.94-.17-14.51Z"/>
    <path d="M730.76,171.42c-1.06,1.14-2.1,2.28-3.13,3.41-5.72,6.29-11.15,12.25-19.46,16.08l30.61-44.49c-.24-.23-.5-.46-.77-.67l-32.21,46.82c11.11-4.44,17.25-12.49,24.68-20.44l9.85-13.33c.56-.76.97-1.62,1.24-2.51-.24.65-.56,1.28-.99,1.85l-9.81,13.28Z"/>
    <path d="M839.12,190.74c-8.07-17.44-17.74-31.02-27.28-45.33-4.51,6.34-2.54,12.75,1.46,17.97,7.83,10.22,14.69,21.92,25.82,27.36ZM811.38,146.17c1.08,1.61,2.16,3.22,3.23,4.82,7.83,11.65,15.92,23.69,22.77,38.11-8.09-4.55-13.98-12.64-19.69-20.48-1.42-1.95-2.89-3.97-4.37-5.9-3.13-4.09-5.93-10.21-1.94-16.55Z"/>
    <path d="M308.88,629.77l2.86,48.81h1.64s2.93-58.38,2.93-58.38c1.01-20.17,14.86-36.29,31.34-46.9,15.64-10.08,30.94-18.9,43.59-33.87l-47.47,27.79c-22.3,13.05-36.43,36.26-34.89,62.55Z"/>
    <path d="M307.83,629.51l2.86,48.81.03.56,2.76-.02,2.96-58.92c1.19-23.76,19.98-39.29,31.07-46.44,1.82-1.17,3.64-2.33,5.45-3.48,13.9-8.85,27.04-17.21,38.28-30.5l2.23-2.64-50.45,29.53c-23.54,13.78-36.69,37.37-35.18,63.1ZM391.24,539.43c-12.65,14.97-27.95,23.79-43.59,33.87-16.48,10.62-30.33,26.73-31.34,46.9l-2.93,58.37h-1.64s-2.86-48.8-2.86-48.8c-1.54-26.29,12.59-49.5,34.89-62.55l47.47-27.79Z"/>
    <path d="M1214.79,562.41l-48.98-28.13c10.99,15,26.78,22.98,41.85,32.06,17.66,10.64,31.59,27.47,33.36,48.47l4.76,56.6h.03s1.99-53.95,1.99-53.95c.81-21.9-15.02-44.72-33.01-55.05Z"/>
    <path d="M1214.63,561.6l-51.41-29.53,1.65,2.26c9.58,13.08,22.97,20.97,35.92,28.59,2.04,1.2,4.08,2.4,6.11,3.63,19.44,11.72,31.49,29.22,33.07,48.01l4.78,56.88,1.02-.02-4.76-56.6c-1.76-21-15.7-37.83-33.36-48.47-15.07-9.08-30.86-17.06-41.85-32.06l48.98,28.13c17.99,10.33,33.81,33.15,33.01,55.05l-1.99,53.95h.13s2-54.23,2-54.23c.85-23.19-16.52-45.95-33.3-55.59Z"/>
    <path d="M526.49,1082.11c-6.01,13.44-11.1,25.56-20.36,36.1-9.69,11.02-22.5,19.96-37.68,19.19l-32.39-1.64c22.58,10.79,46.93,11.37,66.54-5.34,13.73-11.69,22.38-31.03,23.91-48.31Z"/>
    <path d="M526.63,1081.87l.31-3.51-2.61,5.83c-5.4,12.11-10.5,23.56-19.1,33.34-8.02,9.12-20.97,19.81-37.21,18.99l-35.35-1.79,2.67,1.28c11.09,5.3,21.94,7.88,32.16,7.78,12.93-.13,24.86-4.55,35.02-13.21,13.01-11.09,22.48-30.21,24.11-48.71ZM436.05,1135.77l32.39,1.64c15.18.77,28-8.18,37.68-19.19,9.27-10.54,14.35-22.66,20.36-36.1-1.52,17.29-10.18,36.62-23.91,48.31-19.61,16.71-43.95,16.13-66.54,5.34Z"/>
    <path d="M1054.02,1102.11l-11.76-22.48c2.38,14.92,8.95,31.3,19.4,42.12,20.15,20.85,48.77,20.62,73,7.26l-31.7,3.64c-19.71,2.26-40.1-13.66-48.93-30.54Z"/>
    <path d="M1054.09,1101.54l-13.45-25.7.57,3.59c2.66,16.66,9.98,32.52,19.56,42.44,10.87,11.24,24.98,16.9,40.16,16.75,10.9-.11,22.35-3.21,33.55-9.38l2.63-1.45-34.69,3.99c-19.94,2.29-39.78-13.87-48.34-30.23ZM1134.66,1129.01c-24.23,13.36-52.84,13.59-73-7.26-10.45-10.82-17.02-27.2-19.4-42.12l11.76,22.48c8.83,16.89,29.22,32.81,48.93,30.54l31.7-3.64Z"/>
  </g>
</svg>