<?xml version="1.0" encoding="UTF-8"?>
<svg id="Camada_1" data-name="Camada 1" xmlns="http://www.w3.org/2000/svg" xmlns:xlink="http://www.w3.org/1999/xlink" viewBox="0 0 719.68 377.78">
  <defs>
    <style>
      .cls-1 {
        fill: #0291da;
      }

      .cls-2 {
        filter: url(#drop-shadow-1);
      }

      .cls-3 {
        fill: #0683b5;
      }
    </style>
    <filter id="drop-shadow-1" x="-15.16" y="-8.09" width="750" height="408" filterUnits="userSpaceOnUse">
      <feOffset dx="0" dy="7"/>
      <feGaussianBlur result="blur" stdDeviation="5"/>
      <feFlood flood-color="#000" flood-opacity=".5"/>
      <feComposite in2="blur" operator="in"/>
      <feComposite in="SourceGraphic"/>
    </filter>
  </defs>
  <g class="cls-2">
    <path class="cls-3" d="M515.54,361.92H206.72c-105.19,0-190.46-23.29-190.46-77.39V109.82C16.26,55.71,101.54,11.85,206.72,11.85h308.82c105.19,0,190.46,43.86,190.46,97.97v174.71c0,54.11-85.27,77.39-190.46,77.39Z"/>
    <g>
      <path class="cls-1" d="M0,75.45v232.03c0,42.31,158.06,70.3,359.84,70.3s359.84-28,359.84-70.3V75.45C719.68,33.14,561.62,0,359.84,0S0,33.14,0,75.45ZM673.35,307.79c-4.18,15.83-31.33,24.79-72.66,32.59l-15.68,2.96v-4.28c0-4.28-10.39-7.76-23.15-7.76s-23.15,3.48-23.15,7.76v8.13c.12.23.26.46.45.69l2.48,3.1-8.97,1.12c-44.51,5.55-91.12,8.83-138.54,9.76l-11.13.22v-24.61c0-4.28-10.39-7.76-23.15-7.76s-23.15,3.48-23.15,7.76v24.61l-11.13-.22c-47.42-.93-94.03-4.21-138.54-9.76l-8.97-1.12,2.48-3.1c.18-.23.34-.46.45-.69v-28.09c0-4.28-10.39-7.76-23.15-7.76s-23.15,3.48-23.15,7.76v24.23l-15.68-2.96c-41.33-7.8-68.49-16.76-72.66-32.59l-.04-.31V113.59l17.5,5.19c.79.24,1.68.46,2.56.68.97.25,1.94.49,2.84.75,6.21,1.79,11.38,3.15,16.41,4.34,3.19.78,6.3,1.51,9.45,2.23,5.31,1.21,11.32,2.47,18.36,3.86l2.45.48c2.49.49,4.97.97,7.46,1.44,6.81,1.24,14.39,2.49,23.74,3.92,1.05.16,2.05.32,3.05.49,1.25.21,2.5.41,3.83.6,10.79,1.56,22.05,3,33.56,4.3,1.69.19,3.41.36,5.14.52,1.27.12,2.54.25,3.8.37,9.6,1.02,18.45,1.86,27.12,2.59,3.57.3,7.18.57,10.79.84l2.43.18c8.24.61,16.82,1.18,25.47,1.68,4.79.28,9.57.53,14.41.78,8,.38,16.91.73,27.95,1.11l3.36.11c3.16.11,6.33.22,9.52.29,3.16.08,6.19.15,9.21.2l10,.17v6.74c0,4.28,10.39,7.76,23.15,7.76s23.15-3.48,23.15-7.76v-6.73l10-.17c3.02-.05,6.05-.12,9.09-.2,3.29-.08,6.44-.19,9.59-.29l3.43-.12c10.44-.32,19.54-.68,27.91-1.11,4.85-.25,9.62-.5,14.43-.78,8.51-.49,17.06-1.05,25.45-1.68l2.04-.15c3.76-.28,7.49-.56,11.15-.86,8.73-.73,17.57-1.57,27.07-2.58l1.62-.15,14.02-1.66-.12,4.99v20.98c0,4.28,10.39,7.76,23.15,7.76s23.15-3.48,23.15-7.76v-32.28l5.63-.99c1.08-.19,2.12-.39,3.16-.59.88-.17,1.75-.34,2.66-.5,2.39-.45,4.85-.93,7.31-1.41l2.58-.5c6.98-1.38,13-2.64,18.35-3.86,3.18-.69,5.96-1.36,9.21-2.17,6.03-1.48,11.79-3.05,16.63-4.4.89-.25,1.86-.5,2.84-.74.88-.22,1.76-.44,2.56-.68l17.5-5.19-.04,194.16ZM673.39,75.45c0,16.12-33.86,31.31-95.34,42.75-59.53,11.08-137.02,17.18-218.21,17.18s-158.69-6.1-218.21-17.18c-61.47-11.44-95.33-26.63-95.33-42.75s33.86-31.31,95.33-42.75c59.53-11.08,137.02-17.18,218.21-17.18s158.68,6.1,218.21,17.18c61.48,11.44,95.34,26.63,95.34,42.75Z"/>
      <path class="cls-1" d="M138.84,66.15c-1.99,1.12-3.01,2.36-3.02,3.62.12,2.59,4.2,5.01,10.92,6.41,10.73,2.16,24.94,1.17,32.25-2.3,6.45-3.07,63.85-18.66,180.85-18.66s173.79,15.33,180.44,18.35l.64.33c3.1,1.79,8.1,3.07,14.07,3.61,5.97.53,12.21.25,17.56-.78l.12-.02c10.82-2.17,14.48-6.88,8.15-10.54-18.5-10.66-101.53-26.45-220.99-26.45s-202.5,15.78-221,26.45Z"/>
    </g>
  </g>
</svg>